<svg width="30" height="30" viewBox="0 0 30 30" fill="none" xmlns="http://www.w3.org/2000/svg">
<path d="M14.5 3C16.1415 3 17.767 3.32332 19.2835 3.95151C20.8001 4.57969 22.1781 5.50043 23.3388 6.66117C24.4996 7.8219 25.4203 9.19989 26.0485 10.7165C26.6767 12.233 27 13.8585 27 15.5C27 18.8152 25.683 21.9946 23.3388 24.3388C20.9946 26.683 17.8152 28 14.5 28C8.75 28 3.9375 24.15 2.45 18.9125L7.2375 20.8875C7.5625 22.5 9 23.725 10.7125 23.725C12.6625 23.725 14.25 22.1375 14.25 20.1875V20.025L18.5 16.9875H18.6C21.2 16.9875 23.3125 14.875 23.3125 12.275C23.3125 9.675 21.2 7.5625 18.6 7.5625C16 7.5625 13.875 9.675 13.875 12.275V12.3375L10.9125 16.6625L10.7125 16.65C9.975 16.65 9.2875 16.875 8.725 17.2625L2 14.5C2.5375 8.0625 7.9125 3 14.5 3ZM9.85 21.9625C10.85 22.375 12 21.9125 12.4125 20.9125C12.825 19.9125 12.35 18.775 11.375 18.3625L9.775 17.7C10.3875 17.475 11.075 17.4625 11.725 17.7375C12.3875 18 12.9 18.5125 13.1625 19.175C13.4375 19.825 13.4375 20.55 13.1625 21.2C12.625 22.55 11.0375 23.2 9.6875 22.6375C9.0625 22.375 8.5875 21.9 8.325 21.3375L9.85 21.9625ZM21.75 12.275C21.75 14.0125 20.3375 15.425 18.6 15.425C16.875 15.425 15.4625 14.0125 15.4625 12.275C15.4608 11.8625 15.5409 11.4538 15.698 11.0724C15.855 10.691 16.0861 10.3444 16.3778 10.0528C16.6694 9.76109 17.016 9.53005 17.3974 9.37296C17.7788 9.21587 18.1875 9.13585 18.6 9.1375C20.3375 9.1375 21.75 10.55 21.75 12.275ZM16.25 12.275C16.25 13.575 17.3 14.6375 18.6125 14.6375C19.9125 14.6375 20.9625 13.575 20.9625 12.275C20.9625 10.975 19.9125 9.9125 18.6125 9.9125C17.3 9.9125 16.25 10.975 16.25 12.275Z" fill="white"/>
</svg>
