<svg width="30" height="30" viewBox="0 0 30 30" xmlns="http://www.w3.org/2000/svg">
<path d="M18.1051 14.45C18.1051 15.121 17.6166 15.671 16.9977 15.671C16.3897 15.671 15.8903 15.121 15.8903 14.45C15.8903 13.779 16.3789 13.229 16.9977 13.229C17.6166 13.229 18.1051 13.779 18.1051 14.45ZM13.0349 13.229C12.416 13.229 11.9274 13.779 11.9274 14.45C11.9274 15.121 12.4269 15.671 13.0349 15.671C13.6537 15.671 14.1423 15.121 14.1423 14.45C14.1531 13.779 13.6537 13.229 13.0349 13.229ZM24.5 6.266V26C21.7648 23.551 22.6395 24.3617 19.4623 21.369L20.0377 23.404H7.72571C6.49886 23.404 5.5 22.392 5.5 21.138V6.266C5.5 5.012 6.49886 4 7.72571 4H22.2743C23.5011 4 24.5 5.012 24.5 6.266ZM21.4057 16.694C21.4057 13.152 19.8423 10.281 19.8423 10.281C18.2789 9.093 16.7914 9.126 16.7914 9.126L16.6394 9.302C18.4851 9.874 19.3429 10.699 19.3429 10.699C16.7638 9.26689 13.7343 9.26664 11.2326 10.38C10.8309 10.567 10.592 10.699 10.592 10.699C10.592 10.699 11.4931 9.83 13.4474 9.258L13.3389 9.126C13.3389 9.126 11.8514 9.093 10.288 10.281C10.288 10.281 8.72457 13.152 8.72457 16.694C8.72457 16.694 9.63657 18.289 12.036 18.366C12.036 18.366 12.4377 17.871 12.7634 17.453C11.3846 17.035 10.8634 16.155 10.8634 16.155C11.0231 16.2683 11.2865 16.4151 11.3086 16.43C13.1411 17.4698 15.7442 17.8104 18.0834 16.815C18.4634 16.672 18.8869 16.463 19.332 16.166C19.332 16.166 18.7891 17.068 17.3669 17.475C17.6926 17.893 18.0834 18.366 18.0834 18.366C20.4829 18.289 21.4057 16.694 21.4057 16.694Z" fill='#fff'/>
</svg>
