<svg width="30" height="30" viewBox="0 0 30 30" fill="none" xmlns="http://www.w3.org/2000/svg">
<path d="M5.62451 10.0487C6.29695 8.64745 7.24704 7.46309 8.44441 6.47829C10.0669 5.13775 11.9281 4.33083 14.0148 4.08354C16.4659 3.79288 18.7696 4.25708 20.8997 5.53254C21.429 5.84924 21.9235 6.20932 22.3964 6.59976C22.5135 6.69521 22.5005 6.7516 22.4008 6.84705C21.4333 7.81015 20.4659 8.77326 19.5071 9.74504C19.3943 9.85783 19.3336 9.84916 19.2121 9.75805C16.4009 7.59324 12.3012 8.17891 10.2058 11.0422C9.83701 11.5454 9.53767 12.0877 9.32943 12.6777C9.31207 12.7298 9.27737 12.7775 9.25134 12.8296C8.6917 12.4044 8.12772 11.9793 7.57241 11.5498C6.92167 11.0509 6.27092 10.552 5.62451 10.0487Z" fill="white"/>
<path d="M9.25128 16.8989C9.43783 17.3111 9.59401 17.7406 9.82828 18.1267C10.8131 19.7405 12.2187 20.7774 14.0711 21.1461C15.7414 21.4802 17.3466 21.2546 18.8433 20.4173C18.8953 20.3913 18.9474 20.3652 18.9951 20.3392C19.0212 20.3652 19.0428 20.3956 19.0689 20.4173C20.1882 21.285 21.3118 22.1526 22.4311 23.0203C21.8931 23.5539 21.2814 23.9834 20.6307 24.3565C18.7435 25.4324 16.7002 25.8662 14.5484 25.7014C11.8673 25.4931 9.55496 24.4346 7.64611 22.5257C6.80881 21.6884 6.11902 20.7427 5.62012 19.6624C6.08432 19.3067 6.54852 18.9553 7.01271 18.5995C7.7589 18.0312 8.50509 17.4672 9.25128 16.8989Z" fill="white"/>
<path d="M22.4355 23.0204C21.3162 22.1527 20.1926 21.285 19.0733 20.4174C19.0473 20.3957 19.0213 20.3653 18.9996 20.3393C19.3857 20.0399 19.7805 19.7493 20.0972 19.3675C20.6264 18.7341 20.9778 18.0183 21.16 17.2157C21.1817 17.1159 21.1644 17.0812 21.0646 17.0855C21.0125 17.0899 20.9648 17.0855 20.9128 17.0855C19.1427 17.0855 17.3684 17.0812 15.5983 17.0899C15.4031 17.0899 15.3597 17.0378 15.3641 16.8513C15.3727 15.5932 15.3727 14.3351 15.3641 13.0769C15.3641 12.9164 15.4074 12.873 15.568 12.873C18.813 12.8774 22.0581 12.8774 25.3075 12.873C25.4463 12.873 25.5027 12.9078 25.5374 13.0553C25.802 14.2483 25.7847 15.4457 25.6242 16.6517C25.494 17.6148 25.2597 18.5476 24.8997 19.4499C24.366 20.7818 23.5808 21.9445 22.5483 22.9423C22.5093 22.9726 22.4702 22.9943 22.4355 23.0204Z" fill="white"/>
<path d="M9.25143 16.899C8.50524 17.4673 7.75905 18.0313 7.01286 18.5996C6.54866 18.951 6.08447 19.3067 5.62027 19.6625C5.26019 18.9944 5.02592 18.2872 4.83503 17.5584C4.47061 16.1484 4.41422 14.7168 4.61378 13.2808C4.76996 12.1528 5.09533 11.0683 5.62027 10.0531C6.27101 10.552 6.91742 11.0553 7.56817 11.5542C8.12781 11.9836 8.68745 12.4088 9.24709 12.834C9.15165 13.2982 9.01716 13.7537 8.97378 14.2309C8.89569 15.0986 8.97812 15.9445 9.2254 16.7775C9.24275 16.8122 9.24709 16.8556 9.25143 16.899Z" fill="white"/>
</svg>
