<svg width="30" height="30" viewBox="0 0 30 30" fill="none" xmlns="http://www.w3.org/2000/svg">
<path d="M28.3505 8.11891C28.5462 7.47437 28.3505 7 27.4087 7H24.2925C23.4989 7 23.1338 7.40734 22.938 7.86109C22.938 7.86109 21.3508 11.6303 19.1075 14.0744C18.3827 14.7808 18.0494 15.0077 17.6526 15.0077C17.4568 15.0077 17.1553 14.7808 17.1553 14.1362V8.11891C17.1553 7.34547 16.933 7 16.277 7H11.3778C10.8804 7 10.5842 7.36094 10.5842 7.69609C10.5842 8.42828 11.7058 8.59844 11.8222 10.6609V15.1366C11.8222 16.1163 11.6423 16.2967 11.2455 16.2967C10.1873 16.2967 7.61605 12.512 6.09232 8.18078C5.78545 7.34031 5.48388 7 4.68498 7H1.56873C0.679885 7 0.5 7.40734 0.5 7.86109C0.5 8.66547 1.55815 12.6616 5.42568 17.9416C8.00227 21.5458 11.6317 23.5 14.9331 23.5C16.9172 23.5 17.1605 23.0669 17.1605 22.3192C17.1605 18.8748 16.9807 18.55 17.9753 18.55C18.4356 18.55 19.2292 18.7769 21.081 20.5145C23.1973 22.577 23.5465 23.5 24.7316 23.5H27.8478C28.7367 23.5 29.1864 23.0669 28.9272 22.2109C28.3346 20.4114 24.3295 16.7092 24.1496 16.4617C23.6893 15.8842 23.8216 15.6264 24.1496 15.1108C24.1549 15.1056 27.959 9.8875 28.3505 8.11891Z" fill="#FAFAFA"/>
</svg>
