<svg width="47" height="49" viewBox="0 0 47 49" fill="none" xmlns="http://www.w3.org/2000/svg">
<path d="M18.6045 46.7734C24.7827 41.1971 30.5998 35.232 36.0204 28.914C37.1844 27.567 38.3298 26.198 39.4452 24.8256C41.941 21.7942 44.2748 18.6323 46.4366 15.3529C46.002 14.1109 45.1477 11.6701 45.1477 11.6701L33.1635 13.9475L28.2413 14.8828L28.2354 14.899C21.1584 6.66377 11.2483 1.39862 0.48813 0.15711C0.552021 0.246334 0.617992 0.344109 0.682523 0.435522C6.58839 9.31774 11.0185 19.0969 13.7999 29.3909C15.6707 35.7508 16.3799 42.393 15.8932 48.997C16.6558 48.4082 17.4338 47.7669 18.2182 47.0988C18.3475 46.9889 18.4749 46.8852 18.6045 46.7734Z" fill="#343849"/>
</svg>
