<svg width="89" height="89" viewBox="0 0 89 89" fill="none" xmlns="http://www.w3.org/2000/svg">
<path fill-rule="evenodd" clip-rule="evenodd" d="M87.1659 64.2951C69.8194 55.6256 53.9907 44.2054 40.2843 30.469C31.794 22.3338 24.7931 12.7678 19.5922 2.20142C19.394 1.79876 19.1985 1.39464 19.0055 0.989105C18.8354 1.40138 18.6667 1.81972 18.4993 2.24338C17.9929 3.5251 17.4985 4.8555 17.012 6.21366C16.9666 6.33998 16.9207 6.46421 16.8749 6.58836C16.8127 6.75657 16.7506 6.92466 16.6898 7.09768C11.8789 21.834 8.00274 36.8552 5.08467 52.0706C4.44929 55.3223 3.86375 58.5918 3.32954 61.8387C2.09774 69.0406 1.24542 76.2999 0.776153 83.5863C2.60843 85.1706 6.20961 88.2839 6.20961 88.2839L30.386 67.278L30.3807 67.2465C30.4016 67.2538 30.4225 67.2611 30.4433 67.2683C30.7805 67.3853 31.1182 67.5 31.4565 67.6123C49.6236 73.6434 69.4 72.8546 87.1321 65.3955C87.244 65.3484 87.3559 65.3011 87.4676 65.2535C87.4769 65.2495 87.4863 65.2455 87.4956 65.2416C87.7826 65.1192 88.0691 64.995 88.355 64.8691C88.2512 64.8222 88.1438 64.7715 88.0363 64.7208C87.9533 64.6816 87.8703 64.6424 87.7887 64.6049C87.5809 64.502 87.3733 64.3988 87.1659 64.2951ZM85.9498 64.803C68.8111 56.1351 53.1622 44.7892 39.5842 31.1832C31.2315 23.178 24.3066 13.8016 19.0997 3.45626M85.9498 64.803C68.2975 72.0032 48.6647 72.552 30.7096 66.3022L29.114 65.7468L29.3067 66.8911L22.6911 72.639L6.20802 86.9606L1.80664 83.1553C2.27998 76.0702 3.1173 69.0114 4.3153 62.0072L4.31635 62.001C4.84902 58.7634 5.43281 55.5036 6.06618 52.2623L6.06684 52.2589C8.97628 37.0885 12.8408 22.1116 17.637 7.41863" fill="white"/>
</svg>
