<svg width="30" height="34" viewBox="0 0 30 34" fill="none" xmlns="http://www.w3.org/2000/svg">
<path d="M27.6409 0.387807C22.0918 1.57152 16.6233 3.10701 11.2685 4.98504C10.122 5.38262 8.97895 5.79947 7.85245 6.22855C5.34522 7.16529 2.88919 8.23409 0.494641 9.43049C0.327779 10.3097 -2.10509e-06 12.0375 -2.10509e-06 12.0375L7.85246 14.7704L11.0777 15.8929L11.0867 15.8854C12.4574 23.1411 16.5136 29.6109 22.4436 34C22.4363 33.9257 22.4307 33.8457 22.4238 33.77C21.9651 26.5313 22.6836 19.2661 24.5512 12.2581C25.615 7.87665 27.4609 3.72383 30 5.24443e-06C29.3489 0.0875247 28.6709 0.200725 27.98 0.327544C27.8662 0.348294 27.7555 0.366052 27.6409 0.387807Z" fill="#343849"/>
</svg>
