<svg width="72" height="72" viewBox="0 0 72 72" fill="none" xmlns="http://www.w3.org/2000/svg">
<path d="M13.1355 5.75887C9.29452 17.6386 6.21424 29.7528 3.91327 42.0282C3.41198 44.6515 2.95126 47.2895 2.53215 49.9094C1.56441 55.7204 0.905251 61.5795 0.557424 67.4623C2.05331 68.7502 4.99333 71.2812 4.99333 71.2812L18.8482 59.3337L24.5389 54.4266L24.5344 54.4012C39.9012 59.7947 56.7196 59.2039 71.6242 52.747C71.4743 52.679 71.3153 52.6014 71.1629 52.5311C56.8317 45.4185 43.7443 36.0336 32.4118 24.743C25.2124 17.8818 19.3098 9.78256 14.9888 0.835877C14.4401 2.17306 13.9108 3.58983 13.3932 5.04637C13.3077 5.28613 13.22 5.51648 13.1355 5.75887Z" fill="#343849"/>
</svg>
