<svg width="40" height="41" viewBox="0 0 40 41" fill="none" xmlns="http://www.w3.org/2000/svg">
<path fill-rule="evenodd" clip-rule="evenodd" d="M38.2181 16.2305L38.2178 16.227C38.1088 14.7046 37.9753 13.1797 37.8214 11.6704L37.8208 11.6641C37.5176 8.48917 37.055 5.33161 36.4348 2.20337L34.6374 1.3361L29.2088 9.33492L27.0975 12.4458L27.5798 13.4898L25.884 13.3628C17.5509 12.7386 9.28332 15.0296 2.47928 19.8048C10.896 21.695 18.9827 24.846 26.4646 29.1543C30.9055 31.5834 34.9328 34.6931 38.4021 38.3664C38.4112 38.2599 38.42 38.153 38.4287 38.0456L38.4288 38.0445C38.4357 37.9595 38.4416 37.8957 38.447 37.8367C38.4532 37.7691 38.4589 37.7077 38.4649 37.6281C38.8355 30.4975 38.7531 23.3506 38.2181 16.2305ZM39.463 37.6915C39.8365 30.5148 39.7537 23.3216 39.2153 16.1555C39.1055 14.6226 38.9711 13.0876 38.8163 11.569C38.494 8.19481 37.9937 4.84009 37.3173 1.51883L34.2946 0.0604099L25.9525 12.3521L25.9588 12.3656C25.9486 12.3648 25.9385 12.3641 25.9283 12.3633C25.5607 12.3361 25.1932 12.3144 24.826 12.2982C16.3432 11.9234 7.98899 14.4745 1.16373 19.5202C0.927081 19.6951 0.692271 19.873 0.45936 20.054C0.455684 20.0568 0.452012 20.0597 0.448336 20.0625C0.333627 20.1517 0.219381 20.2416 0.1056 20.3322C0.158148 20.3409 0.212756 20.3508 0.267404 20.3608C0.3096 20.3684 0.351822 20.3761 0.393142 20.3832C0.729429 20.4508 1.06522 20.5204 1.4005 20.5921C10.0317 22.4365 18.3235 25.6191 25.975 30.0264C30.5862 32.5473 34.7424 35.8174 38.2748 39.7C38.5755 40.0305 38.8717 40.3655 39.1632 40.7047C39.2197 40.2673 39.2699 39.8182 39.3152 39.3606C39.3554 38.955 39.3918 38.5428 39.4255 38.1261C39.4305 38.064 39.4361 38.0029 39.4416 37.9418C39.4492 37.859 39.4567 37.7763 39.463 37.6915Z" fill="white"/>
</svg>
