<svg width="40" height="39" viewBox="0 0 40 39" fill="none" xmlns="http://www.w3.org/2000/svg">
<path d="M3.1951 38.714C10.1843 39.0729 17.1899 38.9864 24.1695 38.4548C25.6625 38.3464 27.1575 38.2139 28.6367 38.0615C31.9231 37.7441 35.1907 37.2528 38.4258 36.5896C38.9057 35.5938 39.8486 33.6368 39.8486 33.6368L31.3676 27.8694L27.8843 25.5005L27.8712 25.5066C28.558 16.4114 25.7943 7.3969 20.1331 0.266885C20.1181 0.357831 20.0992 0.45509 20.0832 0.547715C18.3153 9.33133 15.1365 17.7708 10.6711 25.5366C8.00297 30.425 4.47614 34.7909 0.260745 38.4237C1.06437 38.5271 1.90824 38.6084 2.77194 38.6777C2.91416 38.6893 3.05161 38.7034 3.1951 38.714Z" fill="#343849"/>
</svg>
