<svg width="62" height="64" viewBox="0 0 62 64" fill="none" xmlns="http://www.w3.org/2000/svg">
<path d="M61.201 59.3128C61.8065 48.1768 61.7113 37.0174 60.916 25.9019C60.7542 23.5243 60.5545 21.1434 60.3235 18.788C59.8435 13.5546 59.0898 8.35218 58.0655 3.20243C56.5019 2.44381 53.4289 0.953187 53.4289 0.953187L44.3071 14.4972L40.5604 20.0601L40.5699 20.0809C26.2671 19.04 12.0709 23.4954 0.822173 32.5554C0.965145 32.5788 1.11803 32.6084 1.26363 32.6332C15.07 35.3982 28.3269 40.4126 40.5164 47.4805C48.1904 51.7023 55.0374 57.295 60.7271 63.9889C60.8945 62.7082 61.0274 61.3634 61.1414 59.9871C61.1604 59.7605 61.1834 59.5414 61.201 59.3128Z" fill="#343849"/>
</svg>
