<svg width="47" height="53" viewBox="0 0 47 53" fill="none" xmlns="http://www.w3.org/2000/svg">
<path d="M3.69587 52.3955C12.3896 50.5503 20.9568 48.1567 29.346 45.2292C31.1422 44.6095 32.933 43.9597 34.6978 43.2908C38.6258 41.8306 42.4736 40.1645 46.2251 38.2995C46.4865 36.929 47 34.2356 47 34.2356L34.6978 29.9756L29.6449 28.2258L29.6308 28.2375C27.4834 16.9271 21.1286 6.84186 11.8383 3.07532e-06C11.8498 0.115772 11.8586 0.240497 11.8694 0.358611C12.588 11.6424 11.4624 22.9676 8.53651 33.8917C6.86988 40.7217 3.97788 47.1952 0 53C1.02003 52.8636 2.0822 52.6871 3.16471 52.4894C3.34302 52.4571 3.51631 52.4294 3.69587 52.3955Z" fill="#343849"/>
</svg>
