<svg width="86" height="87" viewBox="0 0 86 87" fill="none" xmlns="http://www.w3.org/2000/svg">
<path d="M0 43.5381C0 11.2881 10.75 0.538086 43 0.538086C75.25 0.538086 86 11.2881 86 43.5381C86 75.7881 75.25 86.5381 43 86.5381C10.75 86.5381 0 75.7881 0 43.5381Z" fill="#331D21"/>
<path d="M29 41.5381C31.2063 41.5381 33 39.7444 33 37.5381C33 35.3319 31.2063 33.5381 29 33.5381C26.7938 33.5381 25 35.3319 25 37.5381C25 39.7444 26.7938 41.5381 29 41.5381ZM57 41.5381C59.2062 41.5381 61 39.7444 61 37.5381C61 35.3319 59.2062 33.5381 57 33.5381C54.7938 33.5381 53 35.3319 53 37.5381C53 39.7444 54.7938 41.5381 57 41.5381ZM59 43.5381H55C53.9 43.5381 52.9062 43.9819 52.1812 44.7006C54.7 46.0819 56.4875 48.5756 56.875 51.5381H61C62.1063 51.5381 63 50.6444 63 49.5381V47.5381C63 45.3319 61.2062 43.5381 59 43.5381ZM43 43.5381C46.8687 43.5381 50 40.4069 50 36.5381C50 32.6694 46.8687 29.5381 43 29.5381C39.1313 29.5381 36 32.6694 36 36.5381C36 40.4069 39.1313 43.5381 43 43.5381ZM47.8 45.5381H47.2812C45.9813 46.1631 44.5375 46.5381 43 46.5381C41.4625 46.5381 40.025 46.1631 38.7188 45.5381H38.2C34.225 45.5381 31 48.7631 31 52.7381V54.5382C31 56.1944 32.3438 57.5382 34 57.5382H52C53.6562 57.5382 55 56.1944 55 54.5382V52.7381C55 48.7631 51.775 45.5381 47.8 45.5381ZM33.8188 44.7006C33.0938 43.9819 32.1 43.5381 31 43.5381H27C24.7938 43.5381 23 45.3319 23 47.5381V49.5381C23 50.6444 23.8937 51.5381 25 51.5381H29.1188C29.5125 48.5756 31.3 46.0819 33.8188 44.7006Z" fill="#FF4654"/>
</svg>
