<svg width="86" height="86" viewBox="0 0 86 86" fill="none" xmlns="http://www.w3.org/2000/svg">
<path d="M0 43C0 10.75 10.75 0 43 0C75.25 0 86 10.75 86 43C86 75.25 75.25 86 43 86C10.75 86 0 75.25 0 43Z" fill="#06364A"/>
<g clip-path="url(#clip0_16902_4132)">
<path d="M59 27H27C24.8 27 23 28.8 23 31V55C23 57.2 24.8 59 27 59H59C61.2 59 63 57.2 63 55V31C63 28.8 61.2 27 59 27ZM59 55H27V31H59V55ZM27 19H59V23H27V19ZM27 63H59V67H27V63ZM43 43C45.76 43 48 40.76 48 38C48 35.24 45.76 33 43 33C40.24 33 38 35.24 38 38C38 40.76 40.24 43 43 43ZM43 36C44.1 36 45 36.9 45 38C45 39.1 44.1 40 43 40C41.9 40 41 39.1 41 38C41 36.9 41.9 36 43 36ZM53 50.98C53 46.8 46.38 45 43 45C39.62 45 33 46.8 33 50.98V53H53V50.98ZM36.62 50C37.84 48.96 40.68 48 43 48C45.34 48 48.18 48.96 49.4 50H36.62Z" fill="#33C0FB"/>
</g>
<defs>
<clipPath id="clip0_16902_4132">
<rect width="48" height="48" fill="white" transform="translate(19 19)"/>
</clipPath>
</defs>
</svg>
