<svg width="86" height="86" viewBox="0 0 86 86" fill="none" xmlns="http://www.w3.org/2000/svg">
<path d="M0 43C0 10.75 10.75 0 43 0C75.25 0 86 10.75 86 43C86 75.25 75.25 86 43 86C10.75 86 0 75.25 0 43Z" fill="#06364A"/>
<g clip-path="url(#clip0_16902_4046)">
<path d="M58.5998 33.4H47.7998V27.4C47.7998 25.408 46.1918 23.8 44.1998 23.8H41.7998C39.8078 23.8 38.1998 25.408 38.1998 27.4V33.4H27.3998C25.4078 33.4 23.7998 35.008 23.7998 37V58.6001C23.7998 60.592 25.4078 62.2001 27.3998 62.2001H58.5998C60.5918 62.2001 62.1998 60.592 62.1998 58.6001V37C62.1998 35.008 60.5918 33.4 58.5998 33.4ZM41.7998 27.4H44.1998V37H41.7998V27.4ZM58.5998 58.6001H27.3998V37H38.1998C38.1998 38.992 39.8078 40.6 41.7998 40.6H44.1998C46.1918 40.6 47.7998 38.992 47.7998 37H58.5998V58.6001Z" fill="#33C0FB"/>
<path d="M54.9998 43H47.7998V46.6H54.9998V43Z" fill="#33C0FB"/>
<path d="M54.9998 49H47.7998V52.6H54.9998V49Z" fill="#33C0FB"/>
<path d="M37 49C38.6569 49 40 47.6569 40 46C40 44.3431 38.6569 43 37 43C35.3431 43 34 44.3431 34 46C34 47.6569 35.3431 49 37 49Z" fill="#33C0FB"/>
<path d="M41.176 51.0641C39.88 50.5121 38.488 50.2001 37 50.2001C35.512 50.2001 34.12 50.5121 32.824 51.0641C31.72 51.5441 31 52.6241 31 53.8481V55.0001H43V53.8481C43 52.6241 42.28 51.5441 41.176 51.0641Z" fill="#33C0FB"/>
</g>
<defs>
<clipPath id="clip0_16902_4046">
<rect width="48" height="48" fill="white" transform="translate(19 19)"/>
</clipPath>
</defs>
</svg>
