<svg width="86" height="86" viewBox="0 0 86 86" fill="none" xmlns="http://www.w3.org/2000/svg">
<path d="M0 43C0 10.75 10.75 0 43 0C75.25 0 86 10.75 86 43C86 75.25 75.25 86 43 86C10.75 86 0 75.25 0 43Z" fill="#0D3331"/>
<g clip-path="url(#clip0_16902_4168)">
<path d="M50.7038 27.664C50.4638 28.48 50.1998 29.44 50.1998 31.288L57.1118 38.2H58.5998V44.92L53.9198 45.952L51.0638 56.2001H46.5998V52.6H35.7998V56.2001H31.3118C29.7758 50.824 27.3998 41.7041 27.3998 38.2C27.3998 34.24 30.6398 31 34.5998 31H46.3598C47.1518 29.632 48.5918 28.24 50.7038 27.664ZM52.5998 23.8C47.3918 23.8 44.5598 27.4 44.5598 27.4H34.5998C28.7198 27.4 23.7998 32.128 23.7998 38.2C23.7998 43.792 28.5998 59.8 28.5998 59.8H39.3998V56.2001H42.9998V59.8H53.7998L56.7998 49L62.1998 47.8V34.6H58.5998L53.7998 29.8C53.7998 28.936 54.9998 27.448 54.9998 26.2C54.9998 24.88 53.9198 23.8 52.5998 23.8ZM45.3998 37H35.7998V33.4H45.3998V37ZM50.7998 40.6C49.8158 40.6 48.9998 39.784 48.9998 38.8C48.9998 37.816 49.8158 37 50.7998 37C51.7838 37 52.5998 37.816 52.5998 38.8C52.5998 39.784 51.7838 40.6 50.7998 40.6Z" fill="#2EA69F"/>
</g>
<defs>
<clipPath id="clip0_16902_4168">
<rect width="48" height="48" fill="white" transform="translate(19 19)"/>
</clipPath>
</defs>
</svg>
