<svg width="86" height="86" viewBox="0 0 86 86" fill="none" xmlns="http://www.w3.org/2000/svg">
<path d="M0 43C0 10.75 10.75 0 43 0C75.25 0 86 10.75 86 43C86 75.25 75.25 86 43 86C10.75 86 0 75.25 0 43Z" fill="#06364A"/>
<g clip-path="url(#clip0_16902_4074)">
<path d="M27 45C29.2 45 31 43.2 31 41C31 38.8 29.2 37 27 37C24.8 37 23 38.8 23 41C23 43.2 24.8 45 27 45ZM29.26 47.2C28.52 47.08 27.78 47 27 47C25.02 47 23.14 47.42 21.44 48.16C19.96 48.8 19 50.24 19 51.86V55H28V51.78C28 50.12 28.46 48.56 29.26 47.2ZM59 45C61.2 45 63 43.2 63 41C63 38.8 61.2 37 59 37C56.8 37 55 38.8 55 41C55 43.2 56.8 45 59 45ZM67 51.86C67 50.24 66.04 48.8 64.56 48.16C62.86 47.42 60.98 47 59 47C58.22 47 57.48 47.08 56.74 47.2C57.54 48.56 58 50.12 58 51.78V55H67V51.86ZM51.48 46.3C49.14 45.26 46.26 44.5 43 44.5C39.74 44.5 36.86 45.28 34.52 46.3C32.36 47.26 31 49.42 31 51.78V55H55V51.78C55 49.42 53.64 47.26 51.48 46.3ZM35.14 51C35.32 50.54 35.4 50.22 36.96 49.62C38.9 48.86 40.94 48.5 43 48.5C45.06 48.5 47.1 48.86 49.04 49.62C50.58 50.22 50.66 50.54 50.86 51H35.14ZM43 35C44.1 35 45 35.9 45 37C45 38.1 44.1 39 43 39C41.9 39 41 38.1 41 37C41 35.9 41.9 35 43 35ZM43 31C39.68 31 37 33.68 37 37C37 40.32 39.68 43 43 43C46.32 43 49 40.32 49 37C49 33.68 46.32 31 43 31Z" fill="#33C0FB"/>
</g>
<defs>
<clipPath id="clip0_16902_4074">
<rect width="48" height="48" fill="white" transform="translate(19 19)"/>
</clipPath>
</defs>
</svg>
