<svg width="86" height="86" viewBox="0 0 86 86" fill="none" xmlns="http://www.w3.org/2000/svg">
<path d="M0 43C0 10.75 10.75 0 43 0C75.25 0 86 10.75 86 43C86 75.25 75.25 86 43 86C10.75 86 0 75.25 0 43Z" fill="#330D15"/>
<path d="M65.5938 40.3887C64.9334 40.3887 49.3147 40.3887 48.6212 40.3887C49.506 39.2127 50.0312 37.7516 50.0312 36.1699C50.0312 35.3933 49.4016 34.7637 48.625 34.7637H36.3007C34.6924 34.7637 33.2465 35.6573 32.5275 37.0957L31.2695 39.6114C31.0298 40.0908 30.5479 40.3887 30.0118 40.3887C27.0692 40.3887 23.3541 40.3887 20.4062 40.3887C19.6296 40.3887 19 41.0183 19 41.7949V58.6699C19 59.4465 19.6296 60.0762 20.4062 60.0762C20.7622 60.0762 33.5555 60.0762 33.98 60.0762L37.964 64.0603C39.0935 65.1897 40.7315 65.5816 42.2463 65.0909L55.6334 61.3243C56.4292 61.1004 57.1168 60.6638 57.6406 60.0762C58.5785 60.0762 64.6855 60.0762 65.5938 60.0762C66.3704 60.0762 67 59.4465 67 58.6699V41.7949C67 41.0182 66.3704 40.3887 65.5938 40.3887ZM24.625 57.2637H21.8125V43.2012H24.625V57.2637ZM55.8513 57.6186C55.7901 57.8531 55.5721 58.4198 54.8717 58.6168C54.8199 58.6313 41.4429 62.3942 41.3919 62.4111C40.8833 62.5809 40.3318 62.4505 39.9528 62.0715L35.5568 57.6755C35.2931 57.4118 34.9354 57.2636 34.5625 57.2636C33.1802 57.2636 29.1243 57.2636 27.4375 57.2636V43.2011H30.0118C31.6202 43.2011 33.0661 42.3075 33.7851 40.869L35.0431 38.3534C35.2828 37.8739 35.7647 37.5667 36.3007 37.5667H46.9778C46.3975 39.2037 44.8335 40.3886 43.0001 40.3886H43H41.9257C40.3174 40.3886 38.8715 41.2822 38.1525 42.7206L33.8707 51.284C33.6982 51.6289 33.675 52.0296 33.8063 52.3921C33.9378 52.7547 34.2123 53.0474 34.5658 53.2017C37.9939 54.6982 41.9905 53.248 43.6645 49.8999L44.2015 48.8261H47.4602C47.8358 48.8261 48.1889 48.9723 48.4545 49.2379L55.4852 56.2687C55.9996 56.7832 55.9126 57.384 55.8513 57.6186ZM58.4688 55.8452C58.2623 55.269 57.9282 54.7343 57.4739 54.28L50.4432 47.2492C49.6464 46.4523 48.5869 46.0136 47.4602 46.0136H43.3324C42.7997 46.0136 42.3128 46.3145 42.0747 46.791L41.149 48.6421C40.3802 50.1801 38.7976 51.0516 37.1713 50.972L40.6682 43.9784C40.9079 43.4989 41.3898 43.2011 41.9258 43.2011C42.6136 43.2011 57.7508 43.2011 58.4688 43.2011C58.4688 43.8491 58.4688 55.2193 58.4688 55.8452ZM64.1875 57.2637C63.0584 57.2637 62.9708 57.2637 61.2812 57.2637C61.2812 56.6457 61.2812 43.8179 61.2812 43.2012H64.1875V57.2637Z" fill="#F75B7C"/>
<path d="M43 20.7012C42.2234 20.7012 41.5938 21.3307 41.5938 22.1074V26.3262C41.5938 27.1028 42.2234 27.7324 43 27.7324C43.7766 27.7324 44.4062 27.1028 44.4062 26.3262V22.1074C44.4062 21.3308 43.7766 20.7012 43 20.7012Z" fill="#F75B7C"/>
<path d="M35.5569 29.5506L32.7444 26.7381C32.1952 26.1889 31.3047 26.1889 30.7556 26.7381C30.2065 27.2872 30.2065 28.1776 30.7556 28.7268L33.5681 31.5393C34.1172 32.0885 35.0078 32.0885 35.5569 31.5393C36.106 30.9901 36.106 30.0997 35.5569 29.5506Z" fill="#F75B7C"/>
<path d="M55.2444 26.7381C54.6952 26.1889 53.8047 26.1889 53.2556 26.7381L50.4431 29.5506C49.894 30.0997 49.894 30.9901 50.4431 31.5393C50.9922 32.0885 51.8828 32.0885 52.4319 31.5393L55.2444 28.7268C55.7936 28.1776 55.7936 27.2872 55.2444 26.7381Z" fill="#F75B7C"/>
</svg>
