<svg width="86" height="86" viewBox="0 0 86 86" fill="none" xmlns="http://www.w3.org/2000/svg">
<path d="M0 43C0 10.75 10.75 0 43 0C75.25 0 86 10.75 86 43C86 75.25 75.25 86 43 86C10.75 86 0 75.25 0 43Z" fill="#331D21"/>
<path d="M43 35C45.2091 35 47 33.2091 47 31C47 28.7909 45.2091 27 43 27C40.7909 27 39 28.7909 39 31C39 33.2091 40.7909 35 43 35Z" fill="#FF4654"/>
<path d="M61 51V47C56.52 47 52.68 45.08 49.8 41.64L47.12 38.44C46.36 37.52 45.24 37 44.06 37H41.96C40.78 37 39.66 37.52 38.9 38.44L36.22 41.64C33.32 45.08 29.48 47 25 47V51C30.54 51 35.38 48.66 39 44.5V49L31.24 52.1C29.9 52.64 29 53.96 29 55.42C29 57.4 30.6 59 32.58 59H37V58C37 55.24 39.24 53 42 53H48C48.56 53 49 53.44 49 54C49 54.56 48.56 55 48 55H42C40.34 55 39 56.34 39 58V59H53.42C55.4 59 57 57.4 57 55.42C57 53.96 56.1 52.64 54.76 52.1L47 49V44.5C50.62 48.66 55.46 51 61 51Z" fill="#FF4654"/>
</svg>
