<svg width="86" height="86" viewBox="0 0 86 86" fill="none" xmlns="http://www.w3.org/2000/svg">
<path d="M0 43C0 10.75 10.75 0 43 0C75.25 0 86 10.75 86 43C86 75.25 75.25 86 43 86C10.75 86 0 75.25 0 43Z" fill="#331D21"/>
<g clip-path="url(#clip0_16902_4448)">
<path d="M52 27H34.12C32.4 27 31 28.4 31 30.12C31 30.68 31.24 31.22 31.64 31.6L44 43L31.64 54.4C31.24 54.78 31 55.32 31 55.88C31 57.6 32.4 59 34.12 59H52C53.66 59 55 57.66 55 56C55 54.34 53.66 53 52 53H41L48.18 45.82C49.74 44.26 49.74 41.72 48.18 40.16L41 33H52C53.66 33 55 31.66 55 30C55 28.34 53.66 27 52 27Z" fill="#FF4654"/>
</g>
<defs>
<clipPath id="clip0_16902_4448">
<rect width="48" height="48" fill="white" transform="translate(19 19)"/>
</clipPath>
</defs>
</svg>
