<svg width="86" height="86" viewBox="0 0 86 86" fill="none" xmlns="http://www.w3.org/2000/svg">
<path d="M0 43C0 10.75 10.75 0 43 0C75.25 0 86 10.75 86 43C86 75.25 75.25 86 43 86C10.75 86 0 75.25 0 43Z" fill="#06364A"/>
<g clip-path="url(#clip0_16902_4091)">
<path d="M43 30.4288C40.8628 30.4288 30.8057 32.0317 30.46 42.6231C35.8657 41.366 40.0771 37.0603 41.1457 31.5917C42.8114 35.206 47.3057 40.3917 55.0686 39.7631C53.6543 34.3888 48.8143 30.4288 43 30.4288Z" fill="#33C0FB"/>
<path d="M35.1423 47.7144C36.4441 47.7144 37.4995 46.6591 37.4995 45.3573C37.4995 44.0555 36.4441 43.0001 35.1423 43.0001C33.8405 43.0001 32.7852 44.0555 32.7852 45.3573C32.7852 46.6591 33.8405 47.7144 35.1423 47.7144Z" fill="#33C0FB"/>
<path d="M50.8571 47.7144C52.159 47.7144 53.2143 46.6591 53.2143 45.3573C53.2143 44.0555 52.159 43.0001 50.8571 43.0001C49.5553 43.0001 48.5 44.0555 48.5 45.3573C48.5 46.6591 49.5553 47.7144 50.8571 47.7144Z" fill="#33C0FB"/>
<path d="M61.8572 43.0001C61.8572 32.5972 53.4029 24.1429 43 24.1429C32.5972 24.1429 24.1429 32.5972 24.1429 43.0001C22.4143 43.0001 21 44.4144 21 46.143V52.4287C21 54.1573 22.4143 55.5716 24.1429 55.5716H27.2857V43.0001C27.2857 34.3258 34.3257 27.2858 43 27.2858C51.6744 27.2858 58.7144 34.3258 58.7144 43.0001V58.7144H39.8572V61.8573H58.7144C60.4429 61.8573 61.8572 60.443 61.8572 58.7144V55.5716C63.5858 55.5716 65.0001 54.1573 65.0001 52.4287V46.143C65.0001 44.4144 63.5858 43.0001 61.8572 43.0001Z" fill="#33C0FB"/>
</g>
<defs>
<clipPath id="clip0_16902_4091">
<rect width="48" height="48" fill="white" transform="translate(19 19)"/>
</clipPath>
</defs>
</svg>
