<svg width="86" height="86" viewBox="0 0 86 86" fill="none" xmlns="http://www.w3.org/2000/svg">
<path d="M0 43C0 10.75 10.75 0 43 0C75.25 0 86 10.75 86 43C86 75.25 75.25 86 43 86C10.75 86 0 75.25 0 43Z" fill="#330D15"/>
<g clip-path="url(#clip0_16902_4184)">
<path d="M53 43C47.48 43 43 47.48 43 53C43 58.52 47.48 63 53 63C58.52 63 63 58.52 63 53C63 47.48 58.52 43 53 43ZM56.3 57.7L52 53.4V47H54V52.58L57.7 56.28L56.3 57.7ZM55 25H48.64C47.8 22.68 45.6 21 43 21C40.4 21 38.2 22.68 37.36 25H31C28.8 25 27 26.8 27 29V59C27 61.2 28.8 63 31 63H43.22C42.04 61.86 41.08 60.5 40.38 59H31V29H35V35H51V29H55V39.16C56.42 39.36 57.76 39.78 59 40.36V29C59 26.8 57.2 25 55 25ZM43 29C41.9 29 41 28.1 41 27C41 25.9 41.9 25 43 25C44.1 25 45 25.9 45 27C45 28.1 44.1 29 43 29Z" fill="#F75B7C"/>
</g>
<defs>
<clipPath id="clip0_16902_4184">
<rect width="48" height="48" fill="white" transform="translate(19 19)"/>
</clipPath>
</defs>
</svg>
