<svg width="86" height="86" viewBox="0 0 86 86" fill="none" xmlns="http://www.w3.org/2000/svg">
<path d="M0 43C0 10.75 10.75 0 43 0C75.25 0 86 10.75 86 43C86 75.25 75.25 86 43 86C10.75 86 0 75.25 0 43Z" fill="#06364A"/>
<g clip-path="url(#clip0_16902_4113)">
<path d="M38.9996 45C40.0996 45 40.9996 45.9 40.9996 47C40.9996 48.1 40.0996 49 38.9996 49C37.8996 49 36.9996 48.1 36.9996 47C36.9996 45.9 37.8996 45 38.9996 45ZM38.9996 41C35.6796 41 32.9996 43.68 32.9996 47C32.9996 50.32 35.6796 53 38.9996 53C42.3196 53 44.9996 50.32 44.9996 47C44.9996 43.68 42.3196 41 38.9996 41ZM55.9996 37L58.1796 32.18L62.9996 30L58.1796 27.82L55.9996 23L53.8196 27.82L48.9996 30L53.8196 32.18L55.9996 37ZM61.5597 44.44L59.9996 41L58.4396 44.44L54.9996 46L58.4396 47.56L59.9996 51L61.5597 47.56L64.9996 46L61.5597 44.44ZM51.4996 47C51.4996 46.76 51.4996 46.5 51.4796 46.26L55.3596 43.32L50.3596 34.66L45.8796 36.54C45.4796 36.28 45.0396 36.02 44.5996 35.8L43.9996 31H33.9996L33.3996 35.82C32.9596 36.04 32.5396 36.3 32.1196 36.56L27.6396 34.66L22.6396 43.32L26.5196 46.26C26.4996 46.5 26.4996 46.76 26.4996 47C26.4996 47.24 26.4996 47.5 26.5196 47.74L22.6396 50.68L27.6396 59.34L32.1196 57.46C32.5196 57.72 32.9596 57.98 33.3996 58.2L33.9996 63H43.9996L44.5996 58.18C45.0396 57.96 45.4596 57.72 45.8796 57.44L50.3596 59.32L55.3596 50.66L51.4796 47.72C51.4996 47.5 51.4996 47.24 51.4996 47ZM48.6596 54.28L45.1996 52.82C44.0796 54.02 42.5996 54.9 40.9396 55.28L40.4596 59H37.5396L37.0796 55.28C35.4196 54.9 33.9396 54.02 32.8196 52.82L29.3596 54.28L27.8996 51.74L30.8796 49.48C30.6396 48.7 30.5196 47.88 30.5196 47.02C30.5196 46.16 30.6396 45.34 30.8796 44.56L27.8996 42.3L29.3596 39.76L32.8196 41.22C33.9396 40.02 35.4196 39.14 37.0796 38.76L37.5396 35H40.4796L40.9396 38.72C42.5996 39.1 44.0796 39.98 45.1996 41.18L48.6596 39.72L50.1196 42.26L47.1396 44.52C47.3796 45.3 47.4996 46.12 47.4996 46.98C47.4996 47.84 47.3796 48.66 47.1396 49.44L50.1196 51.7L48.6596 54.28Z" fill="#33C0FB"/>
</g>
<defs>
<clipPath id="clip0_16902_4113">
<rect width="48" height="48" fill="white" transform="translate(19 19)"/>
</clipPath>
</defs>
</svg>
