<svg width="86" height="86" viewBox="0 0 86 86" fill="none" xmlns="http://www.w3.org/2000/svg">
<path d="M0 43C0 10.75 10.75 0 43 0C75.25 0 86 10.75 86 43C86 75.25 75.25 86 43 86C10.75 86 0 75.25 0 43Z" fill="#331D21"/>
<path d="M46.7013 47.2258C52.6267 47.2258 56.8984 43.0919 56.8984 36.9369C56.8984 30.7819 52.6267 26.7858 46.7013 26.7858H34.6038C34.1241 26.7858 33.7352 27.1747 33.7352 27.6544V43.2756H29.9712C29.4915 43.2756 29.1025 43.6645 29.1025 44.1442V46.3571C29.1025 46.8368 29.4915 47.2258 29.9712 47.2258H33.7352V49.949H29.9712C29.4915 49.949 29.1025 50.3379 29.1025 50.8176V52.5548C29.1025 53.0345 29.4915 53.4234 29.9712 53.4234H33.7352V58.3456C33.7352 58.8253 34.1241 59.2142 34.6038 59.2142H37.4992C37.9789 59.2142 38.3678 58.8253 38.3678 58.3456V53.4234H51.3971C51.8768 53.4234 52.2657 53.0345 52.2657 52.5548V50.8176C52.2657 50.3379 51.8768 49.949 51.3971 49.949H38.3678V47.2258H46.7013ZM38.3678 30.736H46.0124C49.8707 30.736 52.2593 33.0326 52.2593 36.9369C52.2593 40.8412 49.8707 43.2756 45.9665 43.2756H38.3678V30.736Z" fill="#FF4654"/>
</svg>
