<svg width="86" height="86" viewBox="0 0 86 86" fill="none" xmlns="http://www.w3.org/2000/svg">
<path d="M0 43C0 10.75 10.75 0 43 0C75.25 0 86 10.75 86 43C86 75.25 75.25 86 43 86C10.75 86 0 75.25 0 43Z" fill="#330D15"/>
<g clip-path="url(#clip0_16902_4227)">
<path d="M53.9642 34.384L52.1121 31.078C52.001 30.85 51.7417 30.774 51.5565 30.85L49.2599 31.8C48.7783 31.42 48.2597 31.116 47.7041 30.888L47.3707 28.38C47.2966 28.152 47.0744 28 46.8521 28H43.1479C42.9256 28 42.7404 28.152 42.7034 28.418L42.333 30.926C41.7773 31.154 41.2587 31.496 40.7772 31.838L38.4806 30.888C38.2583 30.812 38.0361 30.888 37.9249 31.116L36.0728 34.422C35.9617 34.612 35.9987 34.878 36.1839 34.992L38.1472 36.55C38.0731 36.854 38.0361 37.196 38.0361 37.5C38.0361 37.804 38.0731 38.146 38.1101 38.412L36.1839 40.008C35.9987 40.122 35.9617 40.388 36.0358 40.616L37.8879 43.922C37.999 44.15 38.2583 44.226 38.4435 44.15L40.7401 43.2C41.2217 43.58 41.7403 43.884 42.2959 44.112L42.6293 46.62C42.7404 46.848 42.9256 47 43.1479 47H46.8521C47.0744 47 47.2966 46.848 47.2966 46.582L47.63 44.074C48.1856 43.846 48.7042 43.504 49.1858 43.162L51.4824 44.112C51.7046 44.188 51.9269 44.112 52.038 43.884L53.8901 40.578C54.0013 40.35 53.9642 40.122 53.779 39.97L51.8528 38.412C51.8899 38.108 51.9269 37.804 51.9269 37.5C51.9269 37.196 51.8899 36.854 51.8528 36.588L53.8161 35.03C54.0013 34.878 54.0383 34.612 53.9642 34.384ZM45 41.3C42.9627 41.3 41.2958 39.59 41.2958 37.5C41.2958 35.41 42.9627 33.7 45 33.7C47.0373 33.7 48.7042 35.41 48.7042 37.5C48.7042 39.59 47.0373 41.3 45 41.3Z" fill="#F75B7C"/>
<path d="M45.389 21C36.8621 21 29.8855 27.4167 28.9626 35.6667L23.3149 43.8067C22.5028 45.0167 23.3518 46.6667 24.8283 46.6667H28.7781V54C28.7781 56.0167 30.4392 57.6667 32.4694 57.6667H36.1607V65H54.6173V51.2133C59.0839 48.2433 62 43.22 62 37.5C62 28.37 54.5804 21 45.389 21ZM50.926 49.05V61.3333H39.852V54H32.4694V43H28.372L32.5432 36.9867C32.8016 30.1667 38.4124 24.6667 45.389 24.6667C52.5133 24.6667 58.3087 30.4233 58.3087 37.5C58.3087 42.5967 55.2818 46.9967 50.926 49.05Z" fill="#F75B7C"/>
</g>
<defs>
<clipPath id="clip0_16902_4227">
<rect width="48" height="48" fill="white" transform="translate(19 19)"/>
</clipPath>
</defs>
</svg>
