<svg width="90" height="80" viewBox="0 0 90 80" fill="none" xmlns="http://www.w3.org/2000/svg">
<path d="M1.74167 6.65321C4.8312 21.2096 8.83891 35.5544 13.7406 49.6009C14.7783 52.6083 15.8663 55.6068 16.9863 58.5618C19.4312 65.1387 22.2208 71.5813 25.3434 77.8626C27.6382 78.3003 32.148 79.1602 32.148 79.1602L39.2808 58.5618L42.2105 50.1014L42.1909 50.0779C61.1287 46.4822 78.0151 35.8421 89.4709 20.2867C89.277 20.3058 89.0682 20.3206 88.8704 20.3388C69.9772 21.5419 51.0147 19.6572 32.7237 14.7582C21.2878 11.9677 10.4488 7.12542 0.729489 0.464989C0.957918 2.17289 1.25338 3.95135 1.58438 5.76388C1.63854 6.06242 1.68489 6.35258 1.74167 6.65321Z" fill="#343849"/>
</svg>
