<svg width="47" height="49" viewBox="0 0 47 49" fill="none" xmlns="http://www.w3.org/2000/svg">
<path d="M18.6061 46.7761C24.7842 41.1992 30.601 35.2334 36.0216 28.9148C37.1855 27.5677 38.3309 26.1986 39.4462 24.826C41.9421 21.7944 44.2758 18.6321 46.4375 15.3524C46.003 14.1103 45.1489 11.6694 45.1489 11.6694L33.1655 13.9474L28.2435 14.883L28.2376 14.8992C21.1614 6.66368 11.2522 1.39855 0.492778 0.157383C0.556662 0.24661 0.622625 0.344389 0.687148 0.435806C6.59227 9.31839 11.0217 19.098 13.8025 29.3926C15.673 35.7529 16.3818 42.3955 15.8949 49C16.6575 48.4111 17.4354 47.7697 18.2198 47.1015C18.3491 46.9916 18.4766 46.8879 18.6061 46.7761Z" fill="#343849"/>
</svg>
