<svg width="51" height="51" viewBox="0 0 51 51" fill="none" xmlns="http://www.w3.org/2000/svg">
<path d="M9.17559 3.79978C6.42673 12.2513 4.21598 20.8676 2.55671 29.5966C2.19535 31.462 1.86268 33.3378 1.55951 35.2006C0.860086 39.3325 0.37906 43.4978 0.118448 47.6791C1.17463 48.5908 3.25046 50.3822 3.25046 50.3822L13.0908 41.8582L17.1326 38.3572L17.1295 38.3391C27.9984 42.1346 39.9098 41.6738 50.4802 37.0491C50.3742 37.0011 50.2618 36.9464 50.1541 36.8967C40.0227 31.8771 30.7777 25.2397 22.78 17.2438C17.6984 12.3854 13.5382 6.64415 10.5 0.296807C10.1081 1.24839 9.72987 2.25649 9.35981 3.29282C9.29867 3.46341 9.236 3.62732 9.17559 3.79978Z" fill="#343849"/>
</svg>
