<svg width="62" height="64" viewBox="0 0 62 64" fill="none" xmlns="http://www.w3.org/2000/svg">
<path d="M61.2033 59.3134C61.8084 48.1772 61.7128 37.0175 60.9171 25.9018C60.7552 23.524 60.5554 21.1432 60.3243 18.7876C59.8441 13.5541 59.0902 8.35155 58.0657 3.20164C56.5022 2.44295 53.4292 0.952174 53.4292 0.952174L44.3081 14.4961L40.5617 20.059L40.5712 20.0799C26.2687 19.0384 12.073 23.4933 0.824849 32.5531C0.967819 32.5765 1.1207 32.606 1.2663 32.6309C15.0725 35.3964 28.3293 40.4114 40.5188 47.4801C48.1927 51.7022 55.0398 57.2954 60.7297 63.9896C60.897 62.7088 61.0298 61.364 61.1437 59.9877C61.1628 59.7611 61.1858 59.542 61.2033 59.3134Z" fill="#343849"/>
</svg>
