<svg width="89" height="89" viewBox="0 0 89 89" fill="none" xmlns="http://www.w3.org/2000/svg">
<path d="M4.70009 52.2379L4.70041 52.2361C7.56559 37.0149 11.396 21.9927 16.1685 7.26005C16.2283 7.08885 16.286 6.93193 16.3452 6.7709C16.3907 6.64708 16.4371 6.52083 16.486 6.38379L16.4862 6.38323C16.9955 4.95243 17.5131 3.55486 18.0438 2.21431C23.3729 12.9693 30.5465 22.7147 39.2415 31.0067C53.2172 44.9387 69.3442 56.5334 87.0018 65.3456C68.8695 72.9233 48.5424 73.5255 29.947 67.01L29.1431 66.7283L29.246 67.32L22.3936 73.2343L5.51458 87.8029L5.24271 87.5688L3.78687 86.3151L0.529355 83.5096C0.970445 76.3057 1.78818 69.1305 2.97924 62.0132L2.97975 62.01C3.5021 58.7613 4.076 55.4903 4.70009 52.2379Z" stroke="white"/>
</svg>
