<svg width="39" height="44" viewBox="0 0 39 44" fill="none" xmlns="http://www.w3.org/2000/svg">
<path d="M26.3518 39.2116C24.9326 38.5598 23.509 37.8819 22.0996 37.1835C15.4978 33.9407 9.09776 30.287 2.93818 26.2446C2.86637 26.1951 2.79696 26.1458 2.7275 26.0963C2.67623 26.0599 2.62494 26.0234 2.57263 25.9868C2.02056 25.602 1.4816 25.2171 0.965215 24.8328L37.3464 1.46028C37.3791 1.67635 37.4099 1.89248 37.4387 2.10864M26.3518 39.2116C29.4942 40.6787 32.7077 41.9805 35.9788 43.1118M26.3518 39.2116L26.3518 39.2116L26.3518 39.2116ZM35.9788 43.1118L38.765 41.235M35.9788 43.1118L35.6995 42.6971L35.9068 42.5575M35.9788 43.1118L36.1422 42.6392C36.0637 42.6121 35.9852 42.5848 35.9068 42.5575M38.765 41.235L33.9906 31.5728L32.036 27.6171L32.0288 27.6122L31.978 28.1016L31.963 28.1L31.7036 28.073M38.765 41.235L38.3167 41.4565L38.123 41.0646M38.765 41.235L38.4856 40.8204L38.4855 40.8204L38.4853 40.8206L38.4843 40.8213L38.4803 40.8239L38.4646 40.8345L38.4044 40.875L38.1824 41.0246L38.123 41.0646M31.7036 28.073L31.5814 27.8257L32.0137 27.6121L32.0223 27.6078L32.0147 27.6027L32.0664 27.1054L32.0813 27.1069L32.3267 27.1324C37.2063 19.6524 39.1758 10.5917 37.8751 1.61699C37.7303 1.78148 37.5848 1.94536 37.4387 2.10864M31.7036 28.073L33.5423 31.7943L38.123 41.0646M31.7036 28.073L31.134 28.0139L31.6002 27.323C36.5586 19.9748 38.6266 11.0137 37.4387 2.10864M37.4387 2.10864C31.4638 8.7868 24.4471 14.4543 16.6464 18.901C12.0233 21.6766 6.94713 23.6374 1.6329 24.7038C2.0303 24.994 2.44016 25.285 2.85854 25.5766L2.85901 25.5769C2.92036 25.6198 2.97308 25.6574 3.02378 25.6935C3.08706 25.7386 3.14723 25.7814 3.21717 25.8296C9.35804 29.8595 15.7385 33.5019 22.32 36.7347L22.3215 36.7355C23.7264 37.4316 25.1455 38.1074 26.5605 38.7573L26.5633 38.7586L26.5633 38.7586C29.6147 40.1831 32.7333 41.4511 35.9068 42.5575M35.9068 42.5575L37.4449 41.5214L38.123 41.0646" stroke="white"/>
</svg>
