<svg width="43" height="44" viewBox="0 0 43 44" fill="none" xmlns="http://www.w3.org/2000/svg">
<path d="M42.0743 39.8827C42.4869 32.2882 42.4218 24.6778 41.8791 17.0973C41.7687 15.4758 41.6325 13.8521 41.4748 12.2457C41.1474 8.67669 40.6332 5.12874 39.9346 1.61671C38.8683 1.0993 36.7727 0.0826564 36.7727 0.0826564L30.5524 9.31909L27.9975 13.1128L28.004 13.127C18.2503 12.4167 8.56939 15.4548 0.898601 21.6332C0.996098 21.6492 1.10036 21.6693 1.19965 21.6863C10.6149 23.5723 19.6555 26.9923 27.9683 31.8128C33.2016 34.6922 37.871 38.5065 41.7513 43.0717C41.8654 42.1982 41.956 41.2811 42.0337 40.3425C42.0466 40.188 42.0623 40.0386 42.0743 39.8827Z" fill="#343849"/>
</svg>
