<svg width="64" height="56" viewBox="0 0 64 56" fill="none" xmlns="http://www.w3.org/2000/svg">
<mask id="path-1-inside-1_95_2744" fill="white">
<path d="M0.729978 4.40358C2.95814 14.762 5.84849 24.9699 9.3836 34.9654C10.132 37.1056 10.9166 39.2393 11.7243 41.3421C13.4876 46.0222 15.4995 50.6068 17.7515 55.0767C19.4065 55.3881 22.6589 56 22.6589 56L27.8031 41.3421L29.916 35.3216L29.9019 35.3048C43.5598 32.7461 55.7381 25.1746 64 14.1053C63.8602 14.1189 63.7096 14.1294 63.567 14.1423C49.9412 14.9985 36.2656 13.6573 23.0741 10.1712C14.8266 8.18539 7.00955 4.7396 -2.44784e-06 0C0.16474 1.21535 0.377824 2.48092 0.616541 3.77073C0.655602 3.98317 0.689028 4.18965 0.729978 4.40358Z"/>
</mask>
<path d="M0.729978 4.40358L-0.252192 4.59158L-0.250053 4.60276L-0.24766 4.61388L0.729978 4.40358ZM9.3836 34.9654L10.3276 34.6353L10.3264 34.632L9.3836 34.9654ZM11.7243 41.3421L12.6601 40.9895L12.6578 40.9835L11.7243 41.3421ZM17.7515 55.0767L16.8585 55.5266L17.0808 55.968L17.5665 56.0594L17.7515 55.0767ZM22.6589 56L22.474 56.9828L23.3181 57.1415L23.6025 56.3311L22.6589 56ZM27.8031 41.3421L26.8595 41.0109L26.8595 41.0109L27.8031 41.3421ZM29.916 35.3216L30.8596 35.6528L31.0485 35.1144L30.6812 34.6778L29.916 35.3216ZM29.9019 35.3048L29.7177 34.3219L28.0334 34.6375L29.1367 35.9487L29.9019 35.3048ZM64 14.1053L64.8014 14.7034L66.1545 12.8904L63.9029 13.11L64 14.1053ZM63.567 14.1423L63.6297 15.1403L63.6435 15.1395L63.6573 15.1382L63.567 14.1423ZM23.0741 10.1712L23.3296 9.20435L23.3189 9.20153L23.3082 9.19895L23.0741 10.1712ZM-2.44784e-06 0L0.560132 -0.8284L-1.29111 -2.08014L-0.99094 0.134323L-2.44784e-06 0ZM0.616541 3.77073L1.60006 3.5899L1.59984 3.58874L0.616541 3.77073ZM-0.24766 4.61388C1.98948 15.0141 4.89149 25.2631 8.44082 35.2988L10.3264 34.632C6.80549 24.6767 3.92679 14.51 1.70762 4.19329L-0.24766 4.61388ZM8.43965 35.2955C9.19154 37.4457 9.9797 39.5889 10.7908 41.7007L12.6578 40.9835C11.8536 38.8897 11.0724 36.7654 10.3275 34.6353L8.43965 35.2955ZM10.7885 41.6947C12.5643 46.408 14.5905 51.0251 16.8585 55.5266L18.6446 54.6267C16.4085 50.1885 14.4109 45.6365 12.6601 40.9895L10.7885 41.6947ZM17.5665 56.0594C18.3941 56.2152 19.6209 56.446 20.6409 56.6379C21.1509 56.7338 21.6092 56.8201 21.94 56.8823C22.1054 56.9134 22.2389 56.9385 22.331 56.9559C22.3771 56.9645 22.4129 56.9713 22.4371 56.9758C22.4492 56.9781 22.4584 56.9798 22.4647 56.981C22.4678 56.9816 22.4701 56.982 22.4717 56.9823C22.4725 56.9825 22.473 56.9826 22.4734 56.9826C22.4736 56.9827 22.4738 56.9827 22.4739 56.9827C22.4739 56.9827 22.474 56.9827 22.474 56.9828C22.474 56.9828 22.474 56.9828 22.6589 56C22.8438 55.0172 22.8438 55.0172 22.8438 55.0172C22.8437 55.0172 22.8437 55.0172 22.8436 55.0172C22.8435 55.0172 22.8434 55.0172 22.8432 55.0171C22.8428 55.0171 22.8422 55.0169 22.8414 55.0168C22.8399 55.0165 22.8375 55.0161 22.8344 55.0155C22.8282 55.0143 22.819 55.0126 22.8069 55.0103C22.7826 55.0057 22.7469 54.999 22.7008 54.9903C22.6086 54.973 22.4751 54.9479 22.3097 54.9168C21.979 54.8545 21.5207 54.7683 21.0107 54.6724C19.9907 54.4805 18.7639 54.2497 17.9365 54.0939L17.5665 56.0594ZM23.6025 56.3311L28.7467 41.6732L26.8595 41.0109L21.7153 55.6689L23.6025 56.3311ZM28.7466 41.6732L30.8596 35.6528L28.9724 34.9905L26.8595 41.0109L28.7466 41.6732ZM30.6812 34.6778L30.667 34.661L29.1367 35.9487L29.1508 35.9655L30.6812 34.6778ZM30.086 36.2877C43.989 33.6831 56.3884 25.9752 64.8014 14.7034L63.1986 13.5071C55.0879 24.3739 43.1305 31.8092 29.7177 34.3219L30.086 36.2877ZM63.9029 13.11C63.7507 13.1248 63.6651 13.1293 63.4766 13.1464L63.6573 15.1382C63.7541 15.1294 63.9697 15.1129 64.097 15.1005L63.9029 13.11ZM63.5043 13.1443C49.9855 13.9937 36.4173 12.6631 23.3296 9.20435L22.8186 11.138C36.1138 14.6515 49.8969 16.0032 63.6297 15.1403L63.5043 13.1443ZM23.3082 9.19895C15.1768 7.24113 7.47023 3.84396 0.560132 -0.8284L-0.560137 0.828403C6.54888 5.63525 14.4764 9.12965 22.84 11.1434L23.3082 9.19895ZM-0.99094 0.134323C-0.82332 1.3709 -0.607242 2.65337 -0.366759 3.95272L1.59984 3.58874C1.36289 2.30846 1.1528 1.05981 0.990935 -0.134323L-0.99094 0.134323ZM-0.366974 3.95155C-0.335388 4.12334 -0.291512 4.38615 -0.252192 4.59158L1.71215 4.21559C1.66957 3.99314 1.64659 3.843 1.60006 3.5899L-0.366974 3.95155Z" fill="white" mask="url(#path-1-inside-1_95_2744)"/>
</svg>
