<svg width="37" height="39" viewBox="0 0 37 39" fill="none" xmlns="http://www.w3.org/2000/svg">
<path d="M36.032 35.2995C36.3907 28.6977 36.334 22.082 35.8623 15.4924C35.7663 14.0829 35.6479 12.6714 35.5109 11.275C35.2262 8.17253 34.7793 5.08833 34.172 2.03537C33.245 1.5856 31.4233 0.701846 31.4233 0.701846L26.0161 8.73095L23.7952 12.0287L23.8008 12.0411C15.3221 11.4237 6.9066 14.0646 0.238485 19.4354C0.323237 19.4493 0.413869 19.4668 0.500187 19.4816C8.68476 21.121 16.5436 24.094 23.7698 28.2845C28.3191 30.7874 32.3781 34.1031 35.7512 38.0716C35.8504 37.3123 35.9291 36.5151 35.9966 35.6992C36.0079 35.5649 36.0216 35.435 36.032 35.2995Z" fill="#343849"/>
</svg>
