<svg width="82" height="93" viewBox="0 0 82 93" fill="none" xmlns="http://www.w3.org/2000/svg">
<path d="M30.9646 14.1079L30.9662 14.1073C45.5808 8.97803 60.5056 4.78413 75.6507 1.55093C75.8289 1.51714 75.9936 1.48862 76.1626 1.45936C76.2926 1.43686 76.4252 1.41392 76.5683 1.38779L76.5689 1.38769C78.0626 1.11333 79.5318 0.862778 80.9581 0.652138C74.3085 10.6447 69.4555 21.73 66.622 33.4061C61.5444 52.4754 59.5666 72.2391 60.7638 91.9371C45.1351 80.023 34.4501 62.7203 30.7949 43.3584L30.6369 42.5214L30.176 42.9063L21.6278 39.9292L0.57154 32.5958L0.638367 32.2433L0.996228 30.3556L1.7971 26.1318C8.25637 22.9119 14.8792 20.0324 21.6385 17.5053L21.6415 17.5041C24.7161 16.3322 27.8358 15.1937 30.9646 14.1079Z" stroke="white"/>
</svg>
