<svg width="30" height="35" viewBox="0 0 30 35" fill="none" xmlns="http://www.w3.org/2000/svg">
<path d="M27.6409 1.09972C22.0918 2.28343 16.6233 3.81893 11.2685 5.69695C10.122 6.09453 8.97895 6.51138 7.85245 6.94047C5.34522 7.8772 2.88919 8.946 0.494641 10.1424C0.327779 11.0216 -2.10314e-06 12.7495 -2.10314e-06 12.7495L7.85246 15.4823L11.0777 16.6048L11.0867 16.5973C12.4574 23.853 16.5136 30.3228 22.4436 34.7119C22.4363 34.6377 22.4307 34.5576 22.4238 34.4819C21.9651 27.2432 22.6836 19.978 24.5512 12.97C25.615 8.58856 27.4609 4.43575 30 0.711919C29.3489 0.799439 28.6709 0.912639 27.98 1.03946C27.8662 1.06021 27.7555 1.07797 27.6409 1.09972Z" fill="#343849"/>
</svg>
