<svg width="40" height="44" viewBox="0 0 40 44" fill="none" xmlns="http://www.w3.org/2000/svg">
<path d="M36.1719 43.6239C32.8772 42.5172 29.6427 41.237 26.4819 39.7889C25.0543 39.1458 23.6226 38.4763 22.2054 37.7859C15.567 34.581 9.13749 30.9579 2.9556 26.9386C2.88356 26.8894 2.81393 26.8402 2.74426 26.791C2.69285 26.7547 2.64141 26.7183 2.58894 26.682C2.03371 26.298 1.49182 25.9137 0.972891 25.5299L38.0455 1.44915C38.076 1.66747 38.1046 1.88587 38.1312 2.10433M36.1719 43.6239L39.0112 41.6922M36.1719 43.6239L35.8909 43.2103L36.0962 43.0706M36.1719 43.6239L36.3309 43.1498C36.2527 43.1235 36.1744 43.0971 36.0962 43.0706M39.0112 41.6922L34.2954 31.9696M39.0112 41.6922L38.5616 41.9107L38.3729 41.5217M39.0112 41.6922L38.7302 41.2786L38.7301 41.2787L38.7298 41.2788L38.7288 41.2795L38.7248 41.2823L38.7088 41.2931L38.6475 41.3349L38.4212 41.4888L38.3729 41.5217M34.2954 31.9696L32.365 27.9894L32.3578 27.9845L32.3125 28.4742L32.2974 28.4728L32.0319 28.4482M34.2954 31.9696L33.8458 32.188L38.3729 41.5217M34.2954 31.9696L33.8458 32.188L32.0319 28.4482M32.0319 28.4482L31.9089 28.1946L32.3426 27.9839L32.3509 27.9798L32.3434 27.9747L32.3895 27.4767L32.4046 27.4781L32.6601 27.5018C37.6846 19.8739 39.7832 10.6788 38.5718 1.60885C38.4256 1.7746 38.2787 1.93976 38.1312 2.10433M32.0319 28.4482L31.453 28.3946L31.9303 27.6932C37.0323 20.1956 39.2276 11.1013 38.1312 2.10433M38.1312 2.10433C32.0115 8.93387 24.8493 14.7523 16.9078 19.3438C12.1943 22.2104 7.03015 24.2554 1.63479 25.3949C2.03608 25.6861 2.45019 25.978 2.87309 26.2705L2.87357 26.2708C2.93532 26.3136 2.98821 26.351 3.03905 26.387C3.10239 26.4317 3.16254 26.4743 3.23267 26.5222C9.3954 30.5288 15.8049 34.1405 22.4226 37.3354L22.4242 37.3362C23.8366 38.0242 25.2638 38.6917 26.6871 39.3328L26.69 39.3341L26.69 39.3342C29.7596 40.7405 32.8992 41.9877 36.0962 43.0706M36.0962 43.0706L37.6696 42.0002L38.3729 41.5217" stroke="white"/>
</svg>
