<svg width="62" height="56" viewBox="0 0 62 56" fill="none" xmlns="http://www.w3.org/2000/svg">
<path d="M8.95114 31.6875L8.9519 31.6859C13.5084 22.1357 18.6693 12.8907 24.4033 4.0067C24.4724 3.90482 24.5359 3.8144 24.6019 3.72055C24.6535 3.64702 24.7067 3.57138 24.7652 3.48647L24.7655 3.48599C25.2825 2.73357 25.799 1.99984 26.3143 1.29601C27.9842 9.26633 31.0146 16.9044 35.2743 23.8723C42.0492 35.5217 50.6292 46.03 60.6888 55.0007C47.4995 56.6448 34.1014 53.3838 23.0464 45.8117L22.3396 45.3276L22.2888 45.9191L16.7968 48.5596L17.0132 49.0104L16.7968 48.5596L3.18677 55.1033L3.12248 55.0091L2.37701 53.9173L0.752376 51.5378C2.29678 46.8809 4.08287 42.3098 6.10343 37.8431L6.10344 37.8431L6.10474 37.8401C7.01822 35.7857 7.9697 33.7259 8.95114 31.6875Z" stroke="white"/>
</svg>
