<svg width="82" height="91" viewBox="0 0 82 91" fill="none" xmlns="http://www.w3.org/2000/svg">
<path d="M46.085 78.1171L46.0834 78.1163C32.1276 71.4067 18.6137 63.8159 5.62313 55.3898C5.47331 55.2877 5.33671 55.1913 5.19653 55.0925C5.08875 55.0164 4.97886 54.9389 4.8592 54.8561L4.85871 54.8558C3.60894 53.9932 2.3934 53.1312 1.23633 52.2713C12.9997 49.9066 24.2655 45.498 34.5216 39.2431C51.5897 29.3457 66.9575 16.7645 80.0347 1.98384C82.6602 21.4668 77.9826 41.2645 66.8804 57.5461L66.4005 58.2499L66.9983 58.3037L70.9361 66.4564L80.6361 86.5384L80.3397 86.7405L78.7525 87.8226L75.2008 90.2439C68.3591 87.9525 61.6425 85.3045 55.0785 82.3109L55.0756 82.3096C52.0739 80.9637 49.064 79.5622 46.085 78.1171Z" stroke="white"/>
</svg>
