<svg width="43" height="41" viewBox="0 0 43 41" fill="none" xmlns="http://www.w3.org/2000/svg">
<path d="M1.91882 16.4336C6.72977 21.7723 11.8749 26.8001 17.3232 31.4865C18.4848 32.4928 19.6653 33.4831 20.8487 34.4475C23.4626 36.6055 26.1887 38.6238 29.0156 40.494C30.0843 40.1211 32.1843 39.388 32.1843 39.388L30.2043 29.046L29.3911 24.7982L29.3772 24.7931C36.456 18.7013 40.9732 10.1606 42.0248 0.880131C41.9481 0.935105 41.864 0.991857 41.7854 1.04738C34.1476 6.12791 25.7352 9.93391 16.8769 12.3168C11.4042 13.9204 5.68667 14.5215 3.39746e-06 14.091C0.508212 14.7499 1.06159 15.422 1.6381 16.0998C1.73291 16.2115 1.82241 16.3216 1.91882 16.4336Z" fill="#343849"/>
</svg>
