<svg width="50" height="44" viewBox="0 0 50 44" fill="none" xmlns="http://www.w3.org/2000/svg">
<path d="M0.570295 3.45996C2.31104 11.5987 4.56913 19.6192 7.33094 27.4728C7.91561 29.1544 8.52863 30.8309 9.15964 32.4831C10.5372 36.1603 12.109 39.7625 13.8684 43.2745C15.1613 43.5193 17.7023 44 17.7023 44L21.7212 32.4831L23.3719 27.7527L23.3608 27.7395C34.0311 25.7291 43.5454 19.78 50 11.0827C49.8908 11.0934 49.7731 11.1016 49.6617 11.1118C39.0166 11.7845 28.3325 10.7307 18.0267 7.99163C11.5833 6.43138 5.47621 3.72397 -1.92187e-06 0C0.128703 0.95492 0.295175 1.94929 0.481673 2.96271C0.512189 3.12963 0.538303 3.29186 0.570295 3.45996Z" fill="#343849"/>
</svg>
