<svg width="53" height="47" viewBox="0 0 53 47" fill="none" xmlns="http://www.w3.org/2000/svg">
<path d="M0.604513 3.69587C2.44971 12.3896 4.84328 20.9568 7.77079 29.346C8.39055 31.1422 9.04034 32.933 9.70921 34.6978C11.1694 38.6258 12.8355 42.4736 14.7005 46.2251C16.071 46.4865 18.7644 47 18.7644 47L23.0244 34.6978L24.7742 29.6449L24.7625 29.6309C36.0729 27.4834 46.1581 21.1286 53 11.8383C52.8842 11.8498 52.7595 11.8586 52.6414 11.8694C41.3576 12.588 30.0324 11.4624 19.1083 8.53651C12.2783 6.86988 5.80479 3.97788 -2.05444e-06 0C0.136426 1.02003 0.312885 2.0822 0.510573 3.16471C0.54292 3.34302 0.570601 3.51631 0.604513 3.69587Z" fill="#343849"/>
</svg>
