<svg width="62" height="64" viewBox="0 0 62 64" fill="none" xmlns="http://www.w3.org/2000/svg">
<path d="M61.2132 59.3156C61.8164 48.1785 61.719 37.0177 60.9216 25.9008C60.7593 23.5229 60.5592 21.1417 60.3276 18.786C59.8467 13.5519 59.092 8.3487 58.0668 3.19815C56.5033 2.43913 53.4303 0.947715 53.4303 0.947715L44.3122 14.4915L40.5671 20.0543L40.5766 20.0751C26.2753 19.0312 12.0816 23.4842 0.836002 32.543C0.978962 32.5665 1.13183 32.5961 1.27743 32.621C15.0828 35.389 28.3391 40.4066 40.5287 47.4779C48.2026 51.7017 55.0499 57.2964 60.7403 63.9922C60.9074 62.7113 61.04 61.3664 61.1537 59.99C61.1727 59.7634 61.1957 59.5443 61.2132 59.3156Z" fill="#343849"/>
</svg>
