<svg width="42" height="42" viewBox="0 0 42 42" fill="none" xmlns="http://www.w3.org/2000/svg">
<path d="M34.0693 38.5759C36.2873 31.7402 38.0689 24.7705 39.4033 17.7089C39.694 16.1998 39.9614 14.6823 40.2048 13.1752C40.7668 9.83254 41.1516 6.4625 41.3578 3.07921C40.5005 2.34021 38.8157 0.888023 38.8157 0.888023L30.8493 7.77379L27.5772 10.602L27.5797 10.6166C18.7646 7.53201 9.10953 7.89035 0.546617 11.6199C0.632584 11.6588 0.723771 11.7033 0.811153 11.7436C9.02992 15.8178 16.5322 21.2002 23.025 27.6803C27.1502 31.6179 30.5295 36.2689 33 41.409C33.3165 40.6394 33.6219 39.8241 33.9206 38.9859C33.97 38.848 34.0206 38.7154 34.0693 38.5759Z" fill="#343849"/>
</svg>
