<svg width="50" height="51" viewBox="0 0 50 51" fill="none" xmlns="http://www.w3.org/2000/svg">
<path d="M49.2081 46.6721C49.6759 37.7971 49.5813 28.9022 48.9248 20.0412C48.791 18.1459 48.6269 16.2479 48.4376 14.3701C48.0438 10.198 47.4304 6.0501 46.5999 1.94377C45.3437 1.33655 42.875 0.143413 42.875 0.143413L35.5761 10.9238L32.5782 15.3517L32.5858 15.3683C21.105 14.5153 9.71865 18.0432 0.705421 25.2461C0.820205 25.2651 0.942957 25.2888 1.05986 25.3089C12.1452 27.5353 22.7931 31.5538 32.5878 37.2073C38.7536 40.5849 44.2581 45.0538 48.8355 50.3985C48.9677 49.3779 49.0722 48.3063 49.1614 47.2095C49.1763 47.0289 49.1944 46.8543 49.2081 46.6721Z" fill="#343849"/>
</svg>
