<svg width="74" height="70" viewBox="0 0 74 70" fill="none" xmlns="http://www.w3.org/2000/svg">
<path d="M3.3358 27.9092C11.7012 37.1762 20.6499 45.9015 30.1278 54.0324C32.1485 55.7782 34.2022 57.4963 36.261 59.1693C40.8085 62.9131 45.5519 66.4136 50.4714 69.6563C52.3345 69.0045 55.9959 67.7233 55.9959 67.7233L52.5789 49.7482L51.1755 42.3652L51.1513 42.3564C63.5045 31.7421 71.4022 16.8782 73.2639 0.739168C73.1301 0.834993 72.9834 0.933932 72.8463 1.03072C59.5224 9.88841 44.853 16.5326 29.411 20.7038C19.8707 23.5095 9.90679 24.5727 -7.86781e-06 23.8423C0.883376 24.9863 1.84541 26.1531 2.84774 27.3297C3.01258 27.5237 3.16817 27.7149 3.3358 27.9092Z" fill="#343849"/>
</svg>
