<svg width="64" height="62" viewBox="0 0 64 62" fill="none" xmlns="http://www.w3.org/2000/svg">
<path d="M4.67587 61.2248C15.8121 61.8299 26.9718 61.7343 38.0875 60.9386C40.4652 60.7767 42.8461 60.5769 45.2016 60.3458C50.4351 59.8656 55.6377 59.1117 60.7876 58.0872C61.5463 56.5237 63.0371 53.4507 63.0371 53.4507L49.4931 44.3295L43.9303 40.5832L43.9094 40.5926C44.9509 26.2902 40.496 12.0945 31.4362 0.846332C31.4128 0.989302 31.3832 1.14218 31.3583 1.28778C28.5928 15.094 23.5778 28.3507 16.5092 40.5403C12.287 48.2142 6.69389 55.0613 -0.000368655 60.7512C1.28043 60.9185 2.62523 61.0513 4.00155 61.1652C4.22818 61.1843 4.44722 61.2073 4.67587 61.2248Z" fill="#343849"/>
</svg>
