<svg width="62" height="64" viewBox="0 0 62 64" fill="none" xmlns="http://www.w3.org/2000/svg">
<path d="M61.2248 58.3954C61.8299 47.2592 61.7343 36.0995 60.9386 24.9838C60.7767 22.6061 60.5769 20.2252 60.3458 17.8697C59.8656 12.6362 59.1117 7.43358 58.0872 2.28368C56.5237 1.52498 53.4507 0.0342053 53.4507 0.0342053L44.3295 13.5782L40.5832 19.141L40.5926 19.1619C26.2902 18.1204 12.0945 22.5753 0.846333 31.6351C0.989303 31.6585 1.14218 31.6881 1.28779 31.7129C15.094 34.4785 28.3507 39.4935 40.5403 46.5621C48.2142 50.7843 55.0613 56.3774 60.7512 63.0717C60.9185 61.7909 61.0513 60.4461 61.1652 59.0697C61.1843 58.8431 61.2073 58.6241 61.2248 58.3954Z" fill="#343849"/>
</svg>
