<svg width="64" height="62" viewBox="0 0 64 62" fill="none" xmlns="http://www.w3.org/2000/svg">
<path d="M59.3134 0.796678C48.1772 0.191587 37.0175 0.287183 25.9018 1.08291C23.524 1.2448 21.1432 1.44457 18.7876 1.67572C13.5541 2.15592 8.35155 2.90981 3.20164 3.93425C2.44295 5.49783 0.952174 8.57079 0.952174 8.57079L14.4961 17.6919L20.059 21.4383L20.0799 21.4288C19.0384 35.7313 23.4933 49.927 32.5531 61.1752C32.5765 61.0322 32.606 60.8793 32.6309 60.7337C35.3964 46.9275 40.4114 33.6707 47.4801 21.4812C51.7022 13.8073 57.2954 6.96021 63.9896 1.27033C62.7088 1.10302 61.364 0.970176 59.9877 0.856254C59.7611 0.837231 59.542 0.814226 59.3134 0.796678Z" fill="#343849"/>
</svg>
