<svg width="34" height="37" viewBox="0 0 34 37" fill="none" xmlns="http://www.w3.org/2000/svg">
<path d="M30.6143 0.420976C24.5114 1.70595 18.4971 3.3728 12.608 5.41148C11.347 5.84307 10.0899 6.29558 8.85096 6.76137C6.09352 7.77823 3.39238 8.93847 0.758851 10.2372C0.575337 11.1916 0.214844 13.0673 0.214844 13.0673L8.85098 16.0339L12.3981 17.2524L12.408 17.2443C13.9155 25.1207 18.3765 32.1439 24.8983 36.9085C24.8903 36.8279 24.8841 36.741 24.8765 36.6588C24.372 28.8009 25.1622 20.9142 27.2162 13.3067C28.3862 8.55045 30.4163 4.04238 33.2088 0C32.4928 0.0950064 31.7471 0.217891 30.9872 0.355558C30.862 0.378084 30.7404 0.397361 30.6143 0.420976Z" fill="#343849"/>
</svg>
