<svg width="36" height="35" viewBox="0 0 36 35" fill="none" xmlns="http://www.w3.org/2000/svg">
<path d="M2.61543 33.9158C8.84302 34.2542 15.0837 34.2008 21.2999 33.7558C22.6295 33.6652 23.961 33.5535 25.2782 33.4243C28.2049 33.1557 31.1143 32.7341 33.9942 32.1612C34.4185 31.2869 35.2522 29.5684 35.2522 29.5684L27.6781 24.4677L24.5673 22.3726L24.5556 22.3779C25.138 14.3797 22.6467 6.44118 17.5803 0.150986C17.5672 0.230937 17.5507 0.316433 17.5368 0.397856C15.9903 8.11856 13.1858 15.532 9.23285 22.3486C6.87173 26.6401 3.74395 30.4691 0.000381565 33.651C0.716633 33.7445 1.46867 33.8188 2.23833 33.8825C2.36507 33.8932 2.48756 33.906 2.61543 33.9158Z" fill="#343849"/>
</svg>
