<svg width="62" height="56" viewBox="0 0 62 56" fill="none" xmlns="http://www.w3.org/2000/svg">
<mask id="path-1-inside-1_95_2390" fill="white">
<path d="M24.0004 3.63014C18.2514 12.5302 13.0771 21.792 8.5089 31.3597C7.52479 33.4022 6.57084 35.4658 5.65506 37.5238C3.5925 42.08 1.77331 46.7444 0.205106 51.4975C1.15508 52.8879 3.02227 55.6204 3.02227 55.6204L17.0245 48.8932L22.7756 46.1301L22.7775 46.1083C34.2444 53.9566 48.2097 57.2141 61.8789 55.2289C61.7704 55.1397 61.6565 55.0406 61.5465 54.9489C51.3062 45.9195 42.5845 35.301 35.7217 23.5081C31.294 16.2721 28.2031 8.30807 26.598 0.000162125C25.8551 0.976039 25.1109 2.0216 24.3676 3.10243C24.245 3.28027 24.1227 3.44991 24.0004 3.63014Z"/>
</mask>
<path d="M24.0004 3.63014L23.1729 3.06857L23.1665 3.07799L23.1604 3.08755L24.0004 3.63014ZM8.5089 31.3597L9.40979 31.7937L9.41131 31.7905L8.5089 31.3597ZM5.65506 37.5238L6.56608 37.9362L6.5687 37.9303L5.65506 37.5238ZM0.205106 51.4975L-0.744541 51.1841L-0.899396 51.6535L-0.620587 52.0616L0.205106 51.4975ZM3.02227 55.6204L2.19663 56.1846L2.68118 56.8937L3.45533 56.5218L3.02227 55.6204ZM17.0245 48.8932L16.5914 47.9918L16.5914 47.9918L17.0245 48.8932ZM22.7756 46.1301L23.2087 47.0315L23.723 46.7844L23.7719 46.2159L22.7756 46.1301ZM22.7775 46.1083L23.3423 45.2831L21.9282 44.3152L21.7812 46.0225L22.7775 46.1083ZM61.8789 55.2289L62.0226 56.2185L64.2614 55.8934L62.514 54.4565L61.8789 55.2289ZM61.5465 54.9489L60.8851 55.699L60.8955 55.7082L60.9062 55.717L61.5465 54.9489ZM35.7217 23.5081L36.5861 23.0052L36.5805 22.9956L36.5747 22.9862L35.7217 23.5081ZM26.598 0.000162125L27.5798 -0.18953L27.1559 -2.38368L25.8023 -0.605556L26.598 0.000162125ZM24.3676 3.10243L25.191 3.67002L25.1916 3.66904L24.3676 3.10243ZM23.1604 3.08755C17.3882 12.0235 12.1931 21.3226 7.60649 30.9288L9.41131 31.7905C13.9612 22.2614 19.1146 13.0369 24.8403 4.17273L23.1604 3.08755ZM7.60802 30.9256C6.61929 32.9777 5.66111 35.0505 4.74143 37.1172L6.5687 37.9303C7.48057 35.8811 8.43028 33.8266 9.40978 31.7937L7.60802 30.9256ZM4.74406 37.1114C2.66686 41.6999 0.834773 46.3974 -0.744541 51.1841L1.15475 51.8108C2.71185 47.0914 4.51815 42.46 6.56607 37.9362L4.74406 37.1114ZM-0.620587 52.0616C-0.145577 52.7568 0.55873 53.7876 1.14427 54.6445C1.43705 55.073 1.70014 55.458 1.89003 55.7359C1.98498 55.8749 2.06163 55.987 2.11454 56.0645C2.14099 56.1032 2.16151 56.1332 2.17542 56.1536C2.18238 56.1638 2.18768 56.1715 2.19124 56.1767C2.19302 56.1793 2.19437 56.1813 2.19527 56.1826C2.19572 56.1833 2.19606 56.1838 2.19628 56.1841C2.1964 56.1843 2.19648 56.1844 2.19654 56.1845C2.19657 56.1845 2.19659 56.1846 2.1966 56.1846C2.19662 56.1846 2.19663 56.1846 3.02227 55.6204C3.84792 55.0562 3.84791 55.0562 3.8479 55.0562C3.84788 55.0562 3.84786 55.0561 3.84783 55.0561C3.84777 55.056 3.84769 55.0559 3.84758 55.0557C3.84735 55.0554 3.84701 55.0549 3.84656 55.0542C3.84566 55.0529 3.84431 55.051 3.84253 55.0483C3.83897 55.0431 3.83367 55.0354 3.82672 55.0252C3.81281 55.0048 3.79229 54.9748 3.76583 54.9361C3.71292 54.8587 3.63627 54.7465 3.54133 54.6076C3.35144 54.3297 3.08836 53.9447 2.79559 53.5162C2.21004 52.6593 1.50577 51.6285 1.0308 50.9333L-0.620587 52.0616ZM3.45533 56.5218L17.4575 49.7945L16.5914 47.9918L2.58922 54.719L3.45533 56.5218ZM17.4575 49.7945L23.2087 47.0315L22.3426 45.2288L16.5914 47.9918L17.4575 49.7945ZM23.7719 46.2159L23.7738 46.1941L21.7812 46.0225L21.7793 46.0443L23.7719 46.2159ZM22.2127 46.9335C33.8853 54.9227 48.1033 58.24 62.0226 56.2185L61.7352 54.2393C48.3161 56.1881 34.6034 52.9905 23.3423 45.2831L22.2127 46.9335ZM62.514 54.4565C62.3959 54.3594 62.3322 54.302 62.1868 54.1808L60.9062 55.717C60.9808 55.7792 61.1449 55.9201 61.2437 56.0013L62.514 54.4565ZM62.2079 54.1989C52.048 45.2403 43.3948 34.7052 36.5861 23.0052L34.8574 24.0111C41.7741 35.8967 50.5645 46.5986 60.8851 55.699L62.2079 54.1989ZM36.5747 22.9862C32.2094 15.852 29.1621 8.0005 27.5798 -0.18953L25.6161 0.189857C27.244 8.61565 30.3787 16.6922 34.8688 24.0301L36.5747 22.9862ZM25.8023 -0.605556C25.0464 0.387363 24.2924 1.44699 23.5437 2.53582L25.1916 3.66904C25.9294 2.5962 26.6637 1.56471 27.3937 0.60588L25.8023 -0.605556ZM23.5443 2.53484C23.4452 2.67865 23.2904 2.89551 23.1729 3.06857L24.8278 4.19171C24.955 4.0043 25.0449 3.88189 25.191 3.67002L23.5443 2.53484Z" fill="white" mask="url(#path-1-inside-1_95_2390)"/>
</svg>
