<svg width="86" height="92" viewBox="0 0 86 92" fill="none" xmlns="http://www.w3.org/2000/svg">
<path d="M19.87 38.3337L19.8712 38.3323C29.9631 26.583 40.7915 15.4885 52.2909 5.11595C52.4283 4.9976 52.5567 4.89053 52.6885 4.78067C52.7898 4.69619 52.8931 4.61005 53.004 4.51585L53.0045 4.51547C54.1609 3.531 55.3079 2.57945 56.4378 1.68387C55.6754 13.6625 57.0152 25.6891 60.3994 37.2177C65.5367 56.271 73.7057 74.3757 84.5915 90.8362C65.0996 88.3325 47.1948 78.6905 34.3484 63.7502L33.7931 63.1043L33.5863 63.6681L24.6948 65.3639L2.79288 69.5412L2.6745 69.2025L2.04058 67.3888L0.622236 63.3304C4.60616 57.3122 8.90196 51.5071 13.4921 45.9389L13.4941 45.9364C15.5708 43.3842 17.7033 40.8384 19.87 38.3337Z" stroke="white"/>
</svg>
