<svg width="48" height="47" viewBox="0 0 48 47" fill="none" xmlns="http://www.w3.org/2000/svg">
<path d="M44.0726 0.922306C35.7606 0.49727 27.429 0.602573 19.1282 1.23759C17.3526 1.36714 15.5745 1.52535 13.8153 1.70724C9.90683 2.0861 6.02059 2.672 2.17288 3.46249C1.60186 4.64802 0.479838 6.97799 0.479838 6.97799L10.5642 13.8407L14.7061 16.6595L14.7217 16.6523C13.902 27.4792 17.1859 38.2091 23.9162 46.6948C23.9342 46.5866 23.9567 46.4708 23.9757 46.3605C26.0811 35.904 29.8642 25.8567 35.1773 16.611C38.352 10.791 42.5478 5.59273 47.5623 1.26694C46.6066 1.14411 45.603 1.04755 44.5758 0.9654C44.4067 0.951673 44.2432 0.934909 44.0726 0.922306Z" fill="#343849"/>
</svg>
