<svg width="50" height="45" viewBox="0 0 50 45" fill="none" xmlns="http://www.w3.org/2000/svg">
<path d="M0.570295 4.05811C2.31104 12.1969 4.56913 20.2173 7.33094 28.071C7.91561 29.7525 8.52863 31.429 9.15964 33.0812C10.5372 36.7585 12.109 40.3607 13.8684 43.8727C15.1613 44.1174 17.7023 44.5981 17.7023 44.5981L21.7212 33.0812L23.3719 28.3509L23.3608 28.3377C34.0311 26.3273 43.5454 20.3782 50 11.6808C49.8908 11.6916 49.7731 11.6998 49.6617 11.71C39.0166 12.3827 28.3325 11.3289 18.0267 8.58977C11.5833 7.02953 5.47621 4.32212 -1.9233e-06 0.598148C0.128703 1.55307 0.295175 2.54744 0.481673 3.56086C0.512189 3.72778 0.538303 3.89001 0.570295 4.05811Z" fill="#343849"/>
</svg>
