<svg width="52" height="42" viewBox="0 0 52 42" fill="none" xmlns="http://www.w3.org/2000/svg">
<path d="M49.9417 35.9044C46.1538 28.4935 41.8968 21.3308 37.1964 14.4596C36.1964 12.9866 35.1704 11.5259 34.1333 10.0933C31.8509 6.8979 29.4004 3.82527 26.792 0.888297C25.4797 0.98654 22.9009 1.17983 22.9009 1.17983L21.9998 13.3445L21.6296 18.3409L21.6437 18.3508C11.8574 23.0544 4.20695 31.2632 0.223335 41.3348C0.326056 41.2962 0.437575 41.2577 0.542577 41.2191C10.6509 37.8142 21.2436 36.0668 31.9072 36.0452C38.5349 35.8846 45.1346 36.9191 51.388 39.0989C51.0166 38.2098 50.5984 37.2924 50.156 36.3618C50.0833 36.2084 50.0161 36.0585 49.9417 35.9044Z" fill="#343849"/>
</svg>
