<svg width="62" height="64" viewBox="0 0 62 64" fill="none" xmlns="http://www.w3.org/2000/svg">
<path d="M61.2033 58.9115C61.8084 47.7753 61.7128 36.6156 60.9171 25.4999C60.7552 23.1222 60.5554 20.7413 60.3243 18.3858C59.8441 13.1523 59.0902 7.9497 58.0657 2.79979C56.5022 2.04109 53.4292 0.550319 53.4292 0.550319L44.3081 14.0943L40.5617 19.6572L40.5712 19.678C26.2687 18.6365 12.073 23.0914 0.824849 32.1512C0.967819 32.1746 1.1207 32.2042 1.2663 32.2291C15.0725 34.9946 28.3293 40.0096 40.5188 47.0782C48.1927 51.3004 55.0398 56.8935 60.7297 63.5878C60.897 62.307 61.0298 60.9622 61.1437 59.5859C61.1628 59.3592 61.1858 59.1402 61.2033 58.9115Z" fill="#343849"/>
</svg>
