<svg width="33" height="42" viewBox="0 0 33 42" fill="none" xmlns="http://www.w3.org/2000/svg">
<g clip-path="url(#clip0_265_3850)">
<path d="M2.70508 26.1322H7.96436L6.47176 23.5469L2.70508 26.1322Z" fill="#0D0F1B"/>
<path d="M26.2132 23.6348L24.7715 26.132H30.0308L26.2132 23.6348Z" fill="#0D0F1B"/>
<path d="M21.2509 27.1987H3.77246V40.6145H28.9605V27.1987H22.3416H21.2509Z" fill="#0D0F1B"/>
<path d="M9.15824 1.09473L1.9502 13.5795L7.35441 22.9397L9.15824 26.0641H11.1771H21.6427H23.5743L25.3155 23.0483L30.7824 13.5795L23.5743 1.09473H9.15824Z" fill="#0D0F1B"/>
<path d="M8.54295 0.027832L0.71875 13.5798L6.47263 23.5459L7.96522 26.1311H2.7059V41.6814H30.0285V26.1311H24.7692L26.211 23.6339L32.0157 13.5798L24.1915 0.027832H8.54295ZM28.9612 40.6141H3.77319V27.1984H28.9612V40.6141ZM23.5753 26.0645H9.15914L7.35528 22.9401L1.95114 13.5798L9.15914 1.09512H23.5753L30.7833 13.5798L25.3164 23.0487L23.5753 26.0645Z" fill="white"/>
<path d="M6.98828 16.6637V9.71534H8.64521V16.6637H6.98828ZM13.5305 9.71534C12.066 11.3936 11.2535 12.4198 10.7297 13.2002C12.0232 14.4402 13.4556 16.343 13.7229 16.6637H11.5315C10.6775 15.502 9.76412 14.3852 8.79486 13.3178C9.42556 12.1847 10.6228 10.5705 11.307 9.71533L13.5305 9.71534Z" fill="white" stroke="white" stroke-width="0.140025" stroke-miterlimit="10"/>
<path d="M13.8818 17.5191L17.3988 9.35205H19.0985L15.5388 17.5191H13.8818Z" fill="white" stroke="white" stroke-width="0.140025" stroke-miterlimit="10"/>
<path d="M22.8331 9.71533C24.7466 9.71533 26.6066 10.4315 26.6066 13.1254C26.6066 15.7551 24.768 16.6637 22.7369 16.6637H20.0645V9.71533H22.8331ZM21.7214 15.2634H22.7155C24.1052 15.2634 24.8749 14.6219 24.8749 13.1574C24.8749 11.8426 24.0838 11.1157 22.7797 11.1157H21.7214V15.2634Z" fill="white" stroke="white" stroke-width="0.140025" stroke-miterlimit="10"/>
</g>
<defs>
<clipPath id="clip0_265_3850">
<rect width="32.0187" height="41.6536" fill="white" transform="translate(0.361328 0.027832)"/>
</clipPath>
</defs>
</svg>
