<svg width="33" height="42" viewBox="0 0 33 42" fill="none" xmlns="http://www.w3.org/2000/svg">
<g clip-path="url(#clip0_265_3837)">
<path d="M2.35645 26.2292H7.63541L6.13732 23.6343L2.35645 26.2292Z" fill="#0D0F1B"/>
<path d="M25.9521 23.7227L24.5049 26.2292H29.784L25.9521 23.7227Z" fill="#0D0F1B"/>
<path d="M20.9706 27.3013H3.42676V40.7672H28.709V27.3013H22.0654H20.9706Z" fill="#0D0F1B"/>
<path d="M8.8317 1.10059L1.59668 13.632L7.02112 23.0273L8.8317 26.1634H10.8581H21.3629H23.3017L25.0494 23.1363L30.5367 13.632L23.3017 1.10059H8.8317Z" fill="#0D0F1B"/>
<path d="M8.21578 0.0283203L0.362305 13.631L6.13771 23.6344L7.63589 26.2293H2.35689V41.8378H29.7817V26.2293H24.5027L25.9499 23.7227L31.7763 13.631L23.9228 0.0283203H8.21578ZM28.7104 40.7665H3.42817V27.3006H28.7104V40.7665ZM23.3043 26.1624H8.83428L7.02366 23.0263L1.5993 13.631L8.83428 1.0996H23.3043L30.5393 13.631L25.052 23.1353L23.3043 26.1624Z" fill="white"/>
<path d="M18.7185 12.0724C18.7185 11.5568 18.5548 11.2622 18.2357 11.2622C17.9166 11.2622 17.7529 11.5731 17.7529 12.1133C17.7529 12.6779 17.9084 12.997 18.2193 12.997C18.5548 12.997 18.7185 12.6615 18.7185 12.0724Z" fill="white"/>
<path d="M14.5389 9.72316C14.5389 9.15854 14.3833 8.83936 14.0724 8.83936C13.7369 8.83936 13.5732 9.17486 13.5732 9.76407C13.5732 10.2796 13.7369 10.5742 14.0561 10.5742C14.3752 10.5742 14.5389 10.2632 14.5389 9.72316Z" fill="white"/>
<path d="M25.3199 7.2687C25.298 7.24762 25.272 7.23134 25.2435 7.22091C25.215 7.21048 25.1846 7.20612 25.1543 7.20813C24.4414 7.20959 23.7282 7.20949 23.0149 7.20781C22.9876 7.20492 22.96 7.20806 22.9341 7.21702C22.9081 7.22598 22.8844 7.24052 22.8647 7.25964C22.845 7.27875 22.8298 7.30196 22.82 7.32762C22.8103 7.35329 22.8063 7.38078 22.8083 7.40816C22.7976 7.76783 22.7858 8.05835 22.7714 8.32246C22.7648 8.35426 22.7659 8.38719 22.7749 8.41843C22.7838 8.44966 22.8002 8.47824 22.8227 8.50171C22.8452 8.52517 22.873 8.54281 22.9038 8.55309C22.9346 8.56338 22.9675 8.566 22.9995 8.56073C23.2204 8.55612 23.4457 8.55691 23.6635 8.55753L23.8595 8.55806C23.8665 8.55806 23.8739 8.55806 23.8812 8.55811L23.8795 8.57595C23.878 8.5919 23.8772 8.60801 23.8763 8.62412C23.8759 8.64799 23.8735 8.67178 23.8692 8.69526C23.838 8.83163 23.8079 8.96826 23.7777 9.10489C23.7037 9.44082 23.6271 9.7881 23.5354 10.1238C23.3416 10.82 23.0382 11.4809 22.6365 12.0817C22.1445 12.861 21.4418 13.4851 20.6098 13.8815C20.5756 13.8977 20.5409 13.9127 20.5056 13.9274C20.5342 13.8621 20.5631 13.7968 20.5922 13.7315C20.6765 13.542 20.7635 13.346 20.841 13.1488C21.0626 12.5803 21.2393 11.9952 21.3695 11.399C21.4496 11.0417 21.5399 10.6197 21.6028 10.1984C21.6858 9.64362 21.7385 9.18587 21.7688 8.75767C21.7995 8.32434 21.8164 7.8837 21.8327 7.45759C21.8406 7.25154 21.8485 7.04555 21.858 6.83977C21.8642 6.78273 21.8487 6.72543 21.8145 6.67934C21.7804 6.63324 21.7301 6.60174 21.6737 6.59115C21.5762 6.56578 21.479 6.53837 21.3819 6.51102C21.1914 6.45734 20.9944 6.4019 20.7956 6.36188C20.0847 6.21939 19.4597 6.10431 18.8851 6.01011C18.0655 5.88153 17.2372 5.81644 16.4075 5.81541C15.5647 5.79709 14.7217 5.83629 13.8843 5.93274L13.6285 5.96413C13.3057 6.00341 12.9718 6.04395 12.6453 6.10238C12.2189 6.1786 11.7901 6.27484 11.3754 6.3679L11.2016 6.40687C11.0552 6.43957 10.9093 6.47953 10.7683 6.51813C10.681 6.54209 10.5937 6.566 10.506 6.58833C10.4443 6.59722 10.3885 6.62993 10.3506 6.67945C10.3127 6.72898 10.2957 6.79137 10.3033 6.85327C10.3105 6.98216 10.3122 7.11477 10.3139 7.24303C10.315 7.33216 10.3162 7.42129 10.3191 7.51038C10.3449 8.44621 10.4318 9.37936 10.5792 10.3039C10.6876 11.0263 10.8546 11.7387 11.0788 12.434C11.1968 12.788 11.3337 13.1411 11.466 13.4826L11.5288 13.6446C11.5674 13.7449 11.6119 13.843 11.6562 13.9384C11.5913 13.9116 11.5286 13.8847 11.4668 13.8545C10.6047 13.4345 9.91802 12.7863 9.36736 11.8728C8.79625 10.9255 8.4325 9.84073 8.25538 8.55702C8.39002 8.55838 8.52472 8.55791 8.65941 8.55749C8.82915 8.55686 8.99879 8.55629 9.16843 8.55942C9.20052 8.56296 9.233 8.55961 9.26369 8.5496C9.29439 8.53958 9.3226 8.52314 9.34643 8.50136C9.36672 8.47682 9.38168 8.44832 9.39035 8.41769C9.39902 8.38705 9.40122 8.35494 9.39681 8.32341C9.37944 8.04272 9.36673 7.74749 9.35789 7.42092C9.36019 7.39181 9.35597 7.36254 9.34554 7.33526C9.3351 7.30798 9.31872 7.28336 9.29757 7.26321C9.27643 7.24306 9.25106 7.22788 9.22331 7.21876C9.19555 7.20965 9.16612 7.20684 9.13715 7.21054C9.0035 7.213 8.86964 7.21247 8.73573 7.21195L8.56787 7.21153L8.20401 7.21164C7.79564 7.2119 7.38742 7.21141 6.97936 7.21017C6.94885 7.2073 6.91809 7.21127 6.88931 7.2218C6.86054 7.23232 6.83447 7.24913 6.81302 7.27101C6.79551 7.29401 6.78323 7.32055 6.77705 7.34879C6.77087 7.37702 6.77093 7.40627 6.77724 7.43447C6.78435 7.48082 6.78853 7.52758 6.79282 7.57435C6.79596 7.60866 6.7991 7.64303 6.80318 7.67708C6.82353 7.84693 6.84163 8.01709 6.85967 8.1873C6.90058 8.57209 6.9429 8.97005 7.01158 9.35865C7.13469 10.0499 7.33141 10.726 7.59838 11.3755C7.97548 12.3408 8.546 13.2188 9.27488 13.9555C9.7243 14.403 10.2439 14.7739 10.8131 15.0536C11.376 15.3342 11.9842 15.5128 12.6095 15.5811C12.6732 15.5903 12.7307 15.624 12.7697 15.6752L12.8789 15.7904C13.0405 15.9613 13.2075 16.1379 13.3885 16.2968C13.8903 16.74 14.4888 17.0596 15.1362 17.23C15.1703 17.2389 15.2052 17.2481 15.2238 17.2549C15.2256 17.2742 15.2256 17.309 15.2256 17.3404L15.2256 17.88C15.2255 18.4496 15.2255 19.0193 15.226 19.5939C15.226 19.6158 15.226 19.6396 15.2253 19.6566C15.2077 19.6606 15.1828 19.665 15.1614 19.6689C14.4059 19.8044 13.6889 20.1026 13.0601 20.5428C13.0078 20.5748 12.9651 20.6203 12.9363 20.6744C12.9075 20.7286 12.8938 20.7895 12.8966 20.8508C12.901 21.6136 12.9018 22.3873 12.8987 23.1499C12.8963 23.1794 12.9001 23.2091 12.9096 23.2371C12.9191 23.2651 12.9343 23.2908 12.9542 23.3128C12.9784 23.3336 13.0065 23.3494 13.037 23.3592C13.0674 23.3689 13.0995 23.3724 13.1313 23.3695C13.5814 23.3698 14.0315 23.3707 14.4816 23.3722C14.9699 23.3735 15.4581 23.3744 15.9464 23.3749H16.0382C16.4864 23.3749 16.9346 23.3741 17.3828 23.3723L18.2212 23.3702C18.5013 23.3698 18.781 23.3698 19.0612 23.3729C19.0929 23.3769 19.1252 23.3736 19.1555 23.3631C19.1857 23.3527 19.2132 23.3354 19.2356 23.3126C19.2581 23.2897 19.275 23.262 19.285 23.2316C19.295 23.2012 19.2979 23.1689 19.2934 23.1372C19.29 22.4427 19.2894 21.7022 19.2913 20.8067C19.2945 20.7571 19.2836 20.7076 19.2598 20.664C19.236 20.6204 19.2003 20.5845 19.1568 20.5604C19.0669 20.5086 18.9778 20.4552 18.8886 20.4018C18.6955 20.2861 18.4959 20.1665 18.2892 20.0644C17.887 19.8683 17.457 19.7355 17.0144 19.6704C16.9988 19.6681 16.9836 19.6643 16.9688 19.6589C16.9654 19.6448 16.9647 19.6302 16.9668 19.6159C16.9741 19.5136 16.973 19.4113 16.9719 19.3123C16.9715 19.2769 16.9712 19.2415 16.9712 19.2061C16.9712 18.5595 16.9709 17.9129 16.9705 17.2663C16.9705 17.2566 16.9705 17.2446 16.971 17.2355L16.9731 17.235C17.3444 17.1512 17.7015 17.0133 18.0326 16.8255C18.5602 16.5182 19.0307 16.122 19.4232 15.6543C19.4537 15.6215 19.4929 15.5982 19.5362 15.5872C19.6516 15.5611 19.7681 15.5392 19.8846 15.5173C20.0338 15.4892 20.1882 15.4601 20.3393 15.4223C20.9145 15.2747 21.4601 15.0296 21.9525 14.6978C22.8731 14.0863 23.6017 13.2558 24.1801 12.1587C24.4728 11.6154 24.7018 11.0402 24.8627 10.4444C25.0146 9.86766 25.1289 9.3451 25.2122 8.84691C25.2646 8.53322 25.2926 8.21225 25.3196 7.9019C25.3331 7.74681 25.3467 7.59171 25.3632 7.43703C25.3682 7.40751 25.3669 7.37726 25.3594 7.34826C25.3519 7.31926 25.3385 7.29215 25.3199 7.2687ZM15.2746 13.5779H14.2763L17.034 8.25895H18.016L15.2746 13.5779ZM12.6888 9.69912C12.6888 8.80715 13.1143 8.15256 14.0799 8.15256C14.9964 8.15256 15.4301 8.79083 15.4301 9.6828C15.4301 10.5748 15.0209 11.2703 14.0554 11.2703C13.1061 11.2703 12.6888 10.5748 12.6888 9.69912V9.69912ZM16.8622 12.1541C16.8622 11.2621 17.2713 10.5665 18.2369 10.5665C19.1861 10.5665 19.6034 11.2621 19.6034 12.1376C19.6034 13.0296 19.178 13.6843 18.2123 13.6843C17.2958 13.6843 16.8622 13.046 16.8622 12.1541L16.8622 12.1541Z" fill="white"/>
</g>
<defs>
<clipPath id="clip0_265_3837">
<rect width="32.1385" height="41.8095" fill="white" transform="translate(0.000976562 0.027832)"/>
</clipPath>
</defs>
</svg>
