<svg width="50" height="44" viewBox="0 0 50 44" fill="none" xmlns="http://www.w3.org/2000/svg">
<path d="M0.569318 3.45996C2.31007 11.5987 4.56816 19.6192 7.32996 27.4728C7.91464 29.1544 8.52765 30.8309 9.15866 32.4831C10.5362 36.1603 12.108 39.7625 13.8674 43.2745C15.1603 43.5193 17.7013 44 17.7013 44L21.7202 32.4831L23.3709 27.7527L23.3599 27.7395C34.0301 25.7291 43.5444 19.78 49.999 11.0827C49.8898 11.0934 49.7721 11.1016 49.6607 11.1118C39.0156 11.7845 28.3315 10.7307 18.0257 7.99163C11.5823 6.43138 5.47524 3.72398 -0.000978485 0C0.127727 0.954922 0.294198 1.94929 0.480696 2.96271C0.511212 3.12963 0.537327 3.29187 0.569318 3.45996Z" fill="#343849"/>
</svg>
