<svg width="32" height="32" viewBox="0 0 32 32" fill="none" xmlns="http://www.w3.org/2000/svg">
<g clip-path="url(#clip0_265_3900)">
<path d="M27.975 2.33333V5.02667C24.843 2.50667 20.847 1 16.5 1C12.153 1 8.157 2.50667 5.025 5.02667V2.33333H3V7V9H5.025H9.75V7H5.8215C8.67 4.52 12.4095 3 16.5 3C20.5905 3 24.3165 4.52 27.1785 7H23.25V9H27.975H30V7V2.33333H27.975Z" fill="white"/>
<path d="M26.4749 17.6933L21.2496 15.4666C21.0708 15.3866 20.8646 15.3332 20.6446 15.3332H19.7508V9.50653C19.7508 7.74652 18.4307 6.17318 16.6293 6.01318C14.5942 5.83984 12.8754 7.39985 12.8754 9.3332V20.1999L10.304 19.6666C10.0427 19.6266 8.90141 19.4666 7.92511 20.4133L6 22.2933L13.0404 29.2133C13.5492 29.72 14.2505 30 14.9792 30H23.986C25.3336 30 26.4749 29.0667 26.6949 27.7733L27.96 20.5199C28.1662 19.3733 27.5612 18.2266 26.4749 17.6933ZM25.2511 20.0799L23.986 27.3333H14.9792L9.89147 22.2933L15.6255 23.48V9.3332C15.6255 8.95986 15.9281 8.66653 16.3131 8.66653C16.6981 8.66653 17.0006 8.95986 17.0006 9.3332V17.5733H19.4207L25.2511 20.0799Z" fill="white"/>
</g>
<defs>
<clipPath id="clip0_265_3900">
<rect width="32" height="32" fill="white"/>
</clipPath>
</defs>
</svg>
