<svg width="62" height="64" viewBox="0 0 62 64" fill="none" xmlns="http://www.w3.org/2000/svg">
<path d="M61.2225 58.4036C61.8265 47.2669 61.7299 36.1066 60.9333 24.9902C60.7712 22.6124 60.5712 20.2314 60.3398 17.8757C59.8592 12.6419 59.1049 7.43896 58.08 2.28869C56.5165 1.52982 53.4435 0.0386868 53.4435 0.0386868L44.3241 13.5825L40.5784 19.1454L40.5879 19.1662C26.286 18.1234 12.0915 22.5772 0.844755 31.6365C0.98772 31.6599 1.14059 31.6895 1.28619 31.7144C15.0919 34.4813 28.3484 39.4977 40.538 46.5678C48.2119 50.7909 55.0591 56.385 60.7493 63.0801C60.9165 61.7992 61.0492 60.4544 61.163 59.078C61.182 58.8514 61.205 58.6323 61.2225 58.4036Z" fill="#343849"/>
</svg>
