<svg width="47" height="62" viewBox="0 0 47 62" fill="none" xmlns="http://www.w3.org/2000/svg">
<path d="M3.89551 38.464H11.6161L9.42502 34.6709L3.89551 38.464Z" fill="#0D0F1B"/>
<path d="M38.4036 34.7993L36.2871 38.4634H44.0077L38.4036 34.7993Z" fill="#0D0F1B"/>
<path d="M31.1236 40.0308H5.46582V59.7141H42.441V40.0308H32.7247H31.1236Z" fill="#0D0F1B"/>
<path d="M13.3712 1.73047L2.79004 20.0479L10.7233 33.7814L13.3712 38.3655H16.3349H31.6981H34.5336L37.0896 33.9406L45.1147 20.0479L34.5336 1.73047H13.3712Z" fill="#0D0F1B"/>
<path d="M12.4652 0.165039L0.979492 20.0485L9.42607 34.6707L11.6171 38.4638H3.89656V61.2792H44.0052V38.4638H36.2847L38.4011 34.7998L46.9223 20.0485L35.4366 0.165039H12.4652ZM42.4385 59.7132H5.46331V40.0298H42.4385V59.7132ZM34.532 38.366H13.3697L10.7217 33.7819L2.78859 20.0485L13.3697 1.73097H34.532L45.1132 20.0485L37.088 33.9412L34.532 38.366Z" fill="white"/>
<path d="M31.8474 28.1445C31.8245 27.4159 31.7235 26.6919 31.5459 25.9849C31.2825 24.9465 30.7784 23.9847 30.0744 23.1773L29.9032 22.9776C29.8426 22.9124 29.7936 22.8431 29.7325 22.782C29.0366 22.0635 28.2271 21.4646 27.3365 21.0094L26.872 20.7853C26.9 20.7853 26.9209 20.7405 26.9453 20.7201C27.7104 20.1772 28.2918 19.4138 28.6119 18.5319C28.6119 18.5319 28.7318 18.1285 28.779 17.9614C29.036 17.1322 29.0618 16.2485 28.8535 15.4057C28.6451 14.563 28.2106 13.7931 27.5967 13.1792H20.2778C19.8423 13.6401 19.5045 14.1843 19.2845 14.7789C19.1187 15.1687 19.0103 15.5805 18.9627 16.0014V16.034C18.9379 16.2504 18.9311 16.4684 18.9423 16.686C18.9429 16.8549 18.9538 17.0236 18.9749 17.1913C18.9728 17.2129 18.9728 17.2348 18.9749 17.2565C19.0189 17.6742 19.1146 18.0848 19.2597 18.4789C19.3656 18.748 19.4953 19.0071 19.6472 19.2532C19.9618 19.8132 20.3925 20.2994 20.9104 20.6794C20.9491 20.7169 20.99 20.7523 21.0327 20.7853L20.5641 21.0094C17.6586 22.5172 16.1305 24.8968 16.0487 28.1812C16.0161 29.5585 16.0487 30.9359 16.0487 32.3172C16.0487 32.9325 16.3054 33.2015 16.9167 33.2015H30.9958C31.607 33.2015 31.8638 32.9325 31.8638 32.3172C31.8718 30.9236 31.8963 29.5341 31.8474 28.1445Z" fill="white"/>
<path d="M27.3766 9.93508L27.0059 6.93304L25.2118 9.21454L23.9533 5.40625L22.6947 9.21454L20.9005 6.93304L20.5299 9.93508L18.2168 8.4426L18.8643 10.4698L18.908 10.6069L19.492 12.4351H28.4144L28.9984 10.6069L29.0422 10.4698L29.6896 8.4426L27.3766 9.93508Z" fill="white"/>
</svg>
