<svg width="82" height="91" viewBox="0 0 82 91" fill="none" xmlns="http://www.w3.org/2000/svg">
<path d="M46.0821 78.1223L46.0805 78.1215C32.1224 71.4131 18.6062 63.8235 5.61352 55.3988C5.46367 55.2967 5.32705 55.2004 5.18685 55.1015C5.07905 55.0255 4.96913 54.948 4.84946 54.8652L4.84897 54.8649C3.599 54.0024 2.38325 53.1406 1.22599 52.2808C12.9913 49.9164 24.259 45.5087 34.5168 39.2547C51.5877 29.359 66.958 16.7798 80.0373 2.00163C82.6633 21.4814 77.9849 41.2758 66.8809 57.5547L66.4009 58.2584L66.9989 58.3122L70.9373 66.4635L80.6389 86.5422L80.3424 86.7443L78.7549 87.8263L75.2027 90.2472C68.3599 87.9561 61.6422 85.3086 55.077 82.3154L55.0741 82.3141C52.0719 80.9685 49.0616 79.5672 46.0821 78.1223Z" stroke="white"/>
</svg>
