<svg width="62" height="56" viewBox="0 0 62 56" fill="none" xmlns="http://www.w3.org/2000/svg">
<mask id="path-1-inside-1_260_3660" fill="white">
<path d="M23.9926 3.63094C18.2449 12.5329 13.0717 21.7966 8.50441 31.3662C7.5205 33.4092 6.56675 35.4732 5.65117 37.5317C3.58904 42.0888 1.77023 46.7542 0.20235 51.5082C1.15213 52.899 3.01893 55.6321 3.01893 55.6321L17.0182 48.9034L22.7682 46.1398L22.77 46.1179C34.2345 53.9679 48.1969 57.2261 61.8633 55.2405C61.7548 55.1513 61.6409 55.0521 61.5309 54.9604C51.2928 45.9291 42.5729 35.3084 35.7116 23.5131C31.2848 16.2755 28.1945 8.30985 26.5897 0.000201702C25.847 0.976282 25.1029 2.02206 24.3598 3.10312C24.2373 3.281 24.1149 3.45067 23.9926 3.63094Z"/>
</mask>
<path d="M23.9926 3.63094L23.1654 3.06925L23.159 3.07867L23.1528 3.08823L23.9926 3.63094ZM8.50441 31.3662L9.40511 31.8004L9.40664 31.7972L8.50441 31.3662ZM5.65117 37.5317L6.562 37.9442L6.56461 37.9383L5.65117 37.5317ZM0.20235 51.5082L-0.747098 51.1949L-0.901922 51.6643L-0.623171 52.0725L0.20235 51.5082ZM3.01893 55.6321L2.19345 56.1964L2.67791 56.9056L3.45189 56.5336L3.01893 55.6321ZM17.0182 48.9034L16.5852 48.0018L16.5852 48.0018L17.0182 48.9034ZM22.7682 46.1398L23.2011 47.0414L23.7153 46.7942L23.7643 46.2256L22.7682 46.1398ZM22.77 46.1179L23.3347 45.2925L21.9209 44.3245L21.7739 46.0321L22.77 46.1179ZM61.8633 55.2405L62.007 56.2303L64.2453 55.9051L62.4983 54.4679L61.8633 55.2405ZM61.5309 54.9604L60.8697 55.7106L60.8801 55.7198L60.8908 55.7287L61.5309 54.9604ZM35.7116 23.5131L36.5757 23.01L36.5701 23.0004L36.5644 22.991L35.7116 23.5131ZM26.5897 0.000201702L27.5714 -0.18953L27.1475 -2.38413L25.7942 -0.605643L26.5897 0.000201702ZM24.3598 3.10312L25.183 3.67082L25.1837 3.66985L24.3598 3.10312ZM23.1528 3.08823C17.3819 12.0261 12.1879 21.3271 7.60219 30.9353L9.40664 31.7972C13.9555 22.2661 19.1079 13.0397 24.8325 4.17364L23.1528 3.08823ZM7.60372 30.9321C6.6152 32.9846 5.65721 35.0578 4.73773 37.125L6.56461 37.9383C7.4763 35.8886 8.42581 33.8337 9.40511 31.8004L7.60372 30.9321ZM4.74036 37.1192C2.66359 41.7087 0.831886 46.4071 -0.747098 51.1949L1.1518 51.8216C2.70857 47.1012 4.51449 42.4689 6.56198 37.9442L4.74036 37.1192ZM-0.623171 52.0725C-0.14826 52.7679 0.5559 53.7989 1.14132 54.656C1.43403 55.0845 1.69707 55.4696 1.88692 55.7476C1.98185 55.8866 2.05848 55.9988 2.11138 56.0762C2.13783 56.1149 2.15835 56.145 2.17226 56.1653C2.17921 56.1755 2.18451 56.1833 2.18807 56.1885C2.18985 56.1911 2.19119 56.1931 2.1921 56.1944C2.19255 56.195 2.19289 56.1955 2.19311 56.1959C2.19323 56.196 2.19331 56.1962 2.19337 56.1962C2.1934 56.1963 2.19342 56.1963 2.19343 56.1963C2.19345 56.1964 2.19345 56.1964 3.01893 55.6321C3.8444 55.0678 3.84439 55.0677 3.84438 55.0677C3.84436 55.0677 3.84434 55.0677 3.84432 55.0676C3.84426 55.0675 3.84417 55.0674 3.84406 55.0673C3.84383 55.0669 3.84349 55.0664 3.84304 55.0658C3.84214 55.0644 3.8408 55.0625 3.83902 55.0599C3.83546 55.0547 3.83016 55.0469 3.8232 55.0367C3.8093 55.0164 3.78878 54.9863 3.76233 54.9476C3.70943 54.8702 3.6328 54.758 3.53788 54.619C3.34803 54.341 3.085 53.9559 2.79229 53.5274C2.20687 52.6703 1.50274 51.6394 1.02787 50.944L-0.623171 52.0725ZM3.45189 56.5336L17.4512 49.805L16.5852 48.0018L2.58596 54.7305L3.45189 56.5336ZM17.4512 49.805L23.2011 47.0414L22.3352 45.2382L16.5852 48.0018L17.4512 49.805ZM23.7643 46.2256L23.7661 46.2037L21.7739 46.0321L21.7721 46.054L23.7643 46.2256ZM22.2053 46.9433C33.8756 54.9342 48.0906 58.2522 62.007 56.2303L61.7196 54.2507C48.3033 56.1999 34.5935 53.0016 23.3347 45.2925L22.2053 46.9433ZM62.4983 54.4679C62.3801 54.3707 62.3165 54.3134 62.1711 54.1921L60.8908 55.7287C60.9653 55.7909 61.1295 55.9318 61.2283 56.013L62.4983 54.4679ZM62.1922 54.2102C52.0344 45.2498 43.383 34.7125 36.5757 23.01L34.8475 24.0161C41.7627 35.9042 50.5512 46.6084 60.8697 55.7106L62.1922 54.2102ZM36.5644 22.991C32.1999 15.8554 29.1533 8.00221 27.5714 -0.18953L25.6081 0.189936C27.2356 8.61748 30.3697 16.6957 34.8588 24.0351L36.5644 22.991ZM25.7942 -0.605643C25.0385 0.387484 24.2846 1.44734 23.536 2.53639L25.1837 3.66985C25.9212 2.59678 26.6555 1.56508 27.3852 0.606046L25.7942 -0.605643ZM23.5367 2.53541C23.4376 2.67925 23.2828 2.89616 23.1654 3.06925L24.8199 4.19262C24.9471 4.00518 25.0369 3.88274 25.183 3.67082L23.5367 2.53541Z" fill="white" mask="url(#path-1-inside-1_260_3660)"/>
</svg>
