<svg width="33" height="42" viewBox="0 0 33 42" fill="none" xmlns="http://www.w3.org/2000/svg">
<g clip-path="url(#clip0_265_3825)">
<path d="M3.10645 26.2074H8.38549L6.88731 23.6138L3.10645 26.2074Z" fill="#0D0F1B"/>
<path d="M26.7021 23.7012L25.2549 26.2065H30.5339L26.7021 23.7012Z" fill="#0D0F1B"/>
<path d="M21.7245 27.2783H4.18066V40.737H29.4628V27.2783H22.8192H21.7245Z" fill="#0D0F1B"/>
<path d="M9.5846 1.09033L2.34961 13.6151L7.77403 23.0055L9.5846 26.1399H11.611H22.1158H24.0546L25.8023 23.1144L31.2896 13.6151L24.0546 1.09033H9.5846Z" fill="#0D0F1B"/>
<path d="M8.96575 0.0200195L1.1123 13.6155L6.88774 23.6136L8.38591 26.2072H3.10688V41.8075H30.5316V26.2072H25.2526L26.6998 23.7019L32.5262 13.6155L24.6727 0.0200195H8.96575ZM29.4603 40.7367H4.17816V27.2779H29.4603V40.7367ZM24.0542 26.1403H9.58425L7.77365 23.0059L2.3493 13.6155L9.58425 1.09074H24.0542L31.2892 13.6155L25.8019 23.1149L24.0542 26.1403Z" fill="white"/>
<path d="M22.2207 19.1507C22.205 18.6525 22.1359 18.1574 22.0145 17.674C21.8344 16.964 21.4897 16.3063 21.0083 15.7543L20.8913 15.6177C20.8498 15.5731 20.8164 15.5258 20.7746 15.484C20.2988 14.9927 19.7452 14.5832 19.1363 14.272L18.8187 14.1187C18.8378 14.1187 18.8521 14.0881 18.8688 14.0741C19.392 13.7029 19.7895 13.181 20.0083 12.5779C20.0083 12.5779 20.0903 12.3021 20.1226 12.1879C20.2984 11.6209 20.316 11.0167 20.1735 10.4404C20.0311 9.86414 19.7339 9.33773 19.3142 8.91797H14.3098C14.0121 9.23313 13.7811 9.60519 13.6306 10.0118C13.5173 10.2783 13.4431 10.5599 13.4106 10.8477V10.87C13.3936 11.0179 13.389 11.167 13.3966 11.3158C13.3971 11.4313 13.4045 11.5466 13.4189 11.6613C13.4175 11.6761 13.4175 11.691 13.4189 11.7058C13.449 11.9914 13.5144 12.2722 13.6137 12.5417C13.6861 12.7257 13.7748 12.9028 13.8786 13.0711C14.0938 13.454 14.3882 13.7865 14.7424 14.0463C14.7689 14.072 14.7968 14.0962 14.826 14.1187L14.5056 14.272C12.5189 15.3029 11.4741 16.93 11.4181 19.1758C11.3958 20.1175 11.4181 21.0593 11.4181 22.0038C11.4181 22.4245 11.5936 22.6084 12.0116 22.6084H21.6384C22.0563 22.6084 22.2318 22.4245 22.2318 22.0038C22.2374 21.0509 22.2541 20.1008 22.2207 19.1507Z" fill="white"/>
<path d="M19.1645 6.69967L18.911 4.64699L17.6843 6.20699L16.8237 3.60303L15.9632 6.20699L14.7364 4.64699L14.483 6.69967L12.9014 5.67917L13.3441 7.06529L13.374 7.15903L13.7733 8.40911H19.8741L20.2734 7.15903L20.3034 7.06529L20.746 5.67917L19.1645 6.69967Z" fill="white"/>
</g>
<defs>
<clipPath id="clip0_265_3825">
<rect width="32.1384" height="41.8088" fill="white" transform="translate(0.749023 0.0185547)"/>
</clipPath>
</defs>
</svg>
