<svg width="26" height="26" viewBox="0 0 26 26" fill="none" xmlns="http://www.w3.org/2000/svg">
<circle cx="13.0001" cy="13.0001" r="11.6667" stroke="white" stroke-width="1.55556"/>
<path d="M11.3589 17.089H11.791V13.5778H11.3589C11.1202 13.5778 10.9268 13.3602 10.9268 13.0917V11.9306C10.9268 11.6621 11.1202 11.4445 11.3589 11.4445H13.7786C14.0173 11.4445 14.2107 11.6621 14.2107 11.9306V17.089H14.6428C14.8815 17.089 15.0749 17.3066 15.0749 17.5751V18.7362C15.0749 19.0046 14.8815 19.2223 14.6428 19.2223H11.3589C11.1202 19.2223 10.9268 19.0046 10.9268 18.7362V17.5751C10.9268 17.3066 11.1202 17.089 11.3589 17.089ZM13.0008 6.77783C12.1417 6.77783 11.4453 7.56132 11.4453 8.52783C11.4453 9.49434 12.1417 10.2778 13.0008 10.2778C13.86 10.2778 14.5564 9.49434 14.5564 8.52783C14.5564 7.56132 13.8599 6.77783 13.0008 6.77783Z" fill="white"/>
</svg>
