<svg width="71" height="70" viewBox="0 0 71 70" fill="none" xmlns="http://www.w3.org/2000/svg">
<path d="M65.5166 0.565101C53.0486 -0.0724531 40.5512 0.0855015 28.1 1.03803C25.4366 1.23234 22.7695 1.46966 20.1307 1.7425C14.268 2.31079 8.4386 3.18964 2.66704 4.37537C1.8105 6.15366 0.127471 9.64863 0.127471 9.64863L15.254 19.9427L21.4669 24.1709L21.4903 24.16C20.2607 40.4005 25.1865 56.4954 35.2821 69.2239C35.309 69.0615 35.3427 68.8878 35.3712 68.7224C38.5293 53.0377 44.204 37.9667 52.1737 24.0981C56.9358 15.3681 63.2295 7.57073 70.7511 1.08206C69.3176 0.897811 67.8122 0.752966 66.2715 0.629741C66.0178 0.609151 65.7726 0.584007 65.5166 0.565101Z" fill="#343849"/>
</svg>
