<svg width="236" height="387" viewBox="0 0 236 387" fill="none" xmlns="http://www.w3.org/2000/svg">
<path d="M238.877 36.3422C233.883 37.3867 228.961 38.7414 224.142 40.3984C223.11 40.7494 222.081 41.1172 221.067 41.4958C218.811 42.3223 216.6 43.2654 214.445 44.321C214.295 45.0968 214 46.6212 214 46.6212L221.067 49.0327L223.97 50.0231L223.978 50.0165C225.212 56.4186 228.862 62.1273 234.199 66C234.193 65.9343 234.188 65.8639 234.181 65.797C233.769 59.4099 234.415 52.9993 236.096 46.8157C237.054 42.9498 238.715 39.2857 241 36C240.414 36.077 239.804 36.1771 239.182 36.2888C239.08 36.3073 238.98 36.323 238.877 36.3422Z" fill="#343849"/>
<path d="M238.877 107.342C233.883 108.386 228.961 109.741 224.142 111.398C223.11 111.749 222.081 112.117 221.067 112.496C218.811 113.322 216.6 114.265 214.445 115.321C214.295 116.097 214 117.621 214 117.621L221.067 120.033L223.97 121.023L223.978 121.016C225.212 127.419 228.862 133.127 234.199 137C234.193 136.934 234.188 136.864 234.181 136.797C233.769 130.41 234.415 123.999 236.096 117.816C237.053 113.95 238.715 110.286 241 107C240.414 107.077 239.804 107.177 239.182 107.289C239.08 107.307 238.98 107.323 238.877 107.342Z" fill="#343849"/>
<path d="M238.877 178.342C233.883 179.386 228.961 180.741 224.142 182.398C223.11 182.749 222.081 183.117 221.067 183.496C218.811 184.322 216.6 185.265 214.445 186.321C214.295 187.097 214 188.621 214 188.621L221.067 191.033L223.97 192.023L223.978 192.016C225.212 198.419 228.862 204.127 234.199 208C234.193 207.934 234.188 207.864 234.181 207.797C233.769 201.41 234.415 194.999 236.096 188.816C237.053 184.95 238.715 181.286 241 178C240.414 178.077 239.804 178.177 239.182 178.289C239.08 178.307 238.98 178.323 238.877 178.342Z" fill="#343849"/>
<path d="M238.877 249.342C233.883 250.387 228.961 251.741 224.142 253.398C223.11 253.749 222.081 254.117 221.067 254.496C218.811 255.322 216.6 256.265 214.445 257.321C214.295 258.097 214 259.621 214 259.621L221.067 262.033L223.97 263.023L223.978 263.016C225.212 269.419 228.862 275.127 234.199 279C234.193 278.934 234.188 278.864 234.181 278.797C233.769 272.41 234.415 265.999 236.096 259.816C237.053 255.95 238.715 252.286 241 249C240.414 249.077 239.804 249.177 239.182 249.289C239.08 249.307 238.98 249.323 238.877 249.342Z" fill="#343849"/>
<path d="M238.877 321.342C233.883 322.387 228.961 323.741 224.142 325.399C223.11 325.749 222.081 326.117 221.067 326.496C218.811 327.322 216.6 328.265 214.445 329.321C214.295 330.097 214 331.621 214 331.621L221.067 334.033L223.97 335.023L223.978 335.017C225.212 341.419 228.862 347.127 234.199 351C234.193 350.934 234.188 350.864 234.181 350.797C233.769 344.41 234.415 337.999 236.096 331.816C237.053 327.95 238.715 324.286 241 321C240.414 321.077 239.804 321.177 239.182 321.289C239.08 321.307 238.98 321.323 238.877 321.342Z" fill="#343849"/>
<path d="M212.877 0.341944C207.883 1.3864 202.961 2.74126 198.142 4.39835C194.825 5.49344 191.585 6.80382 188.445 8.32083C188.295 9.0966 188 10.6212 188 10.6212L197.97 14.023L197.978 14.0164C198.041 14.3464 198.115 14.6736 198.192 15C199.598 21.0122 203.147 26.3326 208.199 30C208.193 29.9345 208.188 29.8639 208.181 29.797C207.845 24.8451 208.164 19.8714 209.131 15C209.399 13.5998 209.717 12.1961 210.096 10.8158C211.053 6.94987 212.715 3.28567 215 0C214.414 0.0770069 213.804 0.17695 213.182 0.288814C213.08 0.307304 212.98 0.322749 212.877 0.341944Z" fill="#343849"/>
<path d="M212.877 71.3422C207.883 72.3864 202.961 73.7412 198.142 75.3983C194.825 76.4936 191.585 77.8041 188.445 79.3211C188.295 80.0968 188 81.6212 188 81.6212L197.97 85.0232L197.978 85.0164C198.041 85.3464 198.115 85.6736 198.192 86.0002C199.598 92.0124 203.147 97.3327 208.199 101C208.193 100.934 208.188 100.864 208.181 100.797C207.845 95.8452 208.164 90.8715 209.131 86.0002C209.399 84.6001 209.717 83.1964 210.096 81.8158C211.053 77.9499 212.715 74.2857 215 71C214.414 71.077 213.804 71.177 213.182 71.2888C213.08 71.3073 212.98 71.3229 212.877 71.3422Z" fill="#343849"/>
<path d="M185.877 36.3422C180.883 37.3866 175.961 38.7414 171.142 40.3983C170.11 40.7494 169.081 41.1172 168.067 41.4958C165.811 42.3223 163.6 43.2654 161.445 44.321C161.295 45.0968 161 46.6211 161 46.6211L168.067 49.0327L170.97 50.0231L170.978 50.0165C172.212 56.4186 175.862 62.1272 181.199 66C181.193 65.9343 181.188 65.8639 181.181 65.797C180.769 59.4099 181.415 52.9993 183.096 46.8158C184.054 42.9498 185.715 39.2857 188 36C187.414 36.077 186.804 36.1771 186.182 36.2888C186.08 36.3073 185.98 36.323 185.877 36.3422Z" fill="#343849"/>
<path d="M212.877 143.342C207.883 144.387 202.961 145.741 198.142 147.398C194.825 148.494 191.585 149.804 188.445 151.321C188.295 152.097 188 153.621 188 153.621L197.97 157.023L197.978 157.016C198.041 157.346 198.115 157.674 198.192 158C199.598 164.012 203.147 169.333 208.199 173C208.193 172.934 208.188 172.864 208.181 172.797C207.845 167.845 208.164 162.871 209.131 158C209.399 156.6 209.717 155.196 210.096 153.816C211.054 149.95 212.715 146.286 215 143C214.414 143.077 213.804 143.177 213.182 143.289C213.08 143.307 212.98 143.323 212.877 143.342Z" fill="#343849"/>
<path d="M185.877 107.342C180.883 108.386 175.961 109.741 171.142 111.398C170.11 111.749 169.081 112.117 168.067 112.496C165.811 113.322 163.6 114.265 161.445 115.321L161 117.621L168.067 120.033L170.97 121.023L170.978 121.016C172.212 127.419 175.862 133.127 181.199 137C181.193 136.934 181.188 136.864 181.181 136.797C180.769 130.41 181.415 123.999 183.096 117.816C184.053 113.95 185.715 110.286 188 107C187.414 107.077 186.804 107.177 186.182 107.289C186.08 107.307 185.98 107.323 185.877 107.342Z" fill="#343849"/>
<path d="M212.877 214.342C207.883 215.387 202.961 216.742 198.142 218.399C194.825 219.494 191.585 220.804 188.445 222.321C188.295 223.097 188 224.621 188 224.621L197.97 228.023L197.978 228.017C198.041 228.347 198.115 228.674 198.192 229C199.598 235.012 203.147 240.333 208.199 244C208.193 243.934 208.188 243.864 208.181 243.797C207.845 238.845 208.164 233.871 209.131 229C209.399 227.6 209.717 226.196 210.096 224.816C211.054 220.95 212.715 217.286 215 214C214.414 214.077 213.804 214.177 213.182 214.289C213.08 214.308 212.98 214.323 212.877 214.342Z" fill="#343849"/>
<path d="M185.877 178.342C180.883 179.386 175.961 180.741 171.142 182.398C170.11 182.749 169.081 183.117 168.067 183.496C165.811 184.322 163.6 185.265 161.445 186.321C161.295 187.097 161 188.621 161 188.621L168.067 191.033L170.97 192.023L170.978 192.016C172.212 198.419 175.862 204.127 181.199 208C181.193 207.934 181.188 207.864 181.181 207.797C180.769 201.41 181.415 194.999 183.096 188.816C184.053 184.95 185.715 181.286 188 178C187.414 178.077 186.804 178.177 186.182 178.289C186.08 178.307 185.98 178.323 185.877 178.342Z" fill="#343849"/>
<path d="M212.877 285.342C207.883 286.386 202.961 287.741 198.142 289.398C194.825 290.494 191.585 291.804 188.445 293.321C188.295 294.097 188 295.621 188 295.621L197.97 299.023L197.978 299.016C198.041 299.346 198.115 299.674 198.192 300C199.598 306.012 203.147 311.333 208.199 315C208.193 314.934 208.188 314.864 208.181 314.797C207.845 309.845 208.164 304.872 209.131 300C209.399 298.6 209.717 297.196 210.096 295.816C211.053 291.95 212.715 288.286 215 285C214.414 285.077 213.804 285.177 213.182 285.289C213.08 285.307 212.98 285.323 212.877 285.342Z" fill="#343849"/>
<path d="M185.877 249.342C180.883 250.387 175.961 251.741 171.142 253.398C170.11 253.749 169.081 254.117 168.067 254.496C165.811 255.322 163.6 256.265 161.445 257.321C161.295 258.097 161 259.621 161 259.621L168.067 262.033L170.97 263.023L170.978 263.016C172.212 269.419 175.862 275.127 181.199 279C181.193 278.934 181.188 278.864 181.181 278.797C180.769 272.41 181.415 265.999 183.096 259.816C184.054 255.95 185.715 252.286 188 249C187.414 249.077 186.804 249.177 186.182 249.289C186.08 249.307 185.98 249.323 185.877 249.342Z" fill="#343849"/>
<path d="M185.877 321.342C180.883 322.387 175.961 323.741 171.142 325.399C170.11 325.749 169.081 326.117 168.067 326.496C165.811 327.322 163.6 328.265 161.445 329.321L161 331.621L168.067 334.033L170.97 335.023L170.978 335.017C172.212 341.419 175.862 347.127 181.199 351C181.193 350.934 181.188 350.864 181.181 350.797C180.769 344.41 181.415 337.999 183.096 331.816C184.054 327.95 185.715 324.286 188 321C187.414 321.077 186.804 321.177 186.182 321.289C186.08 321.307 185.98 321.323 185.877 321.342Z" fill="#343849"/>
<path d="M158.877 0.341944C153.883 1.3864 148.961 2.74126 144.142 4.39835C140.825 5.49345 137.585 6.80383 134.445 8.32083L134 10.6212L143.97 14.023L143.978 14.0164C144.041 14.3464 144.115 14.6736 144.192 15C145.598 21.0122 149.147 26.3326 154.199 30C154.193 29.9345 154.188 29.8639 154.181 29.797C153.845 24.8451 154.164 19.8714 155.131 15C155.399 13.5998 155.717 12.1961 156.096 10.8158C157.053 6.94985 158.715 3.28564 161 0C160.414 0.0770069 159.804 0.17695 159.182 0.288814C159.08 0.307304 158.98 0.322749 158.877 0.341944Z" fill="#343849"/>
<path d="M158.877 71.3422C153.883 72.3864 148.961 73.7412 144.142 75.3983C140.825 76.4936 137.585 77.8041 134.445 79.3211C134.295 80.0968 134 81.6212 134 81.6212L143.97 85.0232L143.978 85.0164C144.041 85.3464 144.115 85.6736 144.192 86.0002C145.598 92.0124 149.147 97.3327 154.199 101C154.193 100.934 154.188 100.864 154.181 100.797C153.845 95.8452 154.164 90.8715 155.131 86.0002C155.399 84.6001 155.717 83.1964 156.096 81.8158C157.053 77.9498 158.715 74.2856 161 71C160.414 71.077 159.804 71.177 159.182 71.2888C159.08 71.3073 158.98 71.3229 158.877 71.3422Z" fill="#343849"/>
<path d="M131.877 36.3422C126.883 37.3866 121.961 38.7414 117.142 40.3983C116.11 40.7494 115.081 41.1172 114.067 41.4958C111.811 42.3223 109.6 43.2654 107.445 44.321C107.295 45.0968 107 46.6211 107 46.6211L114.067 49.0327L116.97 50.0231L116.978 50.0165C118.212 56.4186 121.862 62.1273 127.199 66C127.193 65.9343 127.188 65.8639 127.181 65.797C126.769 59.4099 127.415 52.9993 129.096 46.8158C130.054 42.9498 131.715 39.2857 134 36C133.414 36.077 132.804 36.1771 132.182 36.2888C132.08 36.3073 131.98 36.323 131.877 36.3422Z" fill="#343849"/>
<path d="M158.877 143.342C153.883 144.387 148.961 145.741 144.142 147.398C140.825 148.494 137.585 149.804 134.445 151.321C134.295 152.097 134 153.621 134 153.621L143.97 157.023L143.978 157.016C144.041 157.346 144.115 157.674 144.192 158C145.598 164.012 149.147 169.333 154.199 173C154.193 172.934 154.188 172.864 154.181 172.797C153.845 167.845 154.164 162.871 155.131 158C155.399 156.6 155.717 155.196 156.096 153.816C157.054 149.95 158.715 146.286 161 143C160.414 143.077 159.804 143.177 159.182 143.289C159.08 143.307 158.98 143.323 158.877 143.342Z" fill="#343849"/>
<path d="M131.877 107.342C126.883 108.386 121.961 109.741 117.142 111.398C116.11 111.749 115.081 112.117 114.067 112.496C111.811 113.322 109.6 114.265 107.445 115.321L107 117.621L114.067 120.033L116.97 121.023L116.978 121.016C118.212 127.419 121.862 133.127 127.199 137C127.193 136.934 127.188 136.864 127.181 136.797C126.769 130.41 127.415 123.999 129.096 117.816C130.053 113.95 131.715 110.286 134 107C133.414 107.077 132.804 107.177 132.182 107.289C132.08 107.307 131.98 107.323 131.877 107.342Z" fill="#343849"/>
<path d="M158.877 214.342C153.883 215.387 148.961 216.742 144.142 218.399C140.825 219.494 137.585 220.804 134.445 222.321L134 224.621L143.97 228.023L143.978 228.017C144.041 228.347 144.115 228.674 144.192 229C145.598 235.012 149.147 240.333 154.199 244C154.193 243.934 154.188 243.864 154.181 243.797C153.845 238.845 154.164 233.871 155.131 229C155.399 227.6 155.717 226.196 156.096 224.816C157.053 220.95 158.715 217.286 161 214C160.414 214.077 159.804 214.177 159.182 214.289C159.08 214.308 158.98 214.323 158.877 214.342Z" fill="#343849"/>
<path d="M131.877 178.342C126.883 179.386 121.961 180.741 117.142 182.398C116.11 182.749 115.081 183.117 114.067 183.496C111.811 184.322 109.6 185.265 107.445 186.321C107.295 187.097 107 188.621 107 188.621L114.067 191.033L116.97 192.023L116.978 192.016C118.212 198.419 121.862 204.127 127.199 208C127.193 207.934 127.188 207.864 127.181 207.797C126.769 201.41 127.415 194.999 129.096 188.816C130.053 184.95 131.715 181.286 134 178C133.414 178.077 132.804 178.177 132.182 178.289C132.08 178.307 131.98 178.323 131.877 178.342Z" fill="#343849"/>
<path d="M158.877 285.342C153.883 286.386 148.961 287.741 144.142 289.398C140.825 290.494 137.585 291.804 134.445 293.321C134.295 294.097 134 295.621 134 295.621L143.97 299.023L143.978 299.016C144.041 299.346 144.115 299.674 144.192 300C145.598 306.012 149.147 311.333 154.199 315C154.193 314.934 154.188 314.864 154.181 314.797C153.845 309.845 154.164 304.872 155.131 300C155.399 298.6 155.717 297.196 156.096 295.816C157.053 291.95 158.715 288.286 161 285C160.414 285.077 159.804 285.177 159.182 285.289C159.08 285.307 158.98 285.323 158.877 285.342Z" fill="#343849"/>
<path d="M131.877 249.342C126.883 250.387 121.961 251.741 117.142 253.398C116.11 253.749 115.081 254.117 114.067 254.496C111.811 255.322 109.6 256.265 107.445 257.321C107.295 258.097 107 259.621 107 259.621L114.067 262.033L116.97 263.023L116.978 263.016C118.212 269.419 121.862 275.127 127.199 279C127.193 278.934 127.188 278.864 127.181 278.797C126.769 272.41 127.415 265.999 129.096 259.816C130.054 255.95 131.715 252.286 134 249C133.414 249.077 132.804 249.177 132.182 249.289C132.08 249.307 131.98 249.323 131.877 249.342Z" fill="#343849"/>
<path d="M131.877 321.342C126.883 322.387 121.961 323.741 117.142 325.399C116.11 325.749 115.081 326.117 114.067 326.496C111.811 327.322 109.6 328.265 107.445 329.321L107 331.621L114.067 334.033L116.97 335.023L116.978 335.017C118.212 341.419 121.862 347.127 127.199 351C127.193 350.934 127.188 350.864 127.181 350.797C126.769 344.41 127.415 337.999 129.096 331.816C130.053 327.95 131.715 324.286 134 321C133.414 321.077 132.804 321.177 132.182 321.289C132.08 321.307 131.98 321.323 131.877 321.342Z" fill="#343849"/>
<path d="M104.877 0.341944C99.8826 1.3864 94.9609 2.74126 90.1416 4.39835C86.8245 5.49346 83.5852 6.80385 80.4451 8.32084L80 10.6212L89.9699 14.023L89.978 14.0164C90.0414 14.3464 90.1154 14.6736 90.1917 15C91.5977 21.0122 95.1473 26.3326 100.199 30C100.193 29.9345 100.188 29.8639 100.181 29.797C99.8454 24.8451 100.164 19.8714 101.131 15C101.399 13.5998 101.717 12.1961 102.096 10.8158C103.053 6.94985 104.715 3.28564 107 0C106.414 0.0770068 105.804 0.17695 105.182 0.288814C105.08 0.307304 104.98 0.322749 104.877 0.341944Z" fill="#343849"/>
<path d="M104.877 71.3422C99.8825 72.3864 94.9609 73.7412 90.1416 75.3983C86.8245 76.4936 83.5852 77.8041 80.4451 79.3211C80.295 80.0968 80 81.6212 80 81.6212L89.9699 85.0232L89.978 85.0164C90.0414 85.3464 90.1153 85.6736 90.1917 86.0002C91.5976 92.0124 95.1472 97.3327 100.199 101C100.193 100.934 100.188 100.864 100.181 100.797C99.8454 95.8452 100.164 90.8715 101.131 86.0002C101.399 84.6001 101.717 83.1964 102.096 81.8158C103.053 77.9498 104.715 74.2856 107 71C106.414 71.077 105.804 71.177 105.182 71.2888C105.08 71.3073 104.98 71.3229 104.877 71.3422Z" fill="#343849"/>
<path d="M78.8768 36.3422C73.8826 37.3867 68.961 38.7414 64.1416 40.3984C63.1098 40.7494 62.081 41.1172 61.0672 41.4958C58.8106 42.3223 56.6002 43.2654 54.4451 44.321C54.2949 45.0968 54 46.6212 54 46.6212L61.0672 49.0327L63.9699 50.0231L63.978 50.0165C65.2117 56.4187 68.8623 62.1273 74.1993 66C74.1927 65.9343 74.1876 65.8639 74.1814 65.797C73.7686 59.4099 74.4152 52.9993 76.096 46.8158C77.0535 42.9498 78.7149 39.2857 81 36C80.414 36.077 79.8039 36.1771 79.182 36.2888C79.0796 36.3073 78.98 36.323 78.8768 36.3422Z" fill="#343849"/>
<path d="M104.877 143.342C99.8826 144.387 94.9609 145.741 90.1416 147.398C86.8245 148.494 83.5852 149.804 80.4451 151.321C80.295 152.097 80 153.621 80 153.621L89.9699 157.023L89.978 157.016C90.0414 157.346 90.1153 157.674 90.1917 158C91.5977 164.012 95.1473 169.333 100.199 173C100.193 172.934 100.188 172.864 100.181 172.797C99.8454 167.845 100.164 162.871 101.131 158C101.399 156.6 101.717 155.196 102.096 153.816C103.054 149.95 104.715 146.286 107 143C106.414 143.077 105.804 143.177 105.182 143.289C105.08 143.307 104.98 143.323 104.877 143.342Z" fill="#343849"/>
<path d="M78.8768 107.342C73.8826 108.386 68.9609 109.741 64.1416 111.398C63.1098 111.749 62.081 112.117 61.0672 112.496C58.8106 113.322 56.6002 114.265 54.4451 115.321C54.2949 116.097 54 117.621 54 117.621L61.0672 120.033L63.9699 121.023L63.978 121.016C65.2117 127.419 68.8623 133.127 74.1993 137C74.1927 136.934 74.1876 136.864 74.1814 136.797C73.7686 130.41 74.4152 123.999 76.096 117.816C77.0534 113.95 78.7148 110.286 81 107C80.414 107.077 79.8039 107.177 79.182 107.289C79.0796 107.307 78.98 107.323 78.8768 107.342Z" fill="#343849"/>
<path d="M104.877 214.342C99.8825 215.387 94.9609 216.742 90.1416 218.399C86.8245 219.494 83.5852 220.804 80.4451 222.321L80 224.621L89.9699 228.023L89.978 228.017C90.0414 228.347 90.1153 228.674 90.1917 229C91.5976 235.012 95.1472 240.333 100.199 244C100.193 243.934 100.188 243.864 100.181 243.797C99.8454 238.845 100.164 233.871 101.131 229C101.399 227.6 101.717 226.196 102.096 224.816C103.053 220.95 104.715 217.286 107 214C106.414 214.077 105.804 214.177 105.182 214.289C105.08 214.308 104.98 214.323 104.877 214.342Z" fill="#343849"/>
<path d="M78.8768 178.342C73.8825 179.386 68.9609 180.741 64.1416 182.398C63.1098 182.749 62.081 183.117 61.0672 183.496C58.8106 184.322 56.6002 185.265 54.4451 186.321C54.2949 187.097 54 188.621 54 188.621L61.0672 191.033L63.9699 192.023L63.978 192.016C65.2117 198.419 68.8623 204.127 74.1993 208C74.1927 207.934 74.1876 207.864 74.1814 207.797C73.7686 201.41 74.4152 194.999 76.096 188.816C77.0534 184.95 78.7148 181.286 81 178C80.414 178.077 79.8039 178.177 79.182 178.289C79.0796 178.307 78.98 178.323 78.8768 178.342Z" fill="#343849"/>
<path d="M104.877 285.342C99.8825 286.386 94.9609 287.741 90.1416 289.398C86.8245 290.494 83.5852 291.804 80.4451 293.321C80.295 294.097 80 295.621 80 295.621L89.9699 299.023L89.978 299.016C90.0414 299.346 90.1154 299.674 90.1917 300C91.5977 306.012 95.1473 311.333 100.199 315C100.193 314.934 100.188 314.864 100.181 314.797C99.8454 309.845 100.164 304.872 101.131 300C101.399 298.6 101.717 297.196 102.096 295.816C103.053 291.95 104.715 288.286 107 285C106.414 285.077 105.804 285.177 105.182 285.289C105.08 285.307 104.98 285.323 104.877 285.342Z" fill="#343849"/>
<path d="M78.8768 249.342C73.8826 250.387 68.961 251.741 64.1416 253.398C63.1098 253.749 62.081 254.117 61.0672 254.496C58.8106 255.322 56.6002 256.265 54.4451 257.321C54.2949 258.097 54 259.621 54 259.621L61.0672 262.033L63.9699 263.023L63.978 263.016C65.2116 269.419 68.8622 275.127 74.1993 279C74.1927 278.934 74.1876 278.864 74.1814 278.797C73.7686 272.41 74.4152 265.999 76.096 259.816C77.0535 255.95 78.7149 252.286 81 249C80.414 249.077 79.8039 249.177 79.182 249.289C79.0796 249.307 78.98 249.323 78.8768 249.342Z" fill="#343849"/>
<path d="M78.8768 321.342C73.8826 322.387 68.9609 323.742 64.1416 325.399C63.1098 325.749 62.081 326.117 61.0672 326.496C58.8106 327.322 56.6002 328.265 54.4451 329.321C54.2949 330.097 54 331.621 54 331.621L61.0672 334.033L63.9699 335.023L63.978 335.017C65.2117 341.419 68.8623 347.127 74.1993 351C74.1927 350.934 74.1876 350.864 74.1814 350.797C73.7686 344.41 74.4152 337.999 76.096 331.816C77.0535 327.95 78.7148 324.286 81 321C80.414 321.077 79.8039 321.177 79.182 321.289C79.0796 321.307 78.98 321.323 78.8768 321.342Z" fill="#343849"/>
<path d="M51.8769 0.341989C46.8826 1.38644 41.961 2.7413 37.1417 4.39838C33.8246 5.49349 30.5852 6.80387 27.4452 8.32088C27.295 9.09664 27 10.6212 27 10.6212L36.9699 14.023L36.978 14.0164C37.0415 14.3465 37.1154 14.6737 37.1918 15C38.5977 21.0122 42.1472 26.3326 47.1993 30C47.1927 29.9345 47.1876 29.8639 47.1814 29.797C46.8454 24.8451 47.1644 19.8714 48.1305 15C48.3987 13.5999 48.7174 12.1962 49.0961 10.8159C50.0535 6.94988 51.7148 3.28566 54 0C53.414 0.0770067 52.8039 0.17695 52.182 0.288814C52.0796 0.307349 51.98 0.322794 51.8769 0.341989Z" fill="#343849"/>
<path d="M51.8768 71.3422C46.8825 72.3864 41.9609 73.7412 37.1417 75.3983C33.8246 76.4936 30.5853 77.8041 27.4452 79.3211C27.295 80.0968 27 81.6212 27 81.6212L36.9699 85.0232L36.978 85.0164C37.0414 85.3464 37.1154 85.6736 37.1917 86.0002C38.5976 92.0124 42.1472 97.3327 47.1992 101C47.1926 100.934 47.1876 100.864 47.1814 100.797C46.8454 95.8452 47.1644 90.8715 48.1305 86.0002C48.3986 84.6001 48.7173 83.1964 49.0961 81.8158C50.0534 77.9499 51.7148 74.2857 54 71C53.414 71.077 52.8039 71.177 52.182 71.2888C52.0796 71.3073 51.98 71.3229 51.8768 71.3422Z" fill="#343849"/>
<path d="M24.8769 36.3422C19.8826 37.3867 14.961 38.7414 10.1417 40.3984C9.10983 40.7494 8.08106 41.1172 7.06722 41.4958C4.81071 42.3223 2.60028 43.2654 0.445187 44.321C0.295012 45.0968 0 46.6211 0 46.6211L7.06722 49.0327L9.96993 50.0231L9.97802 50.0165C11.2117 56.4186 14.8623 62.1273 20.1993 66C20.1927 65.9343 20.1876 65.8639 20.1814 65.797C19.7686 59.4099 20.4152 52.9993 22.096 46.8158C23.0535 42.9498 24.7149 39.2857 27 36C26.414 36.077 25.8038 36.1771 25.182 36.2888C25.0796 36.3073 24.98 36.323 24.8769 36.3422Z" fill="#343849"/>
<path d="M51.8768 143.342C46.8826 144.387 41.961 145.741 37.1417 147.398C33.8246 148.494 30.5853 149.804 27.4452 151.321C27.295 152.097 27 153.621 27 153.621L36.9699 157.023L36.978 157.016C37.0414 157.346 37.1154 157.674 37.1917 158C38.5977 164.012 42.1472 169.333 47.1992 173C47.1926 172.934 47.1876 172.864 47.1814 172.797C46.8454 167.845 47.1644 162.871 48.1305 158C48.3986 156.6 48.7173 155.196 49.0961 153.816C50.0535 149.95 51.7149 146.286 54 143C53.414 143.077 52.8039 143.177 52.182 143.289C52.0796 143.307 51.98 143.323 51.8768 143.342Z" fill="#343849"/>
<path d="M24.8769 107.342C19.8826 108.386 14.961 109.741 10.1417 111.398C9.10983 111.749 8.08106 112.117 7.06722 112.496C4.81071 113.322 2.60028 114.265 0.445187 115.321C0.295012 116.097 0 117.621 0 117.621L7.06722 120.033L9.96993 121.023L9.97802 121.016C11.2117 127.419 14.8623 133.127 20.1993 137C20.1927 136.934 20.1876 136.864 20.1814 136.797C19.7686 130.41 20.4152 123.999 22.096 117.816C23.0534 113.95 24.7148 110.286 27 107C26.414 107.077 25.8038 107.177 25.182 107.289C25.0796 107.307 24.98 107.323 24.8769 107.342Z" fill="#343849"/>
<path d="M51.8768 214.342C46.8826 215.387 41.9609 216.742 37.1417 218.399C33.8245 219.494 30.5852 220.804 27.4452 222.321C27.295 223.097 27 224.621 27 224.621L36.9699 228.023L36.978 228.017C37.0414 228.347 37.1154 228.674 37.1917 229C38.5976 235.012 42.1472 240.333 47.1992 244C47.1926 243.934 47.1876 243.864 47.1814 243.797C46.8454 238.845 47.1644 233.871 48.1305 229C48.3986 227.6 48.7173 226.196 49.0961 224.816C50.0535 220.95 51.7148 217.286 54 214C53.414 214.077 52.8039 214.177 52.182 214.289C52.0796 214.308 51.98 214.323 51.8768 214.342Z" fill="#343849"/>
<path d="M24.8768 178.342C19.8826 179.386 14.9609 180.741 10.1417 182.398C9.10982 182.749 8.08105 183.117 7.06721 183.496C4.81066 184.322 2.60023 185.265 0.445178 186.321C0.295003 187.097 0 188.621 0 188.621L7.06722 191.033L9.96993 192.023L9.97802 192.016C11.2117 198.419 14.8623 204.127 20.1993 208C20.1927 207.934 20.1876 207.864 20.1814 207.797C19.7686 201.41 20.4153 194.999 22.096 188.816C23.0534 184.95 24.7148 181.286 27 178C26.414 178.077 25.8038 178.177 25.182 178.289C25.0795 178.307 24.98 178.323 24.8768 178.342Z" fill="#343849"/>
<path d="M51.8768 285.342C46.8825 286.386 41.9609 287.741 37.1417 289.398C33.8246 290.494 30.5853 291.804 27.4452 293.321C27.295 294.097 27 295.621 27 295.621L36.9699 299.023L36.978 299.016C37.0414 299.346 37.1154 299.674 37.1918 300C38.5977 306.012 42.1472 311.333 47.1992 315C47.1926 314.934 47.1876 314.864 47.1814 314.797C46.8454 309.845 47.1644 304.872 48.1305 300C48.3986 298.6 48.7173 297.196 49.0961 295.816C50.0534 291.95 51.7148 288.286 54 285C53.414 285.077 52.8039 285.177 52.182 285.289C52.0796 285.307 51.98 285.323 51.8768 285.342Z" fill="#343849"/>
<path d="M24.8768 249.342C19.8826 250.387 14.961 251.741 10.1417 253.398C9.10982 253.749 8.08105 254.117 7.06721 254.496C4.8107 255.322 2.60027 256.265 0.445178 257.321C0.295003 258.097 0 259.621 0 259.621L7.06722 262.033L9.96993 263.023L9.97802 263.016C11.2116 269.419 14.8622 275.127 20.1993 279C20.1927 278.934 20.1876 278.864 20.1814 278.797C19.7686 272.41 20.4152 265.999 22.096 259.816C23.0535 255.95 24.7149 252.286 27 249C26.414 249.077 25.8038 249.177 25.182 249.289C25.0795 249.307 24.98 249.323 24.8768 249.342Z" fill="#343849"/>
<path d="M24.8768 321.342C19.8826 322.387 14.961 323.741 10.1417 325.399C9.10982 325.749 8.08105 326.117 7.06721 326.496C4.8107 327.322 2.60027 328.265 0.445178 329.321C0.295003 330.097 0 331.621 0 331.621L7.06722 334.033L9.96993 335.023L9.97802 335.017C11.2117 341.419 14.8623 347.127 20.1993 351C20.1927 350.934 20.1876 350.864 20.1814 350.797C19.7686 344.41 20.4152 337.999 22.096 331.816C23.0535 327.95 24.7148 324.286 27 321C26.414 321.077 25.8038 321.177 25.182 321.289C25.0795 321.307 24.98 321.323 24.8768 321.342Z" fill="#343849"/>
<rect width="375" height="356" fill="url(#paint0_radial_122_2081)"/>
<defs>
<radialGradient id="paint0_radial_122_2081" cx="0" cy="0" r="1" gradientUnits="userSpaceOnUse" gradientTransform="translate(187.5 178) rotate(90) scale(178 187.5)">
<stop offset="0.703125" stop-color="#222432" stop-opacity="0"/>
<stop offset="1" stop-color="#222432"/>
</radialGradient>
</defs>
</svg>
