<svg width="90" height="82" viewBox="0 0 90 82" fill="none" xmlns="http://www.w3.org/2000/svg">
<path d="M54.8215 76.6684C63.2839 63.6815 70.9171 50.1776 77.6749 36.2382C79.1304 33.2623 80.5425 30.2562 81.8991 27.2587C84.9534 20.6222 87.656 13.8319 89.9955 6.9164C88.6355 4.91219 85.9624 0.973621 85.9624 0.973621L65.5516 10.9192L57.1682 15.0041L57.1652 15.0359C40.6291 3.80512 20.4055 -0.73302 0.541557 2.32957C0.697805 2.45751 0.861782 2.59972 1.0202 2.73126C15.7604 15.6917 28.2756 30.9775 38.0771 47.9915C44.4059 58.4284 48.785 69.9391 51.0031 81.9686C52.0943 80.5431 53.1883 79.0165 54.2814 77.4387C54.4617 77.1791 54.6416 76.9314 54.8215 76.6684Z" fill="#343849"/>
</svg>
