<svg width="70" height="74" viewBox="0 0 70 74" fill="none" xmlns="http://www.w3.org/2000/svg">
<path d="M42.0974 3.34687C32.8295 11.7097 24.1036 20.6558 15.9723 30.1312C14.2263 32.1513 12.5081 34.2044 10.835 36.2627C7.09105 40.8089 3.59037 45.5511 0.347627 50.4694C0.999725 52.3323 2.28158 55.9931 2.28158 55.9931L20.2596 52.5786L27.6438 51.1762L27.6526 51.152C38.2701 63.5041 53.1376 71.4019 69.2798 73.265C69.184 73.1312 69.085 72.9846 68.9882 72.8474C60.1274 59.5251 53.4805 44.8577 49.3069 29.4181C46.4997 19.8792 45.4352 9.91701 46.1647 0.0121086C45.0206 0.895209 43.8536 1.85694 42.6769 2.85897C42.4829 3.02375 42.2918 3.17929 42.0974 3.34687Z" fill="#343849"/>
</svg>
