<svg width="51" height="50" viewBox="0 0 51 50" fill="none" xmlns="http://www.w3.org/2000/svg">
<path d="M4.32788 49.2081C13.2029 49.6759 22.0978 49.5813 30.9588 48.9248C32.8541 48.791 34.7521 48.6269 36.6299 48.4376C40.802 48.0438 44.9499 47.4304 49.0562 46.5999C49.6634 45.3437 50.8566 42.875 50.8566 42.875L40.0762 35.5761L35.6483 32.5782L35.6317 32.5858C36.4847 21.105 32.9568 9.71866 25.7539 0.705424C25.7349 0.820209 25.7112 0.94296 25.6911 1.05986C23.4647 12.1452 19.4462 22.7931 13.7927 32.5878C10.4151 38.7536 5.94622 44.2581 0.601487 48.8355C1.62207 48.9677 2.69372 49.0722 3.79051 49.1614C3.97112 49.1763 4.14567 49.1944 4.32788 49.2081Z" fill="#343849"/>
</svg>
