<svg width="41" height="42" viewBox="0 0 41 42" fill="none" xmlns="http://www.w3.org/2000/svg">
<path d="M38.0491 2.44795C38.7593 5.77814 39.2898 9.14084 39.6384 12.522C39.8053 14.0438 39.9515 15.5819 40.0725 17.1177C40.6638 24.2978 40.7897 31.5024 40.4494 38.6879C40.4434 38.7728 40.4362 38.8556 40.429 38.9385C40.4236 38.9996 40.4183 39.0608 40.4135 39.1229C40.3635 39.7752 40.3065 40.4164 40.2386 41.0382L0.79207 21.2028C0.969346 21.0682 1.14773 20.9353 1.3272 20.804M38.0491 2.44795L34.9523 0.969957M38.0491 2.44795L37.8336 2.89915L37.611 2.79293M38.0491 2.44795L37.56 2.55232C37.5771 2.6325 37.5941 2.71271 37.611 2.79293M34.9523 0.969957L28.9606 9.66225M34.9523 0.969957L35.364 1.25363L35.1219 1.60492M34.9523 0.969957L34.7369 1.42119L34.7369 1.42122L34.7372 1.42135L34.7383 1.42189L34.7428 1.424L34.7602 1.4323L34.8271 1.46424L35.0739 1.58201L35.1219 1.60492M28.9606 9.66225L26.508 13.2201L26.5074 13.2287L26.9511 13.0176L26.9575 13.0311L27.0752 13.2783M28.9606 9.66225L29.3723 9.94592L35.1219 1.60492M28.9606 9.66225L29.3723 9.94593L27.0752 13.2783M27.0752 13.2783L26.9113 13.5161L26.5138 13.2422L26.5067 13.2373L26.506 13.2459L26.0545 13.4608L26.048 13.4473L25.9327 13.2049C16.8356 12.6219 7.86617 15.2725 0.671373 20.6676C0.890186 20.7123 1.10879 20.7577 1.3272 20.804M27.0752 13.2783L27.3293 13.8125L26.4665 13.7444C17.4428 13.0314 8.51435 15.5489 1.3272 20.804M1.3272 20.804C10.2904 22.7039 18.9095 25.9743 26.8666 30.4963C31.7143 33.1139 36.0825 36.5107 39.7878 40.5411C39.8352 40.0655 39.877 39.5789 39.9149 39.0848L39.915 39.0842C39.9207 39.0106 39.9262 38.9476 39.9315 38.8871C39.9381 38.8121 39.9443 38.7411 39.9502 38.6585C40.2891 31.4966 40.1635 24.3155 39.5741 17.1589L39.574 17.1571C39.4534 15.6266 39.3077 14.0936 39.1414 12.5766L39.141 12.5733L39.141 12.5733C38.8026 9.29146 38.2919 6.02699 37.611 2.79293M37.611 2.79293L35.8936 1.97323L35.1219 1.60492" stroke="white"/>
</svg>
