<svg width="430" height="408" viewBox="0 0 430 408" fill="none" xmlns="http://www.w3.org/2000/svg">
<path d="M410.456 16.3524C410.529 16.7375 410.614 17.1193 410.702 17.5C412.316 24.5143 416.391 30.7214 422.192 35C422.184 34.9235 422.178 34.8412 422.171 34.7632C421.785 28.986 422.152 23.1833 423.261 17.5C423.569 15.8665 423.935 14.2288 424.37 12.6185C425.469 8.10816 427.376 3.83325 430 0C429.327 0.0898413 428.627 0.206442 427.913 0.33695C427.795 0.358574 427.681 0.376593 427.562 0.398988C421.828 1.6175 416.177 3.19815 410.644 5.1314C406.836 6.40902 403.116 7.9378 399.511 9.70764L399 12.3914L410.447 16.3601L410.456 16.3524Z" fill="#343849"/>
<path d="M427.562 82.3992C421.828 83.6175 416.177 85.1981 410.644 87.1314C406.836 88.4092 403.116 89.9381 399.511 91.7079C399.339 92.613 399 94.3914 399 94.3914L410.447 98.3604L410.456 98.3524C410.529 98.7375 410.614 99.1193 410.702 99.5002C412.316 106.514 416.391 112.721 422.192 117C422.184 116.924 422.178 116.841 422.171 116.763C421.785 110.986 422.152 105.183 423.261 99.5003C423.569 97.8667 423.935 96.2291 424.37 94.6185C425.469 90.1082 427.376 85.8332 430 82C429.327 82.0898 428.627 82.2064 427.913 82.3369C427.795 82.3585 427.681 82.3768 427.562 82.3992Z" fill="#343849"/>
<path d="M397.562 41.3992C391.828 42.6178 386.177 44.1983 380.644 46.1314C379.459 46.541 378.278 46.97 377.114 47.4118C374.523 48.3761 371.985 49.4763 369.511 50.7079C369.339 51.6129 369 53.3913 369 53.3913L377.114 56.2048L380.447 57.3603L380.456 57.3526C381.873 64.8218 386.064 71.4818 392.192 76C392.184 75.9233 392.178 75.8412 392.171 75.7632C391.697 68.3115 392.44 60.8325 394.37 53.6184C395.469 49.1081 397.376 44.8333 400 41C399.327 41.0898 398.627 41.2067 397.913 41.3369C397.795 41.3586 397.681 41.3768 397.562 41.3992Z" fill="#343849"/>
<path d="M427.562 163.399C421.828 164.618 416.177 166.198 410.644 168.131C406.836 169.409 403.116 170.938 399.511 172.708C399.339 173.613 399 175.391 399 175.391L410.447 179.36L410.456 179.352C410.529 179.737 410.614 180.119 410.702 180.5C412.316 187.514 416.391 193.721 422.192 198C422.184 197.923 422.178 197.841 422.171 197.763C421.785 191.986 422.152 186.183 423.261 180.5C423.569 178.867 423.935 177.229 424.37 175.618C425.469 171.108 427.376 166.833 430 163C429.327 163.09 428.627 163.206 427.913 163.337C427.795 163.359 427.681 163.377 427.562 163.399Z" fill="#343849"/>
<path d="M397.562 122.399C391.828 123.618 386.177 125.198 380.644 127.131C379.459 127.541 378.278 127.97 377.114 128.412C374.523 129.376 371.985 130.476 369.511 131.708L369 134.391L377.114 137.205L380.447 138.36L380.456 138.352C381.873 145.822 386.064 152.482 392.192 157C392.184 156.924 392.178 156.841 392.171 156.763C391.697 149.312 392.44 141.833 394.37 134.618C395.469 130.108 397.376 125.833 400 122C399.327 122.09 398.627 122.206 397.913 122.337C397.795 122.359 397.681 122.377 397.562 122.399Z" fill="#343849"/>
<path d="M427.562 245.399C421.828 246.618 416.177 248.198 410.644 250.132C406.836 251.409 403.116 252.938 399.511 254.708L399 257.392L410.447 261.36L410.456 261.353C410.529 261.738 410.614 262.119 410.702 262.5C412.316 269.514 416.391 275.721 422.192 280C422.184 279.924 422.178 279.841 422.171 279.763C421.785 273.986 422.152 268.183 423.261 262.5C423.569 260.867 423.935 259.229 424.37 257.619C425.469 253.108 427.376 248.833 430 245C429.327 245.09 428.627 245.207 427.913 245.337C427.795 245.359 427.681 245.377 427.562 245.399Z" fill="#343849"/>
<path d="M397.562 204.399C391.828 205.618 386.177 207.198 380.644 209.131C379.459 209.541 378.278 209.97 377.114 210.412C374.523 211.376 371.985 212.476 369.511 213.708C369.339 214.613 369 216.391 369 216.391L377.114 219.205L380.447 220.36L380.456 220.352C381.873 227.822 386.064 234.482 392.192 239C392.184 238.924 392.178 238.841 392.171 238.763C391.697 231.312 392.44 223.833 394.37 216.618C395.469 212.108 397.376 207.833 400 204C399.327 204.09 398.627 204.206 397.913 204.337C397.795 204.359 397.681 204.377 397.562 204.399Z" fill="#343849"/>
<path d="M427.562 327.399C421.828 328.617 416.177 330.198 410.644 332.131C406.836 333.409 403.116 334.938 399.511 336.708C399.339 337.613 399 339.391 399 339.391L410.447 343.36L410.456 343.352C410.529 343.738 410.614 344.119 410.702 344.5C412.316 351.514 416.391 357.721 422.192 362C422.184 361.924 422.178 361.841 422.171 361.763C421.785 355.986 422.152 350.183 423.261 344.5C423.569 342.867 423.935 341.229 424.37 339.618C425.469 335.108 427.376 330.833 430 327C429.327 327.09 428.627 327.206 427.913 327.337C427.795 327.359 427.681 327.377 427.562 327.399Z" fill="#343849"/>
<path d="M397.562 286.399C391.828 287.618 386.177 289.198 380.644 291.131C379.459 291.541 378.278 291.97 377.114 292.412C374.523 293.376 371.985 294.476 369.511 295.708C369.339 296.613 369 298.391 369 298.391L377.114 301.205L380.447 302.36L380.456 302.352C381.873 309.822 386.064 316.482 392.192 321C392.184 320.923 392.178 320.841 392.171 320.763C391.697 313.312 392.44 305.833 394.37 298.618C395.469 294.108 397.376 289.833 400 286C399.327 286.09 398.627 286.206 397.913 286.337C397.795 286.359 397.681 286.377 397.562 286.399Z" fill="#343849"/>
<path d="M397.562 367.399C391.828 368.618 386.177 370.198 380.644 372.132C379.459 372.541 378.278 372.97 377.114 373.412C374.523 374.376 371.985 375.476 369.511 376.708L369 379.392L377.114 382.205L380.447 383.36L380.456 383.353C381.873 390.822 386.064 397.482 392.192 402C392.184 401.924 392.178 401.841 392.171 401.763C391.697 394.312 392.44 386.833 394.37 379.619C395.469 375.108 397.376 370.833 400 367C399.327 367.09 398.627 367.207 397.913 367.337C397.795 367.359 397.681 367.377 397.562 367.399Z" fill="#343849"/>
<path d="M366.562 0.398935C360.828 1.61747 355.177 3.19814 349.644 5.1314C345.836 6.40904 342.116 7.93782 338.511 9.70764L338 12.3914L349.447 16.3601L349.456 16.3524C349.529 16.7375 349.614 17.1192 349.702 17.5C351.316 24.5143 355.391 30.7214 361.192 35C361.184 34.9235 361.178 34.8412 361.171 34.7632C360.785 28.986 361.152 23.1833 362.261 17.5C362.569 15.8665 362.935 14.2288 363.37 12.6185C364.469 8.10816 366.376 3.83325 369 0C368.327 0.0898413 367.627 0.206442 366.913 0.33695C366.795 0.358522 366.681 0.376541 366.562 0.398935Z" fill="#343849"/>
<path d="M366.562 82.3992C360.828 83.6175 355.177 85.1981 349.644 87.1314C345.836 88.4092 342.116 89.9381 338.511 91.7079C338.339 92.613 338 94.3914 338 94.3914L349.447 98.3604L349.456 98.3524C349.529 98.7375 349.614 99.1192 349.702 99.5002C351.316 106.514 355.391 112.721 361.192 117C361.184 116.924 361.178 116.841 361.171 116.763C360.785 110.986 361.152 105.183 362.261 99.5003C362.569 97.8667 362.935 96.2291 363.37 94.6185C364.469 90.1082 366.376 85.8332 369 82C368.327 82.0898 367.627 82.2064 366.913 82.3369C366.795 82.3585 366.681 82.3768 366.562 82.3992Z" fill="#343849"/>
<path d="M335.562 41.3992C329.828 42.6177 324.177 44.1983 318.644 46.1314C317.459 46.5409 316.278 46.97 315.114 47.4117C312.523 48.376 309.985 49.4763 307.511 50.7079C307.339 51.6129 307 53.3913 307 53.3913L315.114 56.2048L318.447 57.3603L318.456 57.3526C319.873 64.8218 324.064 71.4818 330.192 76C330.184 75.9233 330.178 75.8412 330.171 75.7632C329.697 68.3115 330.44 60.8325 332.37 53.6184C333.469 49.1081 335.376 44.8333 338 41C337.327 41.0898 336.627 41.2067 335.913 41.3369C335.795 41.3585 335.681 41.3768 335.562 41.3992Z" fill="#343849"/>
<path d="M366.562 163.399C360.828 164.618 355.177 166.198 349.644 168.131C345.836 169.409 342.116 170.938 338.511 172.708C338.339 173.613 338 175.391 338 175.391L349.447 179.36L349.456 179.352C349.529 179.737 349.614 180.119 349.702 180.5C351.316 187.514 355.391 193.721 361.192 198C361.184 197.923 361.178 197.841 361.171 197.763C360.785 191.986 361.152 186.183 362.261 180.5C362.569 178.867 362.935 177.229 363.37 175.618C364.469 171.108 366.376 166.833 369 163C368.327 163.09 367.627 163.206 366.913 163.337C366.795 163.359 366.681 163.377 366.562 163.399Z" fill="#343849"/>
<path d="M335.562 122.399C329.828 123.618 324.177 125.198 318.644 127.131C317.459 127.541 316.278 127.97 315.114 128.412C312.523 129.376 309.985 130.476 307.511 131.708C307.339 132.613 307 134.391 307 134.391L315.114 137.205L318.447 138.36L318.456 138.352C319.873 145.822 324.064 152.482 330.192 157C330.184 156.924 330.178 156.841 330.171 156.763C329.697 149.312 330.44 141.833 332.37 134.618C333.469 130.108 335.376 125.833 338 122C337.327 122.09 336.627 122.206 335.913 122.337C335.795 122.359 335.681 122.377 335.562 122.399Z" fill="#343849"/>
<path d="M366.562 245.399C360.828 246.618 355.177 248.198 349.644 250.132C345.836 251.409 342.116 252.938 338.511 254.708L338 257.392L349.447 261.36L349.456 261.353C349.529 261.738 349.614 262.119 349.702 262.5C351.316 269.514 355.391 275.721 361.192 280C361.184 279.924 361.178 279.841 361.171 279.763C360.785 273.986 361.152 268.183 362.261 262.5C362.569 260.867 362.935 259.229 363.37 257.619C364.469 253.108 366.376 248.833 369 245C368.327 245.09 367.627 245.207 366.913 245.337C366.795 245.359 366.681 245.377 366.562 245.399Z" fill="#343849"/>
<path d="M335.562 204.399C329.828 205.618 324.177 207.198 318.644 209.131C317.459 209.541 316.278 209.97 315.114 210.412C312.523 211.376 309.985 212.476 307.511 213.708C307.339 214.613 307 216.391 307 216.391L315.114 219.205L318.447 220.36L318.456 220.352C319.873 227.822 324.064 234.482 330.192 239C330.184 238.924 330.178 238.841 330.171 238.763C329.697 231.312 330.44 223.833 332.37 216.618C333.469 212.108 335.376 207.833 338 204C337.327 204.09 336.627 204.206 335.913 204.337C335.795 204.359 335.681 204.377 335.562 204.399Z" fill="#343849"/>
<path d="M366.562 327.399C360.828 328.617 355.177 330.198 349.644 332.131C345.836 333.409 342.116 334.938 338.511 336.708C338.339 337.613 338 339.391 338 339.391L349.447 343.36L349.456 343.352C349.529 343.738 349.614 344.119 349.702 344.5C351.316 351.514 355.391 357.721 361.192 362C361.184 361.924 361.178 361.841 361.171 361.763C360.785 355.986 361.152 350.183 362.261 344.5C362.569 342.867 362.935 341.229 363.37 339.619C364.469 335.108 366.376 330.833 369 327C368.327 327.09 367.627 327.206 366.913 327.337C366.795 327.359 366.681 327.377 366.562 327.399Z" fill="#343849"/>
<path d="M335.562 286.399C329.828 287.618 324.177 289.198 318.644 291.131C317.459 291.541 316.278 291.97 315.114 292.412C312.523 293.376 309.985 294.476 307.511 295.708C307.339 296.613 307 298.391 307 298.391L315.114 301.205L318.447 302.36L318.456 302.352C319.873 309.822 324.064 316.482 330.192 321C330.184 320.923 330.178 320.841 330.171 320.763C329.697 313.312 330.44 305.833 332.37 298.618C333.469 294.108 335.376 289.833 338 286C337.327 286.09 336.627 286.206 335.913 286.337C335.795 286.359 335.681 286.377 335.562 286.399Z" fill="#343849"/>
<path d="M335.562 367.399C329.828 368.618 324.177 370.198 318.644 372.132C317.459 372.541 316.278 372.97 315.114 373.412C312.523 374.376 309.985 375.476 307.511 376.708C307.339 377.613 307 379.392 307 379.392L315.114 382.205L318.447 383.36L318.456 383.353C319.873 390.822 324.064 397.482 330.192 402C330.184 401.924 330.178 401.841 330.171 401.763C329.697 394.312 330.44 386.833 332.37 379.619C333.469 375.108 335.376 370.833 338 367C337.327 367.09 336.627 367.207 335.913 367.337C335.795 367.359 335.681 367.377 335.562 367.399Z" fill="#343849"/>
<path d="M304.562 0.398935C298.828 1.61746 293.177 3.19813 287.644 5.1314C283.836 6.40902 280.116 7.93781 276.511 9.70764C276.339 10.6127 276 12.3914 276 12.3914L287.447 16.3601L287.456 16.3524C287.529 16.7375 287.614 17.1192 287.702 17.5C289.316 24.5142 293.391 30.7213 299.192 35C299.184 34.9235 299.178 34.8412 299.171 34.7632C298.785 28.986 299.152 23.1833 300.261 17.5C300.569 15.8665 300.935 14.2288 301.37 12.6185C302.469 8.10817 304.376 3.83326 307 0C306.327 0.0898413 305.627 0.206442 304.913 0.33695C304.795 0.358522 304.681 0.376541 304.562 0.398935Z" fill="#343849"/>
<path d="M304.562 82.3992C298.828 83.6175 293.177 85.1981 287.644 87.1314C283.836 88.4092 280.116 89.9381 276.511 91.7079C276.339 92.613 276 94.3914 276 94.3914L287.447 98.3604L287.456 98.3524C287.529 98.7375 287.614 99.1192 287.702 99.5002C289.316 106.514 293.391 112.721 299.192 117C299.184 116.924 299.178 116.841 299.171 116.763C298.785 110.986 299.152 105.183 300.261 99.5003C300.569 97.8667 300.935 96.2291 301.37 94.6185C302.469 90.1082 304.376 85.8333 307 82C306.327 82.0898 305.627 82.2064 304.913 82.3369C304.795 82.3585 304.681 82.3768 304.562 82.3992Z" fill="#343849"/>
<path d="M274.562 41.3992C268.828 42.6178 263.177 44.1983 257.644 46.1314C256.459 46.541 255.278 46.97 254.114 47.4118C251.523 48.376 248.985 49.4763 246.511 50.7079C246.339 51.6129 246 53.3913 246 53.3913L254.114 56.2048L257.447 57.3603L257.456 57.3526C258.873 64.8218 263.064 71.4818 269.192 76C269.184 75.9233 269.178 75.8412 269.171 75.7632C268.697 68.3115 269.44 60.8325 271.37 53.6184C272.469 49.1081 274.376 44.8333 277 41C276.327 41.0898 275.627 41.2067 274.913 41.3369C274.795 41.3586 274.681 41.3768 274.562 41.3992Z" fill="#343849"/>
<path d="M304.562 163.399C298.828 164.618 293.177 166.198 287.644 168.131C283.836 169.409 280.116 170.938 276.511 172.708C276.339 173.613 276 175.391 276 175.391L287.447 179.36L287.456 179.352C287.529 179.737 287.614 180.119 287.702 180.5C289.316 187.514 293.391 193.721 299.192 198C299.184 197.923 299.178 197.841 299.171 197.763C298.785 191.986 299.152 186.183 300.261 180.5C300.569 178.867 300.935 177.229 301.37 175.618C302.469 171.108 304.376 166.833 307 163C306.327 163.09 305.627 163.206 304.913 163.337C304.795 163.359 304.681 163.377 304.562 163.399Z" fill="#343849"/>
<path d="M274.562 122.399C268.828 123.617 263.177 125.198 257.644 127.131C256.459 127.541 255.278 127.97 254.114 128.412C251.523 129.376 248.985 130.476 246.511 131.708C246.339 132.613 246 134.391 246 134.391L254.114 137.205L257.447 138.36L257.456 138.352C258.873 145.822 263.064 152.482 269.192 157C269.184 156.924 269.178 156.841 269.171 156.763C268.697 149.312 269.44 141.833 271.37 134.618C272.469 130.108 274.376 125.833 277 122C276.327 122.09 275.627 122.206 274.913 122.337C274.795 122.359 274.681 122.377 274.562 122.399Z" fill="#343849"/>
<path d="M304.562 245.399C298.828 246.618 293.177 248.198 287.644 250.132C283.836 251.409 280.116 252.938 276.511 254.708C276.339 255.613 276 257.392 276 257.392L287.447 261.36L287.456 261.353C287.529 261.738 287.614 262.119 287.702 262.5C289.316 269.514 293.391 275.721 299.192 280C299.184 279.924 299.178 279.841 299.171 279.763C298.785 273.986 299.152 268.183 300.261 262.5C300.569 260.867 300.935 259.229 301.37 257.619C302.469 253.108 304.376 248.833 307 245C306.327 245.09 305.627 245.207 304.913 245.337C304.795 245.359 304.681 245.377 304.562 245.399Z" fill="#343849"/>
<path d="M274.562 204.399C268.828 205.618 263.177 207.198 257.644 209.131C256.459 209.541 255.278 209.97 254.114 210.412C251.523 211.376 248.985 212.476 246.511 213.708C246.339 214.613 246 216.391 246 216.391L254.114 219.205L257.447 220.36L257.456 220.352C258.873 227.822 263.064 234.482 269.192 239C269.184 238.924 269.178 238.841 269.171 238.763C268.697 231.312 269.44 223.833 271.37 216.618C272.469 212.108 274.376 207.833 277 204C276.327 204.09 275.627 204.206 274.913 204.337C274.795 204.359 274.681 204.377 274.562 204.399Z" fill="#343849"/>
<path d="M304.562 327.399C298.828 328.617 293.177 330.198 287.644 332.131C283.836 333.409 280.116 334.938 276.511 336.708C276.339 337.613 276 339.391 276 339.391L287.447 343.36L287.456 343.352C287.529 343.738 287.614 344.119 287.702 344.5C289.316 351.514 293.391 357.721 299.192 362C299.184 361.924 299.178 361.841 299.171 361.763C298.785 355.986 299.152 350.183 300.261 344.5C300.569 342.867 300.935 341.229 301.37 339.619C302.469 335.108 304.376 330.833 307 327C306.327 327.09 305.627 327.206 304.913 327.337C304.795 327.359 304.681 327.377 304.562 327.399Z" fill="#343849"/>
<path d="M274.562 286.399C268.828 287.618 263.177 289.198 257.644 291.131C256.459 291.541 255.278 291.97 254.114 292.412C251.523 293.376 248.985 294.476 246.511 295.708C246.339 296.613 246 298.391 246 298.391L254.114 301.205L257.447 302.36L257.456 302.352C258.873 309.822 263.064 316.482 269.192 321C269.184 320.923 269.178 320.841 269.171 320.763C268.697 313.312 269.44 305.833 271.37 298.618C272.469 294.108 274.376 289.833 277 286C276.327 286.09 275.627 286.206 274.913 286.337C274.795 286.359 274.681 286.377 274.562 286.399Z" fill="#343849"/>
<path d="M274.562 367.399C268.828 368.618 263.177 370.198 257.644 372.132C256.459 372.541 255.278 372.97 254.114 373.412C251.523 374.376 248.985 375.476 246.511 376.708C246.339 377.613 246 379.392 246 379.392L254.114 382.205L257.447 383.36L257.456 383.353C258.873 390.822 263.064 397.482 269.192 402C269.184 401.924 269.178 401.841 269.171 401.763C268.697 394.312 269.44 386.833 271.37 379.619C272.469 375.108 274.376 370.833 277 367C276.327 367.09 275.627 367.207 274.913 367.337C274.795 367.359 274.681 367.377 274.562 367.399Z" fill="#343849"/>
<path d="M243.562 0.398935C237.828 1.61746 232.177 3.19813 226.644 5.1314C222.836 6.40901 219.116 7.93779 215.511 9.70764C215.339 10.6127 215 12.3914 215 12.3914L226.447 16.3601L226.456 16.3524C226.529 16.7375 226.614 17.1192 226.702 17.5C228.316 24.5143 232.391 30.7214 238.192 35C238.184 34.9235 238.178 34.8412 238.171 34.7632C237.785 28.986 238.152 23.1833 239.261 17.5C239.569 15.8665 239.935 14.2288 240.37 12.6185C241.469 8.10818 243.376 3.83328 246 0C245.327 0.0898413 244.627 0.206442 243.913 0.33695C243.795 0.358522 243.681 0.376541 243.562 0.398935Z" fill="#343849"/>
<path d="M243.562 82.3992C237.828 83.6175 232.177 85.1981 226.644 87.1314C222.836 88.4092 219.116 89.9381 215.511 91.7079C215.339 92.613 215 94.3914 215 94.3914L226.447 98.3604L226.456 98.3524C226.529 98.7375 226.614 99.1192 226.702 99.5002C228.316 106.514 232.391 112.721 238.192 117C238.184 116.924 238.178 116.841 238.171 116.763C237.785 110.986 238.152 105.183 239.261 99.5003C239.569 97.8667 239.935 96.2291 240.37 94.6185C241.469 90.1082 243.376 85.8333 246 82C245.327 82.0898 244.627 82.2064 243.913 82.3369C243.795 82.3585 243.681 82.3768 243.562 82.3992Z" fill="#343849"/>
<path d="M212.562 41.3992C206.828 42.6177 201.177 44.1983 195.644 46.1314C194.459 46.5409 193.278 46.97 192.114 47.4117C189.523 48.376 186.985 49.4763 184.511 50.7079C184.339 51.6129 184 53.3913 184 53.3913L192.114 56.2048L195.447 57.3603L195.456 57.3526C196.873 64.8217 201.064 71.4818 207.192 76C207.184 75.9233 207.178 75.8412 207.171 75.7632C206.697 68.3115 207.44 60.8325 209.37 53.6184C210.469 49.1081 212.376 44.8333 215 41C214.327 41.0898 213.627 41.2067 212.913 41.3369C212.795 41.3585 212.681 41.3768 212.562 41.3992Z" fill="#343849"/>
<path d="M243.562 163.399C237.828 164.618 232.177 166.198 226.644 168.131C222.836 169.409 219.116 170.938 215.511 172.708C215.339 173.613 215 175.391 215 175.391L226.447 179.36L226.456 179.352C226.529 179.737 226.614 180.119 226.702 180.5C228.316 187.514 232.391 193.721 238.192 198C238.184 197.923 238.178 197.841 238.171 197.763C237.785 191.986 238.152 186.183 239.261 180.5C239.569 178.867 239.935 177.229 240.37 175.618C241.469 171.108 243.376 166.833 246 163C245.327 163.09 244.627 163.206 243.913 163.337C243.795 163.359 243.681 163.377 243.562 163.399Z" fill="#343849"/>
<path d="M212.562 122.399C206.828 123.617 201.177 125.198 195.644 127.131C194.459 127.541 193.278 127.97 192.114 128.412C189.523 129.376 186.985 130.476 184.511 131.708L184 134.391L192.114 137.205L195.447 138.36L195.456 138.352C196.873 145.822 201.064 152.482 207.192 157C207.184 156.924 207.178 156.841 207.171 156.763C206.697 149.312 207.44 141.833 209.37 134.618C210.469 130.108 212.376 125.833 215 122C214.327 122.09 213.627 122.206 212.913 122.337C212.795 122.359 212.681 122.377 212.562 122.399Z" fill="#343849"/>
<path d="M243.562 245.399C237.828 246.618 232.177 248.198 226.644 250.132C222.836 251.409 219.116 252.938 215.511 254.708C215.339 255.613 215 257.392 215 257.392L226.447 261.36L226.456 261.353C226.529 261.738 226.614 262.119 226.702 262.5C228.316 269.514 232.391 275.721 238.192 280C238.184 279.924 238.178 279.841 238.171 279.763C237.785 273.986 238.152 268.183 239.261 262.5C239.569 260.867 239.935 259.229 240.37 257.619C241.469 253.108 243.376 248.833 246 245C245.327 245.09 244.627 245.207 243.913 245.337C243.795 245.359 243.681 245.377 243.562 245.399Z" fill="#343849"/>
<path d="M212.562 204.399C206.828 205.618 201.177 207.198 195.644 209.131C194.459 209.541 193.278 209.97 192.114 210.412C189.523 211.376 186.985 212.476 184.511 213.708C184.339 214.613 184 216.391 184 216.391L192.114 219.205L195.447 220.36L195.456 220.352C196.873 227.822 201.064 234.482 207.192 239C207.184 238.924 207.178 238.841 207.171 238.763C206.697 231.312 207.44 223.833 209.37 216.618C210.469 212.108 212.376 207.833 215 204C214.327 204.09 213.627 204.206 212.913 204.337C212.795 204.359 212.681 204.377 212.562 204.399Z" fill="#343849"/>
<path d="M243.562 327.399C237.828 328.617 232.177 330.198 226.644 332.131C222.836 333.409 219.116 334.938 215.511 336.708C215.339 337.613 215 339.391 215 339.391L226.447 343.36L226.456 343.352C226.529 343.738 226.614 344.119 226.702 344.5C228.316 351.514 232.391 357.721 238.192 362C238.184 361.924 238.178 361.841 238.171 361.763C237.785 355.986 238.152 350.183 239.261 344.5C239.569 342.867 239.935 341.229 240.37 339.619C241.469 335.108 243.376 330.833 246 327C245.327 327.09 244.627 327.206 243.913 327.337C243.795 327.359 243.681 327.377 243.562 327.399Z" fill="#343849"/>
<path d="M212.562 286.399C206.828 287.618 201.177 289.198 195.644 291.131C194.459 291.541 193.278 291.97 192.114 292.412C189.523 293.376 186.985 294.476 184.511 295.708C184.339 296.613 184 298.391 184 298.391L192.114 301.205L195.447 302.36L195.456 302.352C196.873 309.822 201.064 316.482 207.192 321C207.184 320.923 207.178 320.841 207.171 320.763C206.697 313.312 207.44 305.833 209.37 298.618C210.469 294.108 212.376 289.833 215 286C214.327 286.09 213.627 286.206 212.913 286.337C212.795 286.359 212.681 286.377 212.562 286.399Z" fill="#343849"/>
<path d="M212.562 367.399C206.828 368.618 201.177 370.198 195.644 372.132C194.459 372.541 193.278 372.97 192.114 373.412C189.523 374.376 186.985 375.476 184.511 376.708L184 379.392L192.114 382.205L195.447 383.36L195.456 383.353C196.873 390.822 201.064 397.482 207.192 402C207.184 401.924 207.178 401.841 207.171 401.763C206.697 394.312 207.44 386.833 209.37 379.619C210.469 375.108 212.376 370.833 215 367C214.327 367.09 213.627 367.207 212.913 367.337C212.795 367.359 212.681 367.377 212.562 367.399Z" fill="#343849"/>
<path d="M182.562 0.398935C176.828 1.61746 171.177 3.19813 165.644 5.1314C161.836 6.40902 158.116 7.93781 154.511 9.70764L154 12.3914L165.447 16.3601L165.456 16.3524C165.529 16.7375 165.614 17.1192 165.702 17.5C167.316 24.5143 171.391 30.7214 177.192 35C177.184 34.9235 177.178 34.8412 177.171 34.7632C176.785 28.986 177.152 23.1833 178.261 17.5C178.569 15.8665 178.935 14.2288 179.37 12.6185C180.469 8.10816 182.376 3.83325 185 0C184.327 0.0898413 183.627 0.206442 182.913 0.33695C182.795 0.358522 182.681 0.376541 182.562 0.398935Z" fill="#343849"/>
<path d="M182.562 82.3992C176.828 83.6175 171.177 85.1981 165.644 87.1314C161.836 88.4092 158.116 89.9381 154.511 91.7079C154.339 92.613 154 94.3914 154 94.3914L165.447 98.3604L165.456 98.3524C165.529 98.7375 165.614 99.1192 165.702 99.5002C167.316 106.514 171.391 112.721 177.192 117C177.184 116.924 177.178 116.841 177.171 116.763C176.785 110.986 177.152 105.183 178.261 99.5003C178.569 97.8667 178.935 96.2291 179.37 94.6185C180.469 90.1082 182.376 85.8332 185 82C184.327 82.0898 183.627 82.2064 182.913 82.3369C182.795 82.3585 182.681 82.3768 182.562 82.3992Z" fill="#343849"/>
<path d="M151.562 41.3992C145.828 42.6177 140.177 44.1983 134.644 46.1314C133.459 46.5409 132.278 46.97 131.114 47.4117C128.523 48.3761 125.985 49.4763 123.511 50.7079C123.339 51.6129 123 53.3913 123 53.3913L131.114 56.2048L134.447 57.3603L134.456 57.3526C135.873 64.8218 140.064 71.4818 146.192 76C146.184 75.9233 146.178 75.8412 146.171 75.7632C145.697 68.3115 146.44 60.8325 148.37 53.6184C149.469 49.1081 151.376 44.8333 154 41C153.327 41.0898 152.627 41.2067 151.913 41.3369C151.795 41.3585 151.681 41.3768 151.562 41.3992Z" fill="#343849"/>
<path d="M182.562 163.399C176.828 164.618 171.177 166.198 165.644 168.131C161.836 169.409 158.116 170.938 154.511 172.708C154.339 173.613 154 175.391 154 175.391L165.447 179.36L165.456 179.352C165.529 179.737 165.614 180.119 165.702 180.5C167.316 187.514 171.391 193.721 177.192 198C177.184 197.923 177.178 197.841 177.171 197.763C176.785 191.986 177.152 186.183 178.261 180.5C178.569 178.867 178.935 177.229 179.37 175.618C180.469 171.108 182.376 166.833 185 163C184.327 163.09 183.627 163.206 182.913 163.337C182.795 163.359 182.681 163.377 182.562 163.399Z" fill="#343849"/>
<path d="M151.562 122.399C145.828 123.618 140.177 125.198 134.644 127.131C133.459 127.541 132.278 127.97 131.114 128.412C128.523 129.376 125.985 130.476 123.511 131.708L123 134.391L131.114 137.205L134.447 138.36L134.456 138.352C135.873 145.822 140.064 152.482 146.192 157C146.184 156.924 146.178 156.841 146.171 156.763C145.697 149.312 146.44 141.833 148.37 134.618C149.469 130.108 151.376 125.833 154 122C153.327 122.09 152.627 122.206 151.913 122.337C151.795 122.359 151.681 122.377 151.562 122.399Z" fill="#343849"/>
<path d="M182.562 245.399C176.828 246.618 171.177 248.198 165.644 250.132C161.836 251.409 158.116 252.938 154.511 254.708L154 257.392L165.447 261.36L165.456 261.353C165.529 261.738 165.614 262.119 165.702 262.5C167.316 269.514 171.391 275.721 177.192 280C177.184 279.924 177.178 279.841 177.171 279.763C176.785 273.986 177.152 268.183 178.261 262.5C178.569 260.867 178.935 259.229 179.37 257.619C180.469 253.108 182.376 248.833 185 245C184.327 245.09 183.627 245.207 182.913 245.337C182.795 245.359 182.681 245.377 182.562 245.399Z" fill="#343849"/>
<path d="M151.562 204.399C145.828 205.618 140.177 207.198 134.644 209.131C133.459 209.541 132.278 209.97 131.114 210.412C128.523 211.376 125.985 212.476 123.511 213.708C123.339 214.613 123 216.391 123 216.391L131.114 219.205L134.447 220.36L134.456 220.352C135.873 227.822 140.064 234.482 146.192 239C146.184 238.924 146.178 238.841 146.171 238.763C145.697 231.312 146.44 223.833 148.37 216.618C149.469 212.108 151.376 207.833 154 204C153.327 204.09 152.627 204.206 151.913 204.337C151.795 204.359 151.681 204.377 151.562 204.399Z" fill="#343849"/>
<path d="M182.562 327.399C176.828 328.617 171.177 330.198 165.644 332.131C161.836 333.409 158.116 334.938 154.511 336.708C154.339 337.613 154 339.391 154 339.391L165.447 343.36L165.456 343.352C165.529 343.738 165.614 344.119 165.702 344.5C167.316 351.514 171.391 357.721 177.192 362C177.184 361.924 177.178 361.841 177.171 361.763C176.785 355.986 177.152 350.183 178.261 344.5C178.569 342.867 178.935 341.229 179.37 339.619C180.469 335.108 182.376 330.833 185 327C184.327 327.09 183.627 327.206 182.913 327.337C182.795 327.359 182.681 327.377 182.562 327.399Z" fill="#343849"/>
<path d="M151.562 286.399C145.828 287.618 140.177 289.198 134.644 291.131C133.459 291.541 132.278 291.97 131.114 292.412C128.523 293.376 125.985 294.476 123.511 295.708C123.339 296.613 123 298.391 123 298.391L131.114 301.205L134.447 302.36L134.456 302.352C135.873 309.822 140.064 316.482 146.192 321C146.184 320.923 146.178 320.841 146.171 320.763C145.697 313.312 146.44 305.833 148.37 298.618C149.469 294.108 151.376 289.833 154 286C153.327 286.09 152.627 286.206 151.913 286.337C151.795 286.359 151.681 286.377 151.562 286.399Z" fill="#343849"/>
<path d="M151.562 367.399C145.828 368.618 140.177 370.198 134.644 372.132C133.459 372.541 132.278 372.97 131.114 373.412C128.523 374.376 125.985 375.476 123.511 376.708L123 379.392L131.114 382.205L134.447 383.36L134.456 383.353C135.873 390.822 140.064 397.482 146.192 402C146.184 401.924 146.178 401.841 146.171 401.763C145.697 394.312 146.44 386.833 148.37 379.619C149.469 375.108 151.376 370.833 154 367C153.327 367.09 152.627 367.207 151.913 367.337C151.795 367.359 151.681 367.377 151.562 367.399Z" fill="#343849"/>
<path d="M120.562 0.398935C114.828 1.61747 109.177 3.19814 103.644 5.1314C99.8355 6.40904 96.1163 7.93782 92.5111 9.70765L92 12.3914L103.447 16.3602L103.456 16.3524C103.529 16.7375 103.614 17.1193 103.702 17.5C105.316 24.5143 109.391 30.7214 115.192 35C115.184 34.9235 115.178 34.8412 115.171 34.7632C114.785 28.986 115.152 23.1833 116.261 17.5C116.569 15.8665 116.935 14.2288 117.37 12.6185C118.469 8.10816 120.376 3.83325 123 0C122.327 0.0898413 121.627 0.206442 120.913 0.33695C120.795 0.358522 120.681 0.376541 120.562 0.398935Z" fill="#343849"/>
<path d="M120.562 82.3992C114.828 83.6175 109.177 85.1981 103.644 87.1314C99.8356 88.4092 96.1164 89.9381 92.5111 91.7079C92.3387 92.613 92 94.3914 92 94.3914L103.447 98.3604L103.456 98.3524C103.529 98.7375 103.614 99.1192 103.702 99.5002C105.316 106.514 109.391 112.721 115.192 117C115.184 116.924 115.178 116.841 115.171 116.763C114.785 110.986 115.152 105.183 116.261 99.5003C116.569 97.8667 116.935 96.2291 117.37 94.6185C118.469 90.1082 120.376 85.8332 123 82C122.327 82.0898 121.627 82.2064 120.913 82.3369C120.795 82.3585 120.681 82.3768 120.562 82.3992Z" fill="#343849"/>
<path d="M89.5623 41.3992C83.8282 42.6178 78.1774 44.1983 72.6441 46.1314C71.4594 46.541 70.2782 46.97 69.1141 47.4118C66.5233 48.376 63.9854 49.4763 61.5111 50.7079C61.3386 51.6129 61 53.3914 61 53.3914L69.1141 56.2048L72.4469 57.3603L72.4562 57.3526C73.8727 64.8218 78.0641 71.4818 84.1918 76C84.1842 75.9233 84.1784 75.8412 84.1712 75.7632C83.6973 68.3115 84.4397 60.8325 86.3695 53.6184C87.4688 49.1081 89.3763 44.8333 92 41C91.3272 41.0898 90.6267 41.2067 89.9126 41.3369C89.7951 41.3586 89.6807 41.3768 89.5623 41.3992Z" fill="#343849"/>
<path d="M120.562 163.399C114.828 164.618 109.177 166.198 103.644 168.131C99.8356 169.409 96.1164 170.938 92.5111 172.708C92.3387 173.613 92 175.391 92 175.391L103.447 179.36L103.456 179.352C103.529 179.737 103.614 180.119 103.702 180.5C105.316 187.514 109.391 193.721 115.192 198C115.184 197.923 115.178 197.841 115.171 197.763C114.785 191.986 115.152 186.183 116.261 180.5C116.569 178.867 116.935 177.229 117.37 175.618C118.469 171.108 120.376 166.833 123 163C122.327 163.09 121.627 163.206 120.913 163.337C120.795 163.359 120.681 163.377 120.562 163.399Z" fill="#343849"/>
<path d="M89.5623 122.399C83.8281 123.618 78.1774 125.198 72.6441 127.131C71.4594 127.541 70.2782 127.97 69.1141 128.412C66.5233 129.376 63.9854 130.476 61.5111 131.708C61.3386 132.613 61 134.391 61 134.391L69.1141 137.205L72.4469 138.36L72.4562 138.352C73.8726 145.822 78.0641 152.482 84.1918 157C84.1842 156.924 84.1784 156.841 84.1712 156.763C83.6973 149.312 84.4397 141.833 86.3695 134.618C87.4687 130.108 89.3762 125.833 92 122C91.3272 122.09 90.6267 122.206 89.9126 122.337C89.7951 122.359 89.6807 122.377 89.5623 122.399Z" fill="#343849"/>
<path d="M120.562 245.399C114.828 246.618 109.177 248.198 103.644 250.132C99.8355 251.409 96.1163 252.938 92.5111 254.708L92 257.392L103.447 261.36L103.456 261.353C103.529 261.738 103.614 262.119 103.702 262.5C105.316 269.514 109.391 275.721 115.192 280C115.184 279.924 115.178 279.841 115.171 279.763C114.785 273.986 115.152 268.183 116.261 262.5C116.569 260.867 116.935 259.229 117.37 257.619C118.469 253.108 120.376 248.833 123 245C122.327 245.09 121.627 245.207 120.913 245.337C120.795 245.359 120.681 245.377 120.562 245.399Z" fill="#343849"/>
<path d="M89.5623 204.399C83.8281 205.618 78.1773 207.198 72.6441 209.131C71.4594 209.541 70.2782 209.97 69.1141 210.412C66.5233 211.376 63.9854 212.476 61.5111 213.708C61.3386 214.613 61 216.391 61 216.391L69.1141 219.205L72.4469 220.36L72.4562 220.352C73.8726 227.822 78.0641 234.482 84.1918 239C84.1842 238.924 84.1784 238.841 84.1712 238.763C83.6973 231.312 84.4397 223.833 86.3695 216.618C87.4687 212.108 89.3762 207.833 92 204C91.3272 204.09 90.6267 204.206 89.9126 204.337C89.7951 204.359 89.6807 204.377 89.5623 204.399Z" fill="#343849"/>
<path d="M120.562 327.399C114.828 328.617 109.177 330.198 103.644 332.131C99.8356 333.409 96.1164 334.938 92.5111 336.708C92.3387 337.613 92 339.391 92 339.391L103.447 343.36L103.456 343.352C103.529 343.738 103.614 344.119 103.702 344.5C105.316 351.514 109.391 357.721 115.192 362C115.184 361.924 115.178 361.841 115.171 361.763C114.785 355.986 115.152 350.183 116.261 344.5C116.569 342.867 116.935 341.229 117.37 339.619C118.469 335.108 120.376 330.833 123 327C122.327 327.09 121.627 327.206 120.913 327.337C120.795 327.359 120.681 327.377 120.562 327.399Z" fill="#343849"/>
<path d="M89.5623 286.399C83.8282 287.618 78.1774 289.198 72.6441 291.131C71.4594 291.541 70.2782 291.97 69.1141 292.412C66.5233 293.376 63.9854 294.476 61.5111 295.708C61.3386 296.613 61 298.391 61 298.391L69.1141 301.205L72.4469 302.36L72.4562 302.352C73.8726 309.822 78.064 316.482 84.1918 321C84.1842 320.923 84.1784 320.841 84.1712 320.763C83.6973 313.312 84.4397 305.833 86.3695 298.618C87.4688 294.108 89.3763 289.833 92 286C91.3272 286.09 90.6267 286.206 89.9126 286.337C89.7951 286.359 89.6807 286.377 89.5623 286.399Z" fill="#343849"/>
<path d="M89.5623 367.399C83.8281 368.618 78.1774 370.198 72.6441 372.132C71.4594 372.541 70.2782 372.97 69.1141 373.412C66.5233 374.376 63.9854 375.476 61.5111 376.708C61.3386 377.613 61 379.392 61 379.392L69.1141 382.205L72.4469 383.36L72.4562 383.353C73.8726 390.822 78.0641 397.482 84.1918 402C84.1842 401.924 84.1784 401.841 84.1712 401.763C83.6973 394.312 84.4397 386.833 86.3695 379.619C87.4688 375.108 89.3763 370.833 92 367C91.3272 367.09 90.6267 367.207 89.9126 367.337C89.7951 367.359 89.6807 367.377 89.5623 367.399Z" fill="#343849"/>
<path d="M59.5623 0.398987C53.8282 1.61751 48.1774 3.19818 42.6441 5.13145C38.8356 6.40907 35.1164 7.93785 31.5111 9.70769C31.3387 10.6127 31 12.3914 31 12.3914L42.447 16.3602L42.4563 16.3525C42.5291 16.7375 42.614 17.1193 42.7017 17.5C44.3159 24.5143 48.3913 30.7214 54.1917 35C54.1842 34.9235 54.1784 34.8412 54.1712 34.7632C53.7855 28.986 54.1518 23.1833 55.261 17.5C55.5688 15.8665 55.9348 14.2289 56.3696 12.6185C57.4688 8.10819 59.3763 3.83327 62 0C61.3272 0.0898412 60.6267 0.206442 59.9126 0.336949C59.7951 0.358574 59.6808 0.376593 59.5623 0.398987Z" fill="#343849"/>
<path d="M59.5623 82.3992C53.8281 83.6175 48.1773 85.1981 42.6441 87.1314C38.8356 88.4092 35.1164 89.9381 31.5111 91.7079C31.3387 92.613 31 94.3914 31 94.3914L42.4469 98.3604L42.4562 98.3524C42.5291 98.7375 42.6139 99.1192 42.7016 99.5002C44.3158 106.514 48.3912 112.721 54.1917 117C54.1841 116.924 54.1783 116.841 54.1712 116.763C53.7854 110.986 54.1517 105.183 55.2609 99.5003C55.5688 97.8667 55.9347 96.2291 56.3695 94.6185C57.4688 90.1082 59.3763 85.8333 62 82C61.3272 82.0898 60.6267 82.2064 59.9126 82.3369C59.7951 82.3585 59.6807 82.3768 59.5623 82.3992Z" fill="#343849"/>
<path d="M28.5623 41.3992C22.8282 42.6178 17.1774 44.1983 11.6442 46.1314C10.4594 46.541 9.27826 46.97 8.11421 47.4118C5.52341 48.376 2.98551 49.4763 0.511141 50.7079C0.338717 51.6129 0 53.3913 0 53.3913L8.11421 56.2048L11.447 57.3603L11.4562 57.3526C12.8727 64.8217 17.0641 71.4818 23.1917 76C23.1842 75.9233 23.1784 75.8412 23.1712 75.7632C22.6973 68.3115 23.4397 60.8325 25.3695 53.6184C26.4689 49.1081 28.3763 44.8333 31 41C30.3272 41.0898 29.6266 41.2067 28.9126 41.3369C28.795 41.3586 28.6807 41.3768 28.5623 41.3992Z" fill="#343849"/>
<path d="M59.5623 163.399C53.8282 164.618 48.1774 166.198 42.6441 168.131C38.8356 169.409 35.1164 170.938 31.5111 172.708C31.3387 173.613 31 175.391 31 175.391L42.4469 179.36L42.4562 179.352C42.5291 179.737 42.6139 180.119 42.7016 180.5C44.3159 187.514 48.3913 193.721 54.1917 198C54.1841 197.923 54.1783 197.841 54.1712 197.763C53.7854 191.986 54.1517 186.183 55.2609 180.5C55.5688 178.867 55.9347 177.229 56.3695 175.618C57.4689 171.108 59.3763 166.833 62 163C61.3272 163.09 60.6267 163.206 59.9126 163.337C59.7951 163.359 59.6807 163.377 59.5623 163.399Z" fill="#343849"/>
<path d="M28.5623 122.399C22.8282 123.618 17.1774 125.198 11.6442 127.131C10.4594 127.541 9.27826 127.97 8.11421 128.412C5.52341 129.376 2.98551 130.476 0.511141 131.708C0.338717 132.613 0 134.391 0 134.391L8.11421 137.205L11.447 138.36L11.4562 138.352C12.8727 145.822 17.0641 152.482 23.1917 157C23.1842 156.924 23.1784 156.841 23.1712 156.763C22.6973 149.312 23.4397 141.833 25.3695 134.618C26.4688 130.108 28.3762 125.833 31 122C30.3272 122.09 29.6266 122.206 28.9126 122.337C28.795 122.359 28.6807 122.377 28.5623 122.399Z" fill="#343849"/>
<path d="M59.5623 245.399C53.8281 246.618 48.1774 248.198 42.6441 250.132C38.8356 251.409 35.1164 252.938 31.5111 254.708C31.3387 255.613 31 257.392 31 257.392L42.4469 261.36L42.4562 261.353C42.5291 261.738 42.6139 262.119 42.7016 262.5C44.3158 269.514 48.3912 275.721 54.1917 280C54.1841 279.924 54.1783 279.841 54.1712 279.763C53.7854 273.986 54.1517 268.183 55.2609 262.5C55.5688 260.867 55.9347 259.229 56.3695 257.619C57.4688 253.108 59.3763 248.833 62 245C61.3272 245.09 60.6267 245.207 59.9126 245.337C59.7951 245.359 59.6807 245.377 59.5623 245.399Z" fill="#343849"/>
<path d="M28.5623 204.399C22.8281 205.618 17.1774 207.198 11.6441 209.131C10.4594 209.541 9.27825 209.97 8.1142 210.412C5.52335 211.376 2.98544 212.476 0.51113 213.708C0.338707 214.613 0 216.391 0 216.391L8.11421 219.205L11.447 220.36L11.4562 220.352C12.8727 227.822 17.0641 234.482 23.1917 239C23.1842 238.924 23.1784 238.841 23.1712 238.763C22.6973 231.312 23.4397 223.833 25.3695 216.618C26.4688 212.108 28.3762 207.833 31 204C30.3272 204.09 29.6266 204.206 28.9126 204.337C28.795 204.359 28.6807 204.377 28.5623 204.399Z" fill="#343849"/>
<path d="M59.5623 327.399C53.8281 328.617 48.1773 330.198 42.6441 332.131C38.8356 333.409 35.1164 334.938 31.5111 336.708C31.3387 337.613 31 339.391 31 339.391L42.4469 343.36L42.4562 343.352C42.5291 343.738 42.614 344.119 42.7017 344.5C44.3158 351.514 48.3913 357.721 54.1917 362C54.1841 361.924 54.1783 361.841 54.1712 361.763C53.7854 355.986 54.1517 350.183 55.2609 344.5C55.5688 342.867 55.9347 341.229 56.3695 339.619C57.4688 335.108 59.3763 330.833 62 327C61.3272 327.09 60.6267 327.206 59.9126 327.337C59.7951 327.359 59.6807 327.377 59.5623 327.399Z" fill="#343849"/>
<path d="M28.5623 286.399C22.8282 287.618 17.1774 289.198 11.6441 291.131C10.4594 291.541 9.27825 291.97 8.1142 292.412C5.5234 293.376 2.9855 294.476 0.51113 295.708C0.338707 296.613 0 298.391 0 298.391L8.11421 301.205L11.447 302.36L11.4562 302.352C12.8726 309.822 17.064 316.482 23.1917 321C23.1842 320.923 23.1784 320.841 23.1712 320.763C22.6973 313.312 23.4397 305.833 25.3695 298.618C26.4689 294.108 28.3763 289.833 31 286C30.3272 286.09 29.6266 286.206 28.9126 286.337C28.795 286.359 28.6807 286.377 28.5623 286.399Z" fill="#343849"/>
<path d="M28.5623 367.399C22.8282 368.618 17.1774 370.198 11.6441 372.132C10.4594 372.541 9.27825 372.97 8.1142 373.412C5.5234 374.376 2.9855 375.476 0.51113 376.708C0.338707 377.613 0 379.392 0 379.392L8.11421 382.205L11.447 383.36L11.4562 383.353C12.8727 390.822 17.0641 397.482 23.1917 402C23.1842 401.924 23.1784 401.841 23.1712 401.763C22.6973 394.312 23.4397 386.833 25.3695 379.619C26.4688 375.108 28.3763 370.833 31 367C30.3272 367.09 29.6266 367.207 28.9126 367.337C28.795 367.359 28.6807 367.377 28.5623 367.399Z" fill="#343849"/>
<rect width="430" height="408" fill="url(#paint0_radial_122_1909)"/>
<defs>
<radialGradient id="paint0_radial_122_1909" cx="0" cy="0" r="1" gradientUnits="userSpaceOnUse" gradientTransform="translate(215 204) rotate(90) scale(204 215)">
<stop offset="0.703125" stop-color="#222432" stop-opacity="0"/>
<stop offset="1" stop-color="#222432"/>
</radialGradient>
</defs>
</svg>
