<svg width="540" height="512" viewBox="0 0 540 512" fill="none" xmlns="http://www.w3.org/2000/svg">
<g opacity="0.35">
<path d="M515.413 20.0901C515.504 20.5632 515.611 21.0322 515.721 21.5C517.752 30.1175 522.879 37.7434 530.177 43C530.167 42.9061 530.16 42.8049 530.151 42.7091C529.666 35.6114 530.126 28.4823 531.522 21.5C531.909 19.4931 532.37 17.4811 532.917 15.5027C534.299 9.96145 536.699 4.70942 540 0C539.154 0.110376 538.272 0.253629 537.374 0.413967C537.226 0.440534 537.082 0.462672 536.933 0.490185C529.719 1.98721 522.61 3.92916 515.649 6.3043C510.858 7.87394 506.179 9.75216 501.643 11.9265L501 15.2237L515.401 20.0996L515.413 20.0901Z" fill="#343849"/>
<path d="M536.933 102.49C529.719 103.987 522.61 105.929 515.649 108.304C510.858 109.874 506.179 111.753 501.643 113.927C501.426 115.039 501 117.224 501 117.224L515.401 122.1L515.413 122.09C515.504 122.563 515.611 123.032 515.721 123.5C517.752 132.118 522.879 139.744 530.177 145C530.167 144.906 530.16 144.805 530.151 144.709C529.666 137.611 530.126 130.483 531.522 123.5C531.909 121.493 532.37 119.481 532.917 117.503C534.299 111.961 536.699 106.709 540 102C539.154 102.11 538.272 102.254 537.374 102.414C537.226 102.44 537.082 102.463 536.933 102.49Z" fill="#343849"/>
<path d="M498.933 51.4905C491.719 52.9875 484.61 54.9294 477.649 57.3043C476.159 57.8075 474.673 58.3346 473.208 58.8773C469.949 60.062 466.756 61.4137 463.643 62.9268C463.426 64.0387 463 66.2237 463 66.2237L473.208 69.6802L477.401 71.0998L477.413 71.0903C479.195 80.2667 484.468 88.4491 492.177 94C492.167 93.9058 492.16 93.8049 492.151 93.7091C491.555 84.5542 492.489 75.3657 494.917 66.5026C496.3 60.9614 498.699 55.7094 502 51C501.154 51.1104 500.272 51.2539 499.374 51.414C499.226 51.4405 499.082 51.463 498.933 51.4905Z" fill="#343849"/>
<path d="M536.933 205.49C529.719 206.988 522.61 208.929 515.649 211.304C510.858 212.874 506.179 214.753 501.643 216.927C501.426 218.039 501 220.224 501 220.224L515.401 225.1L515.413 225.09C515.504 225.563 515.611 226.032 515.721 226.5C517.752 235.118 522.879 242.743 530.177 248C530.167 247.906 530.16 247.805 530.151 247.709C529.666 240.611 530.126 233.482 531.522 226.5C531.909 224.493 532.37 222.481 532.917 220.503C534.3 214.961 536.699 209.709 540 205C539.154 205.11 538.272 205.254 537.374 205.414C537.226 205.441 537.082 205.463 536.933 205.49Z" fill="#343849"/>
<path d="M498.933 154.49C491.719 155.987 484.61 157.929 477.649 160.304C476.159 160.807 474.673 161.334 473.208 161.877C469.949 163.062 466.756 164.413 463.643 165.927L463 169.224L473.208 172.68L477.401 174.1L477.413 174.09C479.195 183.267 484.468 191.449 492.177 197C492.167 196.906 492.16 196.805 492.151 196.709C491.555 187.554 492.489 178.366 494.917 169.503C496.299 163.961 498.699 158.709 502 154C501.154 154.11 500.272 154.254 499.374 154.414C499.226 154.44 499.082 154.463 498.933 154.49Z" fill="#343849"/>
<path d="M536.933 307.49C529.719 308.988 522.61 310.929 515.649 313.305C510.858 314.874 506.179 316.752 501.643 318.927L501 322.224L515.401 327.1L515.413 327.09C515.504 327.563 515.611 328.032 515.721 328.5C517.752 337.118 522.879 344.743 530.177 350C530.167 349.906 530.16 349.805 530.151 349.709C529.666 342.611 530.126 335.482 531.522 328.5C531.909 326.493 532.37 324.481 532.917 322.503C534.299 316.962 536.699 311.71 540 307C539.154 307.111 538.272 307.254 537.374 307.414C537.226 307.441 537.082 307.463 536.933 307.49Z" fill="#343849"/>
<path d="M498.933 256.49C491.719 257.987 484.61 259.929 477.649 262.304C476.159 262.808 474.673 263.334 473.208 263.877C469.949 265.062 466.756 266.414 463.643 267.927C463.426 269.039 463 271.224 463 271.224L473.208 274.68L477.401 276.1L477.413 276.09C479.195 285.267 484.468 293.449 492.177 299C492.167 298.906 492.16 298.805 492.151 298.709C491.555 289.554 492.489 280.366 494.917 271.503C496.299 265.961 498.699 260.709 502 256C501.154 256.11 500.272 256.254 499.374 256.414C499.226 256.441 499.082 256.463 498.933 256.49Z" fill="#343849"/>
<path d="M536.933 409.49C529.719 410.987 522.61 412.929 515.649 415.304C510.858 416.874 506.179 418.753 501.643 420.927C501.426 422.039 501 424.224 501 424.224L515.401 429.1L515.413 429.09C515.504 429.563 515.611 430.032 515.721 430.5C517.752 439.118 522.879 446.744 530.177 452C530.167 451.906 530.16 451.805 530.151 451.709C529.666 444.611 530.126 437.483 531.522 430.5C531.909 428.493 532.37 426.481 532.917 424.503C534.299 418.961 536.699 413.709 540 409C539.154 409.11 538.272 409.254 537.374 409.414C537.226 409.44 537.082 409.463 536.933 409.49Z" fill="#343849"/>
<path d="M498.933 358.49C491.719 359.988 484.61 361.929 477.649 364.304C476.159 364.807 474.673 365.335 473.208 365.877C469.949 367.062 466.756 368.414 463.643 369.927C463.426 371.039 463 373.224 463 373.224L473.208 376.68L477.401 378.1L477.413 378.09C479.195 387.267 484.468 395.449 492.177 401C492.167 400.906 492.16 400.805 492.151 400.709C491.555 391.554 492.489 382.366 494.917 373.503C496.3 367.961 498.699 362.709 502 358C501.154 358.11 500.272 358.254 499.374 358.414C499.226 358.441 499.082 358.463 498.933 358.49Z" fill="#343849"/>
<path d="M498.933 461.49C491.719 462.988 484.61 464.929 477.649 467.305C476.159 467.807 474.673 468.335 473.208 468.877C469.949 470.062 466.756 471.414 463.643 472.927L463 476.224L473.208 479.68L477.401 481.1L477.413 481.09C479.195 490.267 484.468 498.449 492.177 504C492.167 503.906 492.16 503.805 492.151 503.709C491.555 494.554 492.489 485.366 494.917 476.503C496.299 470.962 498.699 465.71 502 461C501.154 461.111 500.272 461.254 499.374 461.414C499.226 461.44 499.082 461.463 498.933 461.49Z" fill="#343849"/>
<path d="M459.933 0.49012C452.719 1.98718 445.61 3.92915 438.649 6.3043C433.858 7.87396 429.179 9.75217 424.643 11.9265L424 15.2237L438.401 20.0996L438.413 20.0901C438.504 20.5632 438.611 21.0322 438.721 21.5C440.752 30.1175 445.879 37.7434 453.177 43C453.167 42.9061 453.16 42.8049 453.151 42.709C452.666 35.6114 453.126 28.4823 454.522 21.5C454.909 19.4931 455.37 17.4811 455.917 15.5027C457.299 9.96145 459.699 4.70942 463 0C462.154 0.110376 461.272 0.253629 460.374 0.413967C460.226 0.44047 460.082 0.462607 459.933 0.49012Z" fill="#343849"/>
<path d="M459.933 102.49C452.719 103.987 445.61 105.929 438.649 108.304C433.858 109.874 429.179 111.753 424.643 113.927C424.426 115.039 424 117.224 424 117.224L438.401 122.1L438.413 122.09C438.504 122.563 438.611 123.032 438.721 123.5C440.752 132.118 445.879 139.744 453.177 145C453.167 144.906 453.16 144.805 453.151 144.709C452.666 137.611 453.126 130.483 454.522 123.5C454.909 121.493 455.37 119.481 455.917 117.503C457.299 111.961 459.699 106.709 463 102C462.154 102.11 461.272 102.254 460.374 102.414C460.226 102.44 460.082 102.463 459.933 102.49Z" fill="#343849"/>
<path d="M421.933 51.4905C414.719 52.9875 407.61 54.9294 400.649 57.3043C399.159 57.8074 397.673 58.3346 396.208 58.8773C392.949 60.062 389.756 61.4137 386.643 62.9268C386.426 64.0387 386 66.2236 386 66.2236L396.208 69.6802L400.401 71.0998L400.413 71.0903C402.195 80.2667 407.468 88.4491 415.177 94C415.167 93.9058 415.16 93.8049 415.151 93.7091C414.555 84.5542 415.489 75.3657 417.916 66.5026C419.3 60.9614 421.699 55.7095 425 51C424.154 51.1104 423.272 51.2539 422.374 51.414C422.226 51.4405 422.082 51.4629 421.933 51.4905Z" fill="#343849"/>
<path d="M459.933 205.49C452.719 206.988 445.61 208.929 438.649 211.304C433.858 212.874 429.179 214.753 424.643 216.927C424.426 218.039 424 220.224 424 220.224L438.401 225.1L438.413 225.09C438.504 225.563 438.611 226.032 438.721 226.5C440.752 235.118 445.879 242.743 453.177 248C453.167 247.906 453.16 247.805 453.151 247.709C452.666 240.611 453.126 233.482 454.522 226.5C454.909 224.493 455.37 222.481 455.917 220.503C457.3 214.961 459.699 209.709 463 205C462.154 205.11 461.272 205.254 460.374 205.414C460.226 205.441 460.082 205.463 459.933 205.49Z" fill="#343849"/>
<path d="M421.933 154.49C414.719 155.987 407.61 157.929 400.649 160.304C399.159 160.807 397.673 161.334 396.208 161.877C392.949 163.062 389.756 164.413 386.643 165.927C386.426 167.038 386 169.224 386 169.224L396.208 172.68L400.401 174.1L400.413 174.09C402.195 183.267 407.468 191.449 415.177 197C415.167 196.906 415.16 196.805 415.151 196.709C414.555 187.554 415.489 178.366 417.916 169.503C419.299 163.961 421.699 158.709 425 154C424.154 154.11 423.272 154.254 422.374 154.414C422.226 154.44 422.082 154.463 421.933 154.49Z" fill="#343849"/>
<path d="M459.933 307.49C452.719 308.988 445.61 310.929 438.649 313.305C433.858 314.874 429.179 316.752 424.643 318.927L424 322.224L438.401 327.1L438.413 327.09C438.504 327.563 438.611 328.032 438.721 328.5C440.752 337.118 445.879 344.743 453.177 350C453.167 349.906 453.16 349.805 453.151 349.709C452.666 342.611 453.126 335.482 454.522 328.5C454.909 326.493 455.37 324.481 455.917 322.503C457.299 316.962 459.699 311.71 463 307C462.154 307.111 461.272 307.254 460.374 307.414C460.226 307.441 460.082 307.463 459.933 307.49Z" fill="#343849"/>
<path d="M421.933 256.49C414.719 257.987 407.61 259.929 400.649 262.304C399.159 262.808 397.673 263.334 396.208 263.877C392.949 265.062 389.756 266.414 386.643 267.927C386.426 269.039 386 271.224 386 271.224L396.208 274.68L400.401 276.1L400.413 276.09C402.195 285.267 407.468 293.449 415.177 299C415.167 298.906 415.16 298.805 415.151 298.709C414.555 289.554 415.489 280.366 417.916 271.503C419.299 265.961 421.699 260.709 425 256C424.154 256.11 423.272 256.254 422.374 256.414C422.226 256.441 422.082 256.463 421.933 256.49Z" fill="#343849"/>
<path d="M459.933 409.49C452.719 410.987 445.61 412.929 438.649 415.304C433.858 416.874 429.179 418.753 424.643 420.927C424.426 422.039 424 424.224 424 424.224L438.401 429.1L438.413 429.09C438.504 429.563 438.611 430.032 438.721 430.5C440.752 439.118 445.879 446.744 453.177 452C453.167 451.906 453.16 451.805 453.151 451.709C452.666 444.611 453.126 437.483 454.522 430.5C454.909 428.493 455.37 426.481 455.917 424.503C457.299 418.961 459.699 413.709 463 409C462.154 409.11 461.272 409.254 460.374 409.414C460.226 409.44 460.082 409.463 459.933 409.49Z" fill="#343849"/>
<path d="M421.933 358.49C414.719 359.988 407.61 361.929 400.649 364.304C399.159 364.807 397.673 365.335 396.208 365.877C392.949 367.062 389.756 368.414 386.643 369.927C386.426 371.039 386 373.224 386 373.224L396.208 376.68L400.401 378.1L400.413 378.09C402.195 387.267 407.468 395.449 415.177 401C415.167 400.906 415.16 400.805 415.151 400.709C414.555 391.554 415.489 382.366 417.916 373.503C419.3 367.961 421.699 362.709 425 358C424.154 358.11 423.272 358.254 422.374 358.414C422.226 358.441 422.082 358.463 421.933 358.49Z" fill="#343849"/>
<path d="M421.933 461.49C414.719 462.988 407.61 464.929 400.649 467.305C399.159 467.807 397.673 468.335 396.208 468.877C392.949 470.062 389.756 471.414 386.643 472.927C386.426 474.039 386 476.224 386 476.224L396.208 479.68L400.401 481.1L400.413 481.09C402.195 490.267 407.468 498.449 415.177 504C415.167 503.906 415.16 503.805 415.151 503.709C414.555 494.554 415.489 485.366 417.916 476.503C419.299 470.962 421.699 465.71 425 461C424.154 461.111 423.272 461.254 422.374 461.414C422.226 461.44 422.082 461.463 421.933 461.49Z" fill="#343849"/>
<path d="M382.933 0.49012C375.719 1.98717 368.61 3.92914 361.649 6.3043C356.858 7.87394 352.179 9.75216 347.643 11.9265C347.426 13.0385 347 15.2237 347 15.2237L361.401 20.0996L361.413 20.0901C361.504 20.5632 361.611 21.0322 361.721 21.5C363.752 30.1175 368.879 37.7434 376.177 43C376.167 42.9061 376.16 42.8049 376.151 42.709C375.666 35.6114 376.126 28.4823 377.522 21.5C377.909 19.4931 378.37 17.4811 378.917 15.5027C380.299 9.96146 382.699 4.70943 386 0C385.154 0.110376 384.272 0.253629 383.374 0.413967C383.226 0.44047 383.082 0.462607 382.933 0.49012Z" fill="#343849"/>
<path d="M382.933 102.49C375.719 103.987 368.61 105.929 361.649 108.304C356.858 109.874 352.179 111.753 347.643 113.927C347.426 115.039 347 117.224 347 117.224L361.401 122.1L361.413 122.09C361.504 122.563 361.611 123.032 361.721 123.5C363.752 132.118 368.879 139.744 376.177 145C376.167 144.906 376.16 144.805 376.151 144.709C375.666 137.611 376.126 130.483 377.522 123.5C377.909 121.493 378.37 119.481 378.917 117.503C380.299 111.961 382.699 106.709 386 102C385.154 102.11 384.272 102.254 383.374 102.414C383.226 102.44 383.082 102.463 382.933 102.49Z" fill="#343849"/>
<path d="M344.933 51.4905C337.719 52.9875 330.61 54.9294 323.649 57.3043C322.159 57.8075 320.673 58.3346 319.208 58.8773C315.949 60.062 312.756 61.4137 309.643 62.9268C309.426 64.0387 309 66.2237 309 66.2237L319.208 69.6802L323.401 71.0998L323.413 71.0903C325.195 80.2667 330.468 88.4491 338.177 94C338.167 93.9058 338.16 93.8049 338.151 93.7091C337.555 84.5542 338.489 75.3657 340.917 66.5026C342.3 60.9614 344.699 55.7095 348 51C347.154 51.1104 346.272 51.2539 345.374 51.414C345.226 51.4405 345.082 51.463 344.933 51.4905Z" fill="#343849"/>
<path d="M382.933 205.49C375.719 206.988 368.61 208.929 361.649 211.304C356.858 212.874 352.179 214.753 347.643 216.927C347.426 218.039 347 220.224 347 220.224L361.401 225.1L361.413 225.09C361.504 225.563 361.611 226.032 361.721 226.5C363.752 235.118 368.879 242.743 376.177 248C376.167 247.906 376.16 247.805 376.151 247.709C375.666 240.611 376.126 233.482 377.522 226.5C377.909 224.493 378.37 222.481 378.917 220.503C380.3 214.961 382.699 209.709 386 205C385.154 205.11 384.272 205.254 383.374 205.414C383.226 205.441 383.082 205.463 382.933 205.49Z" fill="#343849"/>
<path d="M344.933 154.49C337.719 155.987 330.61 157.929 323.649 160.304C322.159 160.807 320.673 161.334 319.208 161.877C315.949 163.062 312.756 164.413 309.643 165.927C309.426 167.038 309 169.224 309 169.224L319.208 172.68L323.401 174.1L323.413 174.09C325.195 183.267 330.468 191.449 338.177 197C338.167 196.906 338.16 196.805 338.151 196.709C337.555 187.554 338.489 178.366 340.916 169.503C342.299 163.961 344.699 158.709 348 154C347.154 154.11 346.272 154.254 345.374 154.414C345.226 154.44 345.082 154.463 344.933 154.49Z" fill="#343849"/>
<path d="M382.933 307.49C375.719 308.988 368.61 310.929 361.649 313.305C356.858 314.874 352.179 316.752 347.643 318.927C347.426 320.039 347 322.224 347 322.224L361.401 327.1L361.413 327.09C361.504 327.563 361.611 328.032 361.721 328.5C363.752 337.118 368.879 344.743 376.177 350C376.167 349.906 376.16 349.805 376.151 349.709C375.666 342.611 376.126 335.482 377.522 328.5C377.909 326.493 378.37 324.481 378.917 322.503C380.299 316.962 382.699 311.71 386 307C385.154 307.111 384.272 307.254 383.374 307.414C383.226 307.441 383.082 307.463 382.933 307.49Z" fill="#343849"/>
<path d="M344.933 256.49C337.719 257.987 330.61 259.929 323.649 262.304C322.159 262.808 320.673 263.334 319.208 263.877C315.949 265.062 312.756 266.414 309.643 267.927C309.426 269.039 309 271.224 309 271.224L319.208 274.68L323.401 276.1L323.413 276.09C325.195 285.267 330.468 293.449 338.177 299C338.167 298.906 338.16 298.805 338.151 298.709C337.555 289.554 338.489 280.366 340.916 271.503C342.299 265.961 344.699 260.709 348 256C347.154 256.11 346.272 256.254 345.374 256.414C345.226 256.441 345.082 256.463 344.933 256.49Z" fill="#343849"/>
<path d="M382.933 409.49C375.719 410.987 368.61 412.929 361.649 415.304C356.858 416.874 352.179 418.753 347.643 420.927C347.426 422.039 347 424.224 347 424.224L361.401 429.1L361.413 429.09C361.504 429.563 361.611 430.032 361.721 430.5C363.752 439.118 368.879 446.743 376.177 452C376.167 451.906 376.16 451.805 376.151 451.709C375.666 444.611 376.126 437.483 377.522 430.5C377.909 428.493 378.37 426.481 378.917 424.503C380.299 418.961 382.699 413.709 386 409C385.154 409.11 384.272 409.254 383.374 409.414C383.226 409.44 383.082 409.463 382.933 409.49Z" fill="#343849"/>
<path d="M344.933 358.49C337.719 359.988 330.61 361.929 323.649 364.304C322.159 364.807 320.673 365.335 319.208 365.877C315.949 367.062 312.756 368.414 309.643 369.927C309.426 371.039 309 373.224 309 373.224L319.208 376.68L323.401 378.1L323.413 378.09C325.195 387.267 330.468 395.449 338.177 401C338.167 400.906 338.16 400.805 338.151 400.709C337.555 391.554 338.489 382.366 340.916 373.503C342.299 367.961 344.699 362.709 348 358C347.154 358.11 346.272 358.254 345.374 358.414C345.226 358.441 345.082 358.463 344.933 358.49Z" fill="#343849"/>
<path d="M344.933 461.49C337.719 462.987 330.61 464.929 323.649 467.305C322.159 467.807 320.673 468.335 319.208 468.877C315.949 470.062 312.756 471.414 309.643 472.927C309.426 474.039 309 476.224 309 476.224L319.208 479.68L323.401 481.1L323.413 481.09C325.195 490.267 330.468 498.449 338.177 504C338.167 503.906 338.16 503.805 338.151 503.709C337.555 494.554 338.489 485.366 340.916 476.503C342.299 470.962 344.699 465.71 348 461C347.154 461.111 346.272 461.254 345.374 461.414C345.226 461.44 345.082 461.463 344.933 461.49Z" fill="#343849"/>
<path d="M305.933 0.49012C298.719 1.98717 291.61 3.92914 284.649 6.3043C279.858 7.87393 275.179 9.75215 270.643 11.9265C270.426 13.0385 270 15.2237 270 15.2237L284.401 20.0996L284.413 20.0901C284.504 20.5632 284.611 21.0322 284.721 21.5C286.752 30.1175 291.879 37.7434 299.177 43C299.167 42.9061 299.16 42.8049 299.151 42.709C298.666 35.6114 299.126 28.4823 300.522 21.5C300.909 19.4931 301.37 17.4811 301.917 15.5027C303.299 9.96148 305.699 4.70945 309 0C308.154 0.110376 307.272 0.253629 306.374 0.413967C306.226 0.44047 306.082 0.462607 305.933 0.49012Z" fill="#343849"/>
<path d="M305.933 102.49C298.719 103.987 291.61 105.929 284.649 108.304C279.858 109.874 275.179 111.752 270.643 113.927C270.426 115.039 270 117.224 270 117.224L284.401 122.1L284.413 122.09C284.504 122.563 284.611 123.032 284.721 123.5C286.752 132.118 291.879 139.744 299.177 145C299.167 144.906 299.16 144.805 299.151 144.709C298.666 137.611 299.126 130.483 300.522 123.5C300.909 121.493 301.37 119.481 301.917 117.503C303.299 111.961 305.699 106.709 309 102C308.154 102.11 307.272 102.254 306.374 102.414C306.226 102.44 306.082 102.463 305.933 102.49Z" fill="#343849"/>
<path d="M266.933 51.4905C259.719 52.9875 252.61 54.9294 245.649 57.3043C244.159 57.8074 242.673 58.3346 241.208 58.8773C237.949 60.062 234.756 61.4137 231.643 62.9268C231.426 64.0387 231 66.2236 231 66.2236L241.208 69.6802L245.401 71.0998L245.413 71.0903C247.195 80.2667 252.468 88.4491 260.177 94C260.167 93.9058 260.16 93.8049 260.151 93.7091C259.555 84.5542 260.489 75.3657 262.917 66.5026C264.3 60.9614 266.699 55.7095 270 51C269.154 51.1104 268.272 51.2539 267.374 51.414C267.226 51.4405 267.082 51.4629 266.933 51.4905Z" fill="#343849"/>
<path d="M305.933 205.49C298.719 206.988 291.61 208.929 284.649 211.304C279.858 212.874 275.179 214.752 270.643 216.927C270.426 218.039 270 220.224 270 220.224L284.401 225.1L284.413 225.09C284.504 225.563 284.611 226.032 284.721 226.5C286.752 235.118 291.879 242.743 299.177 248C299.167 247.906 299.16 247.805 299.151 247.709C298.666 240.611 299.126 233.482 300.522 226.5C300.909 224.493 301.37 222.481 301.917 220.503C303.3 214.961 305.699 209.709 309 205C308.154 205.11 307.272 205.254 306.374 205.414C306.226 205.441 306.082 205.463 305.933 205.49Z" fill="#343849"/>
<path d="M266.933 154.49C259.719 155.987 252.61 157.929 245.649 160.304C244.159 160.807 242.673 161.334 241.208 161.877C237.949 163.062 234.756 164.413 231.643 165.927L231 169.224L241.208 172.68L245.401 174.1L245.413 174.09C247.195 183.267 252.468 191.449 260.177 197C260.167 196.906 260.16 196.805 260.151 196.709C259.555 187.554 260.489 178.366 262.917 169.503C264.299 163.961 266.699 158.709 270 154C269.154 154.11 268.272 154.254 267.374 154.414C267.226 154.44 267.082 154.463 266.933 154.49Z" fill="#343849"/>
<path d="M305.933 307.49C298.719 308.988 291.61 310.929 284.649 313.305C279.858 314.874 275.179 316.752 270.643 318.927C270.426 320.039 270 322.224 270 322.224L284.401 327.1L284.413 327.09C284.504 327.563 284.611 328.032 284.721 328.5C286.752 337.118 291.879 344.743 299.177 350C299.167 349.906 299.16 349.805 299.151 349.709C298.666 342.611 299.126 335.482 300.522 328.5C300.909 326.493 301.37 324.481 301.917 322.503C303.3 316.962 305.699 311.71 309 307C308.154 307.111 307.272 307.254 306.374 307.414C306.226 307.441 306.082 307.463 305.933 307.49Z" fill="#343849"/>
<path d="M266.933 256.49C259.719 257.987 252.61 259.929 245.649 262.304C244.159 262.808 242.673 263.334 241.208 263.877C237.949 265.062 234.756 266.414 231.643 267.927C231.426 269.039 231 271.224 231 271.224L241.208 274.68L245.401 276.1L245.413 276.09C247.195 285.267 252.468 293.449 260.177 299C260.167 298.906 260.16 298.805 260.151 298.709C259.555 289.554 260.489 280.366 262.917 271.503C264.299 265.961 266.699 260.709 270 256C269.154 256.11 268.272 256.254 267.374 256.414C267.226 256.441 267.082 256.463 266.933 256.49Z" fill="#343849"/>
<path d="M305.933 409.49C298.719 410.987 291.61 412.929 284.649 415.304C279.858 416.874 275.179 418.752 270.643 420.927C270.426 422.039 270 424.224 270 424.224L284.401 429.1L284.413 429.09C284.504 429.563 284.611 430.032 284.721 430.5C286.752 439.118 291.879 446.744 299.177 452C299.167 451.906 299.16 451.805 299.151 451.709C298.666 444.611 299.126 437.483 300.522 430.5C300.909 428.493 301.37 426.481 301.917 424.503C303.299 418.962 305.699 413.709 309 409C308.154 409.11 307.272 409.254 306.374 409.414C306.226 409.44 306.082 409.463 305.933 409.49Z" fill="#343849"/>
<path d="M266.933 358.49C259.719 359.988 252.61 361.929 245.649 364.304C244.159 364.807 242.673 365.335 241.208 365.877C237.949 367.062 234.756 368.414 231.643 369.927C231.426 371.039 231 373.224 231 373.224L241.208 376.68L245.401 378.1L245.413 378.09C247.195 387.267 252.468 395.449 260.177 401C260.167 400.906 260.16 400.805 260.151 400.709C259.555 391.554 260.489 382.366 262.917 373.503C264.3 367.961 266.699 362.709 270 358C269.154 358.11 268.272 358.254 267.374 358.414C267.226 358.441 267.082 358.463 266.933 358.49Z" fill="#343849"/>
<path d="M266.933 461.49C259.719 462.987 252.61 464.929 245.649 467.305C244.159 467.807 242.673 468.335 241.208 468.877C237.949 470.062 234.756 471.414 231.643 472.927L231 476.224L241.208 479.68L245.401 481.1L245.413 481.09C247.195 490.267 252.468 498.449 260.177 504C260.167 503.906 260.16 503.805 260.151 503.709C259.555 494.554 260.489 485.366 262.917 476.503C264.3 470.962 266.699 465.71 270 461C269.154 461.111 268.272 461.254 267.374 461.414C267.226 461.44 267.082 461.463 266.933 461.49Z" fill="#343849"/>
<path d="M228.933 0.49012C221.719 1.98717 214.61 3.92914 207.649 6.3043C202.858 7.87394 198.179 9.75216 193.643 11.9265L193 15.2237L207.401 20.0996L207.413 20.0901C207.504 20.5632 207.611 21.0322 207.721 21.5C209.752 30.1175 214.879 37.7434 222.177 43C222.167 42.9061 222.16 42.8049 222.151 42.709C221.666 35.6114 222.126 28.4823 223.522 21.5C223.909 19.4931 224.37 17.4811 224.917 15.5027C226.299 9.96145 228.699 4.70942 232 0C231.154 0.110376 230.272 0.253629 229.374 0.413967C229.226 0.44047 229.082 0.462607 228.933 0.49012Z" fill="#343849"/>
<path d="M228.933 102.49C221.719 103.987 214.61 105.929 207.649 108.304C202.858 109.874 198.179 111.753 193.643 113.927C193.426 115.039 193 117.224 193 117.224L207.401 122.1L207.413 122.09C207.504 122.563 207.611 123.032 207.721 123.5C209.752 132.118 214.879 139.744 222.177 145C222.167 144.906 222.16 144.805 222.151 144.709C221.666 137.611 222.126 130.483 223.522 123.5C223.909 121.493 224.37 119.481 224.917 117.503C226.299 111.961 228.699 106.709 232 102C231.154 102.11 230.272 102.254 229.374 102.414C229.226 102.44 229.082 102.463 228.933 102.49Z" fill="#343849"/>
<path d="M189.933 51.4905C182.719 52.9875 175.61 54.9294 168.649 57.3043C167.159 57.8074 165.673 58.3346 164.208 58.8773C160.949 60.062 157.756 61.4137 154.643 62.9268C154.426 64.0387 154 66.2236 154 66.2236L164.208 69.6802L168.401 71.0998L168.413 71.0903C170.195 80.2667 175.468 88.4491 183.177 94C183.167 93.9058 183.16 93.8049 183.151 93.7091C182.555 84.5542 183.489 75.3657 185.917 66.5026C187.3 60.9614 189.699 55.7094 193 51C192.154 51.1104 191.272 51.2539 190.374 51.414C190.226 51.4405 190.082 51.4629 189.933 51.4905Z" fill="#343849"/>
<path d="M228.933 205.49C221.719 206.988 214.61 208.929 207.649 211.304C202.858 212.874 198.179 214.753 193.643 216.927C193.426 218.039 193 220.224 193 220.224L207.401 225.1L207.413 225.09C207.504 225.563 207.611 226.032 207.721 226.5C209.752 235.118 214.879 242.743 222.177 248C222.167 247.906 222.16 247.805 222.151 247.709C221.666 240.611 222.126 233.482 223.522 226.5C223.909 224.493 224.37 222.481 224.917 220.503C226.3 214.961 228.699 209.709 232 205C231.154 205.11 230.272 205.254 229.374 205.414C229.226 205.441 229.082 205.463 228.933 205.49Z" fill="#343849"/>
<path d="M189.933 154.49C182.719 155.987 175.61 157.929 168.649 160.304C167.159 160.807 165.673 161.334 164.208 161.877C160.949 163.062 157.756 164.414 154.643 165.927L154 169.224L164.208 172.68L168.401 174.1L168.413 174.09C170.195 183.267 175.468 191.449 183.177 197C183.167 196.906 183.16 196.805 183.151 196.709C182.555 187.554 183.489 178.366 185.917 169.503C187.299 163.961 189.699 158.709 193 154C192.154 154.11 191.272 154.254 190.374 154.414C190.226 154.441 190.082 154.463 189.933 154.49Z" fill="#343849"/>
<path d="M228.933 307.49C221.719 308.988 214.61 310.929 207.649 313.305C202.858 314.874 198.179 316.752 193.643 318.927L193 322.224L207.401 327.1L207.413 327.09C207.504 327.563 207.611 328.032 207.721 328.5C209.752 337.118 214.879 344.743 222.177 350C222.167 349.906 222.16 349.805 222.151 349.709C221.666 342.611 222.126 335.482 223.522 328.5C223.909 326.493 224.37 324.481 224.917 322.503C226.299 316.962 228.699 311.71 232 307C231.154 307.111 230.272 307.254 229.374 307.414C229.226 307.441 229.082 307.463 228.933 307.49Z" fill="#343849"/>
<path d="M189.933 256.49C182.719 257.987 175.61 259.929 168.649 262.304C167.159 262.808 165.673 263.334 164.208 263.877C160.949 265.062 157.756 266.414 154.643 267.927C154.426 269.039 154 271.224 154 271.224L164.208 274.68L168.401 276.1L168.413 276.09C170.195 285.267 175.468 293.449 183.177 299C183.167 298.906 183.16 298.805 183.151 298.709C182.555 289.554 183.489 280.366 185.917 271.503C187.299 265.961 189.699 260.709 193 256C192.154 256.11 191.272 256.254 190.374 256.414C190.226 256.441 190.082 256.463 189.933 256.49Z" fill="#343849"/>
<path d="M228.933 409.49C221.719 410.987 214.61 412.929 207.649 415.304C202.858 416.874 198.179 418.753 193.643 420.927C193.426 422.039 193 424.224 193 424.224L207.401 429.1L207.413 429.09C207.504 429.563 207.611 430.032 207.721 430.5C209.752 439.118 214.879 446.744 222.177 452C222.167 451.906 222.16 451.805 222.151 451.709C221.666 444.611 222.126 437.483 223.522 430.5C223.909 428.493 224.37 426.481 224.917 424.503C226.299 418.961 228.699 413.709 232 409C231.154 409.11 230.272 409.254 229.374 409.414C229.226 409.44 229.082 409.463 228.933 409.49Z" fill="#343849"/>
<path d="M189.933 358.49C182.719 359.988 175.61 361.929 168.649 364.304C167.159 364.807 165.673 365.335 164.208 365.877C160.949 367.062 157.756 368.414 154.643 369.927C154.426 371.039 154 373.224 154 373.224L164.208 376.68L168.401 378.1L168.413 378.09C170.195 387.267 175.468 395.449 183.177 401C183.167 400.906 183.16 400.805 183.151 400.709C182.555 391.554 183.489 382.366 185.917 373.503C187.3 367.961 189.699 362.709 193 358C192.154 358.11 191.272 358.254 190.374 358.414C190.226 358.441 190.082 358.463 189.933 358.49Z" fill="#343849"/>
<path d="M189.933 461.49C182.719 462.988 175.61 464.929 168.649 467.305C167.159 467.807 165.673 468.335 164.208 468.877C160.949 470.062 157.756 471.414 154.643 472.927L154 476.224L164.208 479.68L168.401 481.1L168.413 481.09C170.195 490.267 175.468 498.449 183.177 504C183.167 503.906 183.16 503.805 183.151 503.709C182.555 494.554 183.489 485.366 185.917 476.503C187.299 470.962 189.699 465.71 193 461C192.154 461.111 191.272 461.254 190.374 461.414C190.226 461.44 190.082 461.463 189.933 461.49Z" fill="#343849"/>
<path d="M151.933 0.49012C144.719 1.98718 137.61 3.92915 130.649 6.3043C125.858 7.87396 121.179 9.75218 116.643 11.9265L116 15.2237L130.401 20.0996L130.413 20.0901C130.504 20.5632 130.611 21.0322 130.721 21.5C132.752 30.1175 137.879 37.7434 145.177 43C145.167 42.9061 145.16 42.8049 145.151 42.7091C144.666 35.6114 145.126 28.4823 146.522 21.5C146.909 19.4931 147.37 17.4811 147.917 15.5027C149.299 9.96145 151.699 4.70942 155 0C154.154 0.110376 153.272 0.253629 152.374 0.413967C152.226 0.44047 152.082 0.462607 151.933 0.49012Z" fill="#343849"/>
<path d="M151.933 102.49C144.719 103.987 137.61 105.929 130.649 108.304C125.858 109.874 121.179 111.753 116.643 113.927C116.426 115.039 116 117.224 116 117.224L130.401 122.1L130.413 122.09C130.504 122.563 130.611 123.032 130.721 123.5C132.752 132.118 137.879 139.744 145.177 145C145.167 144.906 145.16 144.805 145.151 144.709C144.666 137.611 145.126 130.483 146.522 123.5C146.909 121.493 147.37 119.481 147.917 117.503C149.299 111.961 151.699 106.709 155 102C154.154 102.11 153.272 102.254 152.374 102.414C152.226 102.44 152.082 102.463 151.933 102.49Z" fill="#343849"/>
<path d="M112.933 51.4905C105.719 52.9875 98.6103 54.9294 91.649 57.3043C90.1586 57.8075 88.6726 58.3346 87.2081 58.8773C83.9487 60.062 80.7559 61.4137 77.643 62.9268C77.426 64.0387 77 66.2237 77 66.2237L87.2081 69.6802L91.4009 71.0998L91.4126 71.0904C93.1946 80.2667 98.4677 88.4491 106.177 94C106.167 93.9058 106.16 93.8049 106.151 93.7091C105.555 84.5542 106.489 75.3657 108.916 66.5026C110.3 60.9614 112.699 55.7095 116 51C115.154 51.1104 114.272 51.2539 113.374 51.414C113.226 51.4405 113.082 51.463 112.933 51.4905Z" fill="#343849"/>
<path d="M151.933 205.49C144.719 206.988 137.61 208.929 130.649 211.304C125.858 212.874 121.179 214.753 116.643 216.927C116.426 218.039 116 220.224 116 220.224L130.401 225.1L130.413 225.09C130.504 225.563 130.611 226.032 130.721 226.5C132.752 235.118 137.879 242.743 145.177 248C145.167 247.906 145.16 247.805 145.151 247.709C144.666 240.611 145.126 233.482 146.522 226.5C146.909 224.493 147.37 222.481 147.917 220.503C149.3 214.961 151.699 209.709 155 205C154.154 205.11 153.272 205.254 152.374 205.414C152.226 205.441 152.082 205.463 151.933 205.49Z" fill="#343849"/>
<path d="M112.933 154.49C105.719 155.987 98.6102 157.929 91.649 160.304C90.1586 160.807 88.6726 161.334 87.2081 161.877C83.9487 163.062 80.7559 164.413 77.643 165.927C77.426 167.039 77 169.224 77 169.224L87.2081 172.68L91.4009 174.1L91.4126 174.09C93.1946 183.267 98.4677 191.449 106.177 197C106.167 196.906 106.16 196.805 106.151 196.709C105.555 187.554 106.489 178.366 108.916 169.503C110.299 163.961 112.699 158.709 116 154C115.154 154.11 114.272 154.254 113.374 154.414C113.226 154.441 113.082 154.463 112.933 154.49Z" fill="#343849"/>
<path d="M151.933 307.49C144.719 308.988 137.61 310.929 130.649 313.305C125.858 314.874 121.179 316.752 116.643 318.927L116 322.224L130.401 327.1L130.413 327.09C130.504 327.563 130.611 328.032 130.721 328.5C132.752 337.118 137.879 344.743 145.177 350C145.167 349.906 145.16 349.805 145.151 349.709C144.666 342.611 145.126 335.482 146.522 328.5C146.909 326.493 147.37 324.481 147.917 322.503C149.299 316.962 151.699 311.71 155 307C154.154 307.111 153.272 307.254 152.374 307.414C152.226 307.441 152.082 307.463 151.933 307.49Z" fill="#343849"/>
<path d="M112.933 256.49C105.719 257.987 98.6102 259.929 91.649 262.304C90.1586 262.807 88.6726 263.334 87.2081 263.877C83.9487 265.062 80.7558 266.414 77.643 267.927C77.426 269.039 77 271.224 77 271.224L87.2081 274.68L91.4009 276.1L91.4126 276.09C93.1946 285.267 98.4677 293.449 106.177 299C106.167 298.906 106.16 298.805 106.151 298.709C105.555 289.554 106.489 280.366 108.916 271.503C110.299 265.961 112.699 260.709 116 256C115.154 256.11 114.272 256.254 113.374 256.414C113.226 256.441 113.082 256.463 112.933 256.49Z" fill="#343849"/>
<path d="M151.933 409.49C144.719 410.987 137.61 412.929 130.649 415.304C125.858 416.874 121.179 418.753 116.643 420.927C116.426 422.039 116 424.224 116 424.224L130.401 429.1L130.413 429.09C130.504 429.563 130.611 430.032 130.721 430.5C132.752 439.118 137.879 446.744 145.177 452C145.167 451.906 145.16 451.805 145.151 451.709C144.666 444.611 145.126 437.483 146.522 430.5C146.909 428.493 147.37 426.481 147.917 424.503C149.299 418.961 151.699 413.709 155 409C154.154 409.11 153.272 409.254 152.374 409.414C152.226 409.44 152.082 409.463 151.933 409.49Z" fill="#343849"/>
<path d="M112.933 358.49C105.719 359.988 98.6103 361.929 91.649 364.304C90.1586 364.807 88.6726 365.335 87.2081 365.877C83.9487 367.062 80.7559 368.414 77.643 369.927C77.426 371.039 77 373.224 77 373.224L87.2081 376.68L91.4009 378.1L91.4126 378.09C93.1945 387.267 98.4677 395.449 106.177 401C106.167 400.906 106.16 400.805 106.151 400.709C105.555 391.554 106.489 382.366 108.916 373.503C110.3 367.961 112.699 362.709 116 358C115.154 358.11 114.272 358.254 113.374 358.414C113.226 358.441 113.082 358.463 112.933 358.49Z" fill="#343849"/>
<path d="M112.933 461.49C105.719 462.988 98.6102 464.93 91.649 467.305C90.1586 467.807 88.6726 468.335 87.2081 468.877C83.9487 470.062 80.7559 471.414 77.643 472.927C77.426 474.039 77 476.224 77 476.224L87.2081 479.68L91.4009 481.1L91.4126 481.09C93.1946 490.267 98.4677 498.449 106.177 504C106.167 503.906 106.16 503.805 106.151 503.709C105.555 494.554 106.489 485.366 108.916 476.503C110.299 470.962 112.699 465.71 116 461C115.154 461.111 114.272 461.254 113.374 461.414C113.226 461.441 113.082 461.463 112.933 461.49Z" fill="#343849"/>
<path d="M74.9332 0.490184C67.7193 1.98723 60.6103 3.9292 53.6491 6.30435C48.8577 7.874 44.1787 9.75222 39.643 11.9266C39.4261 13.0385 39 15.2238 39 15.2238L53.401 20.0997L53.4127 20.0902C53.5043 20.5633 53.6112 21.0323 53.7215 21.5C55.7522 30.1175 60.8793 37.7434 68.1767 43C68.1672 42.9061 68.1599 42.8049 68.1509 42.7091C67.6656 35.6114 68.1264 28.4823 69.5219 21.5C69.9092 19.4931 70.3696 17.4812 70.9166 15.5027C72.2994 9.96149 74.6992 4.70945 78 0C77.1536 0.110376 76.2723 0.253628 75.374 0.413966C75.2261 0.440534 75.0823 0.462671 74.9332 0.490184Z" fill="#343849"/>
<path d="M74.9332 102.49C67.7192 103.987 60.6102 105.929 53.6491 108.304C48.8577 109.874 44.1787 111.753 39.643 113.927C39.4261 115.039 39 117.224 39 117.224L53.401 122.1L53.4127 122.09C53.5043 122.563 53.6111 123.032 53.7214 123.5C55.7521 132.118 60.8793 139.744 68.1766 145C68.1672 144.906 68.1599 144.805 68.1508 144.709C67.6655 137.611 68.1263 130.483 69.5218 123.5C69.9091 121.493 70.3695 119.481 70.9165 117.503C72.2994 111.961 74.6992 106.709 78 102C77.1536 102.11 76.2723 102.254 75.374 102.414C75.226 102.44 75.0822 102.463 74.9332 102.49Z" fill="#343849"/>
<path d="M35.9332 51.4905C28.7194 52.9875 21.6103 54.9294 14.6491 57.3043C13.1586 57.8075 11.6726 58.3346 10.2082 58.8773C6.9488 60.062 3.75597 61.4137 0.643048 62.9268C0.426128 64.0387 0 66.2236 0 66.2236L10.2082 69.6802L14.401 71.0998L14.4127 71.0903C16.1946 80.2667 21.4677 88.4491 29.1767 94C29.1672 93.9058 29.1599 93.8049 29.1509 93.7091C28.5546 84.5542 29.4887 75.3657 31.9165 66.5026C33.2995 60.9614 35.6993 55.7095 39 51C38.1536 51.1104 37.2722 51.2539 36.374 51.414C36.226 51.4405 36.0822 51.463 35.9332 51.4905Z" fill="#343849"/>
<path d="M74.9332 205.49C67.7193 206.988 60.6103 208.929 53.6491 211.304C48.8577 212.874 44.1787 214.753 39.643 216.927C39.4261 218.039 39 220.224 39 220.224L53.401 225.1L53.4127 225.09C53.5043 225.563 53.6111 226.032 53.7214 226.5C55.7522 235.118 60.8793 242.743 68.1766 248C68.1672 247.906 68.1599 247.805 68.1508 247.709C67.6655 240.611 68.1263 233.482 69.5218 226.5C69.9091 224.493 70.3695 222.481 70.9165 220.503C72.2995 214.961 74.6993 209.709 78 205C77.1536 205.11 76.2723 205.254 75.374 205.414C75.226 205.441 75.0822 205.463 74.9332 205.49Z" fill="#343849"/>
<path d="M35.9332 154.49C28.7193 155.987 21.6103 157.929 14.6491 160.304C13.1586 160.807 11.6726 161.334 10.2082 161.877C6.9488 163.062 3.75596 164.414 0.643048 165.927C0.426128 167.039 0 169.224 0 169.224L10.2082 172.68L14.401 174.1L14.4127 174.09C16.1947 183.267 21.4677 191.449 29.1767 197C29.1672 196.906 29.1599 196.805 29.1509 196.709C28.5546 187.554 29.4887 178.366 31.9165 169.503C33.2994 163.961 35.6992 158.709 39 154C38.1536 154.11 37.2722 154.254 36.374 154.414C36.226 154.441 36.0822 154.463 35.9332 154.49Z" fill="#343849"/>
<path d="M74.9332 307.49C67.7193 308.988 60.6102 310.929 53.6491 313.305C48.8577 314.874 44.1787 316.752 39.643 318.927C39.4261 320.039 39 322.224 39 322.224L53.401 327.1L53.4127 327.09C53.5043 327.563 53.6111 328.032 53.7214 328.5C55.7521 337.118 60.8793 344.743 68.1766 350C68.1672 349.906 68.1599 349.805 68.1508 349.709C67.6655 342.611 68.1263 335.482 69.5218 328.5C69.9091 326.493 70.3695 324.481 70.9165 322.503C72.2995 316.962 74.6992 311.71 78 307C77.1536 307.111 76.2723 307.254 75.374 307.414C75.226 307.441 75.0822 307.463 74.9332 307.49Z" fill="#343849"/>
<path d="M35.9332 256.49C28.7193 257.987 21.6102 259.929 14.6491 262.304C13.1586 262.808 11.6726 263.334 10.2082 263.877C6.94873 265.062 3.75588 266.414 0.643035 267.927C0.426115 269.039 0 271.224 0 271.224L10.2082 274.68L14.401 276.1L14.4127 276.09C16.1947 285.267 21.4677 293.449 29.1767 299C29.1672 298.906 29.1599 298.805 29.1509 298.709C28.5547 289.554 29.4887 280.366 31.9165 271.503C33.2994 265.961 35.6992 260.709 39 256C38.1536 256.11 37.2722 256.254 36.374 256.414C36.226 256.441 36.0822 256.463 35.9332 256.49Z" fill="#343849"/>
<path d="M74.9332 409.49C67.7192 410.987 60.6102 412.929 53.6491 415.304C48.8577 416.874 44.1787 418.753 39.643 420.927C39.4261 422.039 39 424.224 39 424.224L53.401 429.1L53.4127 429.09C53.5043 429.563 53.6112 430.032 53.7215 430.5C55.7522 439.118 60.8793 446.744 68.1766 452C68.1672 451.906 68.1599 451.805 68.1508 451.709C67.6655 444.611 68.1263 437.483 69.5218 430.5C69.9091 428.493 70.3695 426.481 70.9165 424.503C72.2994 418.961 74.6992 413.709 78 409C77.1536 409.11 76.2723 409.254 75.374 409.414C75.226 409.44 75.0822 409.463 74.9332 409.49Z" fill="#343849"/>
<path d="M35.9332 358.49C28.7193 359.988 21.6103 361.929 14.6491 364.304C13.1586 364.807 11.6726 365.335 10.2082 365.877C6.94879 367.062 3.75595 368.414 0.643035 369.927C0.426115 371.039 0 373.224 0 373.224L10.2082 376.68L14.401 378.1L14.4127 378.09C16.1946 387.267 21.4676 395.449 29.1767 401C29.1672 400.906 29.1599 400.805 29.1509 400.709C28.5546 391.554 29.4887 382.366 31.9165 373.503C33.2995 367.961 35.6993 362.709 39 358C38.1536 358.11 37.2722 358.254 36.374 358.414C36.226 358.441 36.0822 358.463 35.9332 358.49Z" fill="#343849"/>
<path d="M35.9332 461.49C28.7193 462.987 21.6103 464.929 14.6491 467.305C13.1586 467.807 11.6726 468.335 10.2082 468.877C6.94879 470.062 3.75595 471.414 0.643035 472.927C0.426115 474.039 0 476.224 0 476.224L10.2082 479.68L14.401 481.1L14.4127 481.09C16.1947 490.267 21.4677 498.449 29.1767 504C29.1672 503.906 29.1599 503.805 29.1509 503.709C28.5546 494.554 29.4887 485.366 31.9165 476.503C33.2995 470.962 35.6992 465.71 39 461C38.1536 461.111 37.2722 461.254 36.374 461.414C36.226 461.44 36.0822 461.463 35.9332 461.49Z" fill="#343849"/>
<rect width="540" height="512" fill="url(#paint0_radial_302_3850)"/>
</g>
<defs>
<radialGradient id="paint0_radial_302_3850" cx="0" cy="0" r="1" gradientUnits="userSpaceOnUse" gradientTransform="translate(270 256) rotate(90) scale(256 270)">
<stop offset="0.703125" stop-color="#222432" stop-opacity="0"/>
<stop offset="1" stop-color="#222432"/>
</radialGradient>
</defs>
</svg>
