<svg width="82" height="90" viewBox="0 0 82 90" fill="none" xmlns="http://www.w3.org/2000/svg">
<path d="M75.092 90.0048C68.173 87.6664 61.3795 84.9652 54.7397 81.9123C51.7407 80.5564 48.7331 79.1451 45.7558 77.6902C31.8096 70.9357 18.2991 63.3063 5.30585 54.848C5.15441 54.7445 5.00805 54.6411 4.86159 54.5375C4.75351 54.4611 4.64538 54.3847 4.5351 54.3082C3.15342 53.3519 1.81095 52.3948 0.541203 51.4396L79.2523 1.10351C79.2845 1.31991 79.3158 1.53635 79.3461 1.75283M75.092 90.0048C77.0971 88.6455 81.0376 85.9736 81.0376 85.9736M75.092 90.0048L74.8112 89.5911L75.017 89.4516M75.092 90.0048L75.2522 89.5313C75.1737 89.5048 75.0953 89.4782 75.017 89.4516M81.0376 85.9736L71.0872 65.5728L67.0138 57.2213L66.9986 57.211L66.9529 57.6912L66.9212 57.6882L66.6736 57.6646M81.0376 85.9736L80.5881 86.1927L80.3981 85.8032M81.0376 85.9736L80.7568 85.56L80.7567 85.5601L80.7562 85.5604L80.754 85.5619L80.7455 85.5677L80.7121 85.5903L80.5837 85.6774L80.3981 85.8032M66.6736 57.6646L66.5507 57.4126L66.9667 57.2099L66.9844 57.2013L66.9685 57.1905L67.0159 56.6929L67.0477 56.6959L67.2868 56.7187C78.1673 40.4624 82.6163 20.7074 79.78 1.2542C79.7386 1.30317 79.6991 1.35006 79.6638 1.39246L79.6548 1.40333L79.6546 1.4032C79.552 1.51988 79.4491 1.63642 79.3461 1.75283M66.6736 57.6646L70.6376 65.7919L80.3981 85.8032M66.6736 57.6646L66.08 57.6082L66.5549 56.9096C77.5156 40.7869 82.0645 21.1338 79.3461 1.75283M79.3461 1.75283C66.4107 16.3737 51.1841 28.7962 34.2512 38.5422C24.0804 44.7028 12.8956 49.0238 1.20506 51.3119C2.35998 52.1719 3.57292 53.0342 4.81982 53.8972L4.8203 53.8975C4.93973 53.9804 5.0495 54.058 5.15717 54.1342C5.29727 54.2333 5.43382 54.3299 5.5835 54.4322C18.5577 62.8778 32.0483 70.4959 45.9739 77.2404L45.9754 77.2411C48.9481 78.6937 51.9512 80.1029 54.9458 81.4569L54.9487 81.4582C61.4973 84.4691 68.1959 87.1372 75.017 89.4516M75.017 89.4516L78.536 87.0658L80.1099 85.9987L80.3981 85.8032" stroke="white"/>
</svg>
